<?xml version="1.0" standalone="no"?>
<!DOCTYPE svg PUBLIC "-//W3C//DTD SVG 1.1//EN" "http://www.w3.org/Graphics/SVG/1.1/DTD/svg11.dtd" >
<svg>
<metadata>
Created by FontForge 20120731 at Fri Nov 22 14:10:54 2013
 By World Wide Web Server
Copyright (c) 2010 by Jonathan Hill. All rights reserved.
</metadata>
<defs>
<font id="Lintel-Bold" horiz-adv-x="503" >
  <font-face 
    font-family="Lintel Bold"
    font-weight="700"
    font-stretch="normal"
    units-per-em="1000"
    panose-1="0 0 8 0 0 0 0 0 0 0"
    ascent="750"
    descent="-250"
    x-height="500.939"
    cap-height="700"
    bbox="-73 -228 1097.97 1050.48"
    underline-thickness="50"
    underline-position="-50"
    stemh="98"
    stemv="111"
    unicode-range="U+0020-FB02"
  />
<missing-glyph horiz-adv-x="500" 
d="M0 0v700h500v-700h-500zM250 395l170 255h-340zM280 350l170 -255v510zM80 50h340l-170 255zM50 605v-510l170 255z" />
    <glyph glyph-name="f_f" unicode="ff" horiz-adv-x="599" 
d="M351.69 501l0.00976562 39.3896c0 129.78 91.9697 171.16 177.62 171.16c17.75 0 34.8496 -1.73047 51.0596 -4.76074v-85.5498c-13.0498 2 -24.4297 3.04004 -34.0498 3.04004c-5.83008 0 -11.0098 -0.379883 -15.54 -1.16992
c-42.0098 -3.98047 -71.75 -31.1807 -72.25 -91.8906v-30.2197h113.54v-81.71h-113.54v-419.29h-106.84v419.29h-188.9v-419.29h-106.84v540.4c0 129.77 91.96 171.149 177.61 171.149c17.75 0 34.8496 -1.73047 51.0596 -4.75v-85.5498
c-13.0498 1.99023 -24.4297 3.03027 -34.0498 3.03027c-5.83008 0 -11.0098 -0.379883 -15.54 -1.16016c-42.2803 -4.05957 -71.8301 -31.6094 -72.25 -92.7393v-29.3799h188.9z" />
    <glyph glyph-name="f_f_i" unicode="ffi" horiz-adv-x="810" 
d="M351.94 501l0.00878906 39.3906c0 118.52 81.4502 171.359 187.82 171.359c77.4404 0 138.33 -22.4902 163.061 -31.4307v-76.8096s-58.6797 20.8096 -139.6 20.8096c-59.0703 0 -104.09 -18.79 -104.45 -98.5498v-24.7695h297.47v-501h-106.84v419.29h-190.63v-419.29
h-106.84v419.29h-189.15v-419.29h-106.84v540.4c0 129.77 91.9697 171.149 177.62 171.149c17.75 0 34.8496 -1.73047 51.0596 -4.75v-85.5498c-13.0498 1.99023 -24.4297 3.03027 -34.0498 3.03027c-5.83008 0 -11.0098 -0.379883 -15.54 -1.16016
c-42.8896 -4.23047 -72 -32.5703 -72.25 -94.6299v-27.4902h189.15z" />
    <glyph glyph-name="f_f_j" unicode="ffj" horiz-adv-x="810" 
d="M351.95 501l0.0185547 39.3799c0 118.53 81.4502 171.36 187.811 171.36c77.4404 0 138.341 -22.4902 163.061 -31.4199v-76.8096s-58.6797 20.8096 -139.6 20.8096c-57.4902 0 -103.74 -17.8398 -104.44 -96.2998v-27.0303h297.47v-538
c0 -95 -63.7598 -142 -142.529 -153c-13.3701 -1 -26.8105 -2 -40.751 -1l-1.2998 86c13.46 0 24.1797 1 33.2695 4c39.0303 13 44.46 48 44.46 83v437.29h-190.63v-419.29h-106.84v419.29h-189.16v-419.29h-106.84v540.4c0 129.78 91.9697 171.16 177.62 171.16
c17.75 0 34.8496 -1.73047 51.0596 -4.76074v-85.5498c-13.0498 2 -24.4297 3.04004 -34.0498 3.04004c-5.83008 0 -11.0098 -0.379883 -15.54 -1.16992c-42.5596 -4.12988 -71.9092 -32.0303 -72.249 -93.5801v-28.5303h189.16z" />
    <glyph glyph-name="f_f_l" unicode="ffl" horiz-adv-x="807" 
d="M351.95 501.08l-0.00195312 39.3896c0 118.53 81.4502 171.36 187.82 171.36c134.55 0 216.49 -55.9404 216.49 -55.9404v-655.81h-106.84v604.39c-34.2998 12.9004 -66.7197 19.9404 -103.3 19.9404c-43.5498 0 -87.0996 -20.8799 -87.3301 -95.3398v-27.9902h113.54
v-81.71h-113.54v-419.29h-106.84v419.29h-189.15v-419.29h-106.84v540.4c0 129.78 91.96 171.16 177.61 171.16c17.75 0 34.8496 -1.73047 51.0596 -4.76074v-85.5498c-13.0498 2 -24.4297 3.04004 -34.0498 3.04004c-5.83008 0 -11.0098 -0.379883 -15.54 -1.16992
c-42.6699 -4.16016 -71.9395 -32.21 -72.249 -93.9199v-28.2002h189.16z" />
    <glyph glyph-name="fi" unicode="fi" horiz-adv-x="514" 
d="M55.9502 0l-0.000976562 540.39c0 118.53 81.4502 171.36 187.82 171.36c77.4404 0 138.33 -22.4902 163.061 -31.4199v-76.8096s-58.6797 20.8096 -139.6 20.8096c-57.7305 0 -103.801 -17.9902 -104.44 -96.6504v-26.6797h297.47v-501h-106.84v419.29h-190.63v-419.29
h-106.84z" />
    <glyph glyph-name="fl" unicode="fl" horiz-adv-x="512" 
d="M55.9502 0l0.0078125 540.389c0 118.53 81.4502 171.36 187.811 171.36c134.55 0 216.5 -55.9502 216.5 -55.9502v-655.81h-106.84v604.4c-34.2998 12.9004 -66.7197 19.9307 -103.31 19.9307c-44.7695 0 -87.2695 -22.1904 -87.3291 -97.3604v-25.96h113.54v-81.71
h-113.54v-419.29h-106.84z" />
    <glyph glyph-name=".notdef" horiz-adv-x="500" 
d="M0 0v700h500v-700h-500zM250 395l170 255h-340zM280 350l170 -255v510zM80 50h340l-170 255zM50 605v-510l170 255z" />
    <glyph glyph-name="A" unicode="A" horiz-adv-x="622" 
d="M599.68 0h-116.21l-62.6201 200.13h-219.38l-63.0498 -200.13h-115.44l233.65 700h109.05zM227.8 298.86h166.721l-83.3604 266.14z" />
    <glyph glyph-name="Aacute" unicode="&#xc1;" horiz-adv-x="622" 
d="M349.7 780.85h-71.7705l56.7002 121.55h99.8203zM599.67 -0h-116.21l-62.6201 200.13h-219.37l-63.0596 -200.13h-115.44l233.65 700h109.06zM227.8 298.86h166.721l-83.3604 266.14z" />
    <glyph glyph-name="Abreve" unicode="&#x102;" horiz-adv-x="622" 
d="M409.98 901.46h49.3711c0 -81.2998 -63.9404 -138.43 -147.61 -138.43s-147.61 57.1299 -147.61 138.43h49.3701c3.96973 -50.9102 48.4795 -80.9805 98.2393 -80.9805c49.3203 0 94.2705 30.0703 98.2402 80.9805zM599.682 -0h-116.21l-62.6201 200.13h-219.37
l-63.0596 -200.13h-115.44l233.65 700h109.06zM227.812 298.86h166.721l-83.3604 266.14z" />
    <glyph glyph-name="Acaron" unicode="&#x1cd;" horiz-adv-x="622" 
d="M362.93 773.78h-98.9189l-123.66 141.86h86.6797l86.1396 -95.9004l84.1504 95.9004h86.8896zM599.681 0h-116.21l-62.6201 200.13h-219.37l-63.0596 -200.13h-115.44l233.65 700h109.06zM227.811 298.86h166.721l-83.3604 266.14z" />
    <glyph glyph-name="Acircumflex" unicode="&#xc2;" horiz-adv-x="622" 
d="M485.27 772.05h-86.8906l-84.1602 95.9004l-86.1396 -95.9004h-86.6797l123.67 141.86h98.9199zM599.669 -0h-116.21l-62.6201 200.13h-219.37l-63.0596 -200.13h-115.44l233.65 700h109.06zM227.799 298.86h166.721l-83.3604 266.14z" />
    <glyph glyph-name="Adieresis" unicode="&#xc4;" horiz-adv-x="622" 
d="M218.62 882.47c27.8604 0 49.6104 -21.75 49.6104 -51.3096c0 -28.4199 -21.75 -51.3096 -50.1797 -51.3096c-28.9902 0 -51.8799 22.8896 -51.8799 51.3096c0 29.5596 22.8896 51.3096 52.4492 51.3096zM413.43 882.47c27.8604 0 49.6104 -21.75 49.6104 -51.3096
c0 -28.4199 -21.75 -51.3096 -50.1699 -51.3096c-29 0 -51.8799 22.8896 -51.8799 51.3096c0 29.5596 22.8799 51.3096 52.4395 51.3096zM599.67 -0h-116.21l-62.6201 200.13h-219.37l-63.0596 -200.13h-115.44l233.65 700h109.06zM227.8 298.86h166.721l-83.3604 266.14z
" />
    <glyph glyph-name="Agrave" unicode="&#xc0;" horiz-adv-x="622" 
d="M365.63 780.28h-71.7695l-84.7402 121.55h99.8096zM599.681 0h-116.21l-62.6201 200.13h-219.38l-63.0498 -200.13h-115.44l233.65 700h109.05zM227.801 298.86h166.721l-83.3604 266.14z" />
    <glyph glyph-name="Amacron" unicode="&#x100;" horiz-adv-x="622" 
d="M435.74 805.38h-249.83v57.0195h249.83v-57.0195zM599.67 -0h-116.21l-62.6201 200.13h-219.37l-63.0596 -200.13h-115.44l233.65 700h109.06zM227.8 298.86h166.721l-83.3604 266.14z" />
    <glyph glyph-name="Aogonek" unicode="&#x104;" horiz-adv-x="649" 
d="M599.66 0l-57.0029 -2.99902c-54.0596 -47.3604 -61.75 -79.2207 -61.75 -100.181c0 -30.8496 20.4404 -44.8594 45.5508 -44.8594c27.4502 0 47.1201 17.7305 65.6904 43.04l42.5195 -17c-29.1602 -49 -72.8398 -80 -130.359 -80c-38.3096 0 -96.2393 19 -96.2393 88
c0 25 11.0498 66 75.3701 114.05l-62.5898 200.02h-219.38l-63.0498 -200.07h-115.44l233.65 699.94h109.05zM227.808 298.811h166.721l-83.3604 266.13z" />
    <glyph glyph-name="Aring" unicode="&#xc5;" horiz-adv-x="622" 
d="M311.72 956.21c63.5996 0 118.85 -53.9092 118.85 -118.56c0 -63.3604 -54.54 -118.57 -118.85 -118.57c-64.3496 0 -118.859 55.8398 -118.859 118.57c0 64.0195 55.2197 118.56 118.859 118.56zM311.72 902.871c-36.3496 0 -65.3691 -28.5703 -65.3691 -65.2305
c0 -36.0195 29.1699 -65.6494 65.3701 -65.6494c35.7695 0 64.9395 29.6299 64.9395 65.6494c0 36.6602 -29.0303 65.2305 -64.9404 65.2305zM599.68 0.000976562h-116.21l-62.6201 200.13h-219.37l-63.0596 -200.13h-115.44l233.65 700h109.06zM227.81 298.861h166.721
l-83.3604 266.14z" />
    <glyph glyph-name="Atilde" unicode="&#xc3;" horiz-adv-x="622" 
d="M182.52 791.03l-38.1904 51.0205c15.1396 16.0098 61.5498 58.8994 108.95 58.8994c48.9697 0 78.2002 -39.6602 119.22 -39.6602c30.8701 0 58.6104 30.4902 68.5605 40.8701l38.1104 -51.46c-12.1104 -11.25 -57.5801 -52.4102 -102.82 -52.4102
c-48.9697 0 -80.6094 38.7998 -123.93 38.7998c-29.75 0 -57.3604 -31.79 -69.9004 -46.0596zM599.679 0.000976562h-116.21l-62.6201 200.13h-219.37l-63.0596 -200.13h-115.44l233.65 700h109.06zM227.809 298.861h166.721l-83.3604 266.14z" />
    <glyph glyph-name="AE" unicode="&#xc6;" horiz-adv-x="783" 
d="M742.45 601.27l-330.3 0.000976562l4.38965 -202.35h297.71v-98.7305h-291.41l4.36035 -201.46h317.09v-98.7305h-416.71l-5.41992 200.13h-120.69l-63.0498 -200.13h-115.44l233.65 700h485.82v-98.7305zM227.801 298.86h88.1201l-7.79004 257.49z" />
    <glyph glyph-name="B" unicode="B" horiz-adv-x="600" 
d="M73.79 700.05l280.892 0.000976562c117.81 0 184.51 -84.9297 184.51 -182.42c0 -79.3604 -28.0801 -135.4 -80.1201 -164.801c62.9297 -28.2998 96.9893 -90.6201 96.9893 -159.851c0 -123.67 -68.2002 -192.979 -185.73 -192.979h-296.54v700.05zM185.252 399.751
l142.789 0.000976562c64.6504 0 99.79 35.7695 99.79 104.18c0 53.3496 -34.5195 97.2793 -98.5293 97.2793h-144.05v-201.46zM185.141 299.872v-201.459h159.6c64.6504 0 99.79 35.7695 99.79 104.18c0 53.3496 -34.5195 97.2793 -98.5293 97.2793h-160.86z" />
    <glyph glyph-name="C" unicode="C" horiz-adv-x="563" 
d="M59.46 231.85v241.153c0 160.21 105.48 242.28 248.95 242.28c109.73 0 184.561 -51.1201 217.33 -131.86l-81.4297 -37.75c-22.5498 46.25 -70.6797 70.8896 -127.279 70.8896c-83.1904 0 -146.221 -47.3301 -146.221 -143.561v-241.15
c0 -96.2305 63.0303 -143.561 146.221 -143.561c56.5996 0 104.729 24.6396 127.279 70.8896l81.4297 -37.75c-32.7695 -80.7402 -107.6 -131.431 -217.33 -131.431c-143.47 0 -248.95 81.6396 -248.95 241.85z" />
    <glyph glyph-name="Cacute" unicode="&#x106;" horiz-adv-x="563" 
d="M321.03 780.85h-71.7705l56.7002 121.55h99.8203zM59.46 231.85v241.153c0 160.21 105.48 242.28 248.95 242.28c109.73 0 184.561 -51.1201 217.33 -131.86l-81.4297 -37.75c-22.5498 46.25 -70.6797 70.8896 -127.279 70.8896
c-83.1904 0 -146.221 -47.3301 -146.221 -143.561v-241.15c0 -96.2305 63.0303 -143.561 146.221 -143.561c56.5996 0 104.729 24.6396 127.279 70.8896l81.4297 -37.75c-32.7695 -80.7402 -107.6 -131.431 -217.33 -131.431c-143.47 0 -248.95 81.6396 -248.95 241.85z" />
    <glyph glyph-name="Ccaron" unicode="&#x10c;" horiz-adv-x="563" 
d="M329.72 773.78h-98.9189l-123.66 141.86h86.6797l86.1396 -95.9004l84.1504 95.9004h86.8896zM59.4707 231.851v241.153c0 160.21 105.48 242.28 248.94 242.28c109.74 0 184.561 -51.1201 217.33 -131.86l-81.4199 -37.75
c-22.5498 46.25 -70.6797 70.8896 -127.29 70.8896c-83.1904 0 -146.221 -47.3301 -146.221 -143.561v-241.15c0 -96.2305 63.0303 -143.561 146.221 -143.561c56.6104 0 104.74 24.6396 127.29 70.8896l81.4199 -37.75
c-32.7695 -80.7402 -107.59 -131.431 -217.33 -131.431c-143.46 0 -248.94 81.6396 -248.94 241.85z" />
    <glyph glyph-name="Ccedilla" unicode="&#xc7;" horiz-adv-x="563" 
d="M59.46 231.85v241.142c0 160.21 105.48 242.29 248.94 242.29c109.74 0 184.561 -51.1299 217.33 -131.86l-81.4199 -37.75c-22.5498 46.25 -70.6797 70.8896 -127.29 70.8896c-83.1904 0 -146.221 -47.3301 -146.221 -143.57v-241.14
c0 -96.2402 63.0303 -143.57 146.221 -143.57c56.6104 0 104.74 24.6396 127.29 70.8896l81.4199 -37.75c-29.2402 -68.75 -89.0898 -115.29 -175.38 -127.43c-16.2305 -2 -33.1602 -3 -50.75 -4l-24.6104 -34c10.3301 3.05957 21.46 4.35938 32.6104 4.35938
c49.8896 0 94.25 -24.2998 94.25 -84.3594c0 -75 -66.7803 -98 -131.95 -98c-42.7402 0 -84.9102 16 -113.99 28l19.1201 44c29.1299 -14 60.0596 -20 86.2598 -23c35.3096 -1 67.6494 15 67.6494 46c0 27 -18.6396 41 -48.1396 41c-16.1699 0 -35.2295 -4 -61.6895 -15
l-20.9404 20l51.4102 76c-112.65 19.5996 -190.12 99.4697 -190.12 236.859z" />
    <glyph glyph-name="Cdotaccent" unicode="&#x10a;" horiz-adv-x="563" 
d="M292.77 882.43c27.8604 0 49.6104 -21.75 49.6104 -51.3096c0 -28.4199 -21.75 -51.3096 -50.1699 -51.3096c-29 0 -51.8799 22.8896 -51.8799 51.3096c0 29.5596 22.8799 51.3096 52.4395 51.3096zM59.4697 231.85v241.153c0 160.21 105.48 242.28 248.94 242.28
c109.74 0 184.561 -51.1201 217.33 -131.86l-81.4199 -37.75c-22.5498 46.25 -70.6797 70.8896 -127.29 70.8896c-83.1904 0 -146.221 -47.3301 -146.221 -143.561v-241.15c0 -96.2305 63.0303 -143.561 146.221 -143.561c56.6104 0 104.74 24.6396 127.29 70.8896
l81.4199 -37.75c-32.7695 -80.7402 -107.59 -131.431 -217.33 -131.431c-143.46 0 -248.94 81.6396 -248.94 241.85z" />
    <glyph glyph-name="D" unicode="D" horiz-adv-x="625" 
d="M73.79 700l240.01 -0.00878906c166.82 0 252.12 -106.49 252.12 -241.4v-241.03c0 -166.86 -115.63 -217.561 -234.46 -217.561h-257.67v700zM185.13 601.261v-502.53h146.33c75.8701 0 123.12 24.75 123.12 118.83v241.03c0 88.0498 -45.6504 142.67 -140.78 142.67
h-128.67z" />
    <glyph glyph-name="Eth" unicode="&#xd0;" horiz-adv-x="648" 
d="M97 700h240.02c166.82 0 252.12 -106.49 252.12 -241.4v-241.04c0 -166.85 -115.64 -217.56 -234.47 -217.56h-257.67v300.13h-87v98.7305h87v301.14zM208.35 601.27v-202.399h130.83v-98.7305h-130.83v-201.41h146.33c75.8701 0 123.12 24.7598 123.12 118.83v241.04
c0 88.0498 -45.6504 142.67 -140.78 142.67h-128.67z" />
    <glyph glyph-name="Dcaron" unicode="&#x10e;" horiz-adv-x="625" 
d="M363.85 773.78h-98.9199l-123.67 141.86h86.6797l86.1396 -95.9004l84.1602 95.9004h86.8799zM73.7998 700l240.01 -0.00878906c166.82 0 252.12 -106.49 252.12 -241.4v-241.03c0 -166.86 -115.63 -217.561 -234.46 -217.561h-257.67v700zM185.13 601.261
l-0.000976562 -502.53h146.33c75.8799 0 123.12 24.75 123.12 118.83v241.03c0 88.0498 -45.6396 142.67 -140.77 142.67h-128.68z" />
    <glyph glyph-name="Dcroat" unicode="&#x110;" horiz-adv-x="643" 
d="M94.2998 700l240.01 0.000976562c166.82 0 252.12 -106.49 252.12 -241.4v-241.04c0 -166.85 -115.63 -217.56 -234.46 -217.56h-257.67v321.27h-81.4697v57.0195h81.4697v321.71zM205.64 601.271l-0.000976562 -222.98h136.51v-57.0098h-136.51v-222.55h146.33
c75.8799 0 123.12 24.7598 123.12 118.83v241.04c0 88.0498 -45.6396 142.67 -140.779 142.67h-128.67z" />
    <glyph glyph-name="E" unicode="E" horiz-adv-x="562" 
d="M519.13 601.27l-334 0.000976562v-202.35h308.4v-98.7305h-308.4v-201.46h339.3v-98.7305h-450.64v700h445.34v-98.7305z" />
    <glyph glyph-name="Eacute" unicode="&#xc9;" horiz-adv-x="562" 
d="M326.55 780.85h-71.7705l56.7002 121.55h99.8203zM519.129 601.27l-334 0.000976562v-202.35h308.39v-98.7305h-308.39v-201.46h339.3v-98.7305h-450.64v700h445.34v-98.7305z" />
    <glyph glyph-name="Ecaron" unicode="&#x11a;" horiz-adv-x="562" 
d="M320.86 773.78h-98.9199l-123.67 141.86h86.6797l86.1396 -95.9004l84.1602 95.9004h86.8799zM519.141 601.271l-334 0.000976562v-202.35h308.39v-98.7305h-308.39v-201.46h339.3v-98.7305h-450.64v700h445.34v-98.7305z" />
    <glyph glyph-name="Ecircumflex" unicode="&#xca;" horiz-adv-x="562" 
d="M443.19 772.05h-86.8896l-84.1504 95.9004l-86.1396 -95.9004h-86.6797l123.66 141.86h98.9297zM519.131 601.27l-334 0.000976562v-202.35h308.39v-98.7305h-308.39v-201.46h339.3v-98.7305h-450.64v700h445.34v-98.7305z" />
    <glyph glyph-name="Edieresis" unicode="&#xcb;" horiz-adv-x="562" 
d="M176.54 882.47c27.8604 0 49.6201 -21.75 49.6201 -51.3096c0 -28.4199 -21.7598 -51.3096 -50.1797 -51.3096c-29 0 -51.8799 22.8896 -51.8799 51.3096c0 29.5596 22.8799 51.3096 52.4395 51.3096zM371.36 882.47c27.8604 0 49.6104 -21.75 49.6104 -51.3096
c0 -28.4199 -21.75 -51.3096 -50.1797 -51.3096c-28.9902 0 -51.8799 22.8896 -51.8799 51.3096c0 29.5596 22.8896 51.3096 52.4492 51.3096zM519.13 601.26l-334 0.000976562v-202.34h308.39v-98.7402h-308.39v-201.46h339.3v-98.7305h-450.64v700h445.34v-98.7305z" />
    <glyph glyph-name="Edotaccent" unicode="&#x116;" horiz-adv-x="562" 
d="M276.93 882.3c27.8604 0 49.6104 -21.75 49.6104 -51.3096c0 -28.4199 -21.75 -51.3096 -50.1797 -51.3096c-28.9902 0 -51.8799 22.8896 -51.8799 51.3096c0 29.5596 22.8896 51.3096 52.4492 51.3096zM519.13 601.26l-334 0.000976562v-202.34h308.39v-98.7402h-308.39
v-201.46h339.3v-98.7305h-450.64v700h445.34v-98.7305z" />
    <glyph glyph-name="Egrave" unicode="&#xc8;" horiz-adv-x="562" 
d="M365.14 780.28h-71.7705l-84.7402 121.55h99.8203zM519.129 601.261l-334 0.000976562v-202.34h308.39v-98.7402h-308.39v-201.46h339.3v-98.7305h-450.64v700h445.34v-98.7305z" />
    <glyph glyph-name="Emacron" unicode="&#x112;" horiz-adv-x="562" 
d="M423.89 805.38h-249.82v57.0195h249.82v-57.0195zM519.01 601.27l-334 0.000976562v-202.35h308.39v-98.7305h-308.39v-201.46h339.3v-98.7305h-450.64v700h445.34v-98.7305z" />
    <glyph glyph-name="Eogonek" unicode="&#x118;" horiz-adv-x="581" 
d="M519.02 600.87l-333.759 -0.0117188v-202.15h308.18v-98.7197h-308.18v-201.27h339.06v-98.7197h-87.0801c-21.3301 -22.5 -69.4199 -63.8096 -69.4199 -106.029c0 -29.9199 19.1299 -43.9697 43.2402 -43.9697c28.6201 -1 48.8398 17 67.9102 43l42.5098 -17
c-29.2002 -50 -72.8701 -80 -130.3 -80c-38.29 0 -96.1904 19 -96.1904 88c0 44 44.9502 90 75.25 116.45h-296.32v699.59h445.1v-99.1699z" />
    <glyph glyph-name="F" unicode="F" horiz-adv-x="548" 
d="M510.43 601.27l-325.3 0.000976562v-202.35h294.4v-98.7305h-294.4v-300.19h-111.34v700h436.64v-98.7305z" />
    <glyph glyph-name="G" unicode="G" horiz-adv-x="624" 
d="M59.46 220.48l0.0126953 252.518c0 160.2 103.61 242.28 251.24 242.28c113.01 0 188 -50.8301 220.89 -131.18l-88.2998 -38.71c-26.4404 47.8799 -63.7607 71.1699 -130.181 71.1699c-90.2803 0 -142.311 -41.9297 -142.311 -143.56v-252.51
c0 -99.5098 67.7695 -132.08 139.01 -132.08c71.8398 0 133.84 32.25 133.84 132.07v71.3203h-115.9v93.6299h227.24v-385.43h-82.4004l-3.90039 68.2598c-37.7002 -56.0596 -106.96 -78.2695 -173.86 -78.2695c-112.54 0 -235.38 67.7998 -235.38 230.49z" />
    <glyph glyph-name="Gbreve" unicode="&#x11e;" horiz-adv-x="624" 
d="M410.59 901.46h49.3809c0 -81.2998 -63.9502 -138.43 -147.62 -138.43c-83.6602 0 -147.61 57.1299 -147.61 138.43h49.3701c3.96973 -50.9102 48.4795 -80.9805 98.2393 -80.9805c49.3301 0 94.2705 30.0703 98.2402 80.9805zM59.4707 220.479v252.509
c0 160.21 103.61 242.28 251.24 242.28c113.02 0 188 -50.8203 220.89 -131.17l-88.2998 -38.7197c-26.4297 47.8799 -63.75 71.1699 -130.18 71.1699c-90.2695 0 -142.31 -41.9297 -142.31 -143.56v-252.51c0 -99.5098 67.7695 -132.08 139.01 -132.08
c71.8496 0 133.84 32.2598 133.84 132.08v71.3096h-115.89v93.6299h227.24v-385.43h-82.4102l-3.90039 68.2598c-37.6904 -56.0498 -106.95 -78.2695 -173.86 -78.2695c-112.53 0 -235.37 67.7998 -235.37 230.5z" />
    <glyph glyph-name="Gcommaaccent" unicode="&#x122;" horiz-adv-x="624" 
d="M59.46 220.48l0.0126953 252.518c0 160.2 103.61 242.28 251.24 242.28c113.01 0 188 -50.8301 220.89 -131.18l-88.2998 -38.71c-26.4404 47.8799 -63.7607 71.1699 -130.181 71.1699c-90.2803 0 -142.311 -41.9297 -142.311 -143.56v-252.51
c0 -99.5098 67.7695 -132.08 139.01 -132.08c71.8398 0 133.84 32.25 133.84 132.07v71.3203h-115.9v93.6299h227.24v-385.43h-82.4004l-3.90039 68.2598c-37.7002 -56.0596 -106.96 -78.2695 -173.86 -78.2695c-112.54 0 -235.38 67.7998 -235.38 230.49zM257.492 -214.002
l20.0703 60c-9.23047 7 -15.3105 18 -15.3105 31c0 21 18.1699 40 39.9502 40s39.96 -19 39.96 -40c0 -7 -1.70996 -13 -4.7002 -19l-34.2197 -72h-45.75z" />
    <glyph glyph-name="Gdotaccent" unicode="&#x120;" horiz-adv-x="624" 
d="M302.08 885.8c27.8604 0 49.6104 -21.75 49.6104 -51.3096c0 -28.4297 -21.75 -51.3096 -50.1797 -51.3096c-28.9902 0 -51.8799 22.8799 -51.8799 51.3096c0 29.5596 22.8896 51.3096 52.4492 51.3096zM59.46 220.479l0.0126953 252.518
c0 160.2 103.61 242.28 251.24 242.28c113.01 0 188 -50.8301 220.89 -131.18l-88.2998 -38.71c-26.4404 47.8799 -63.7607 71.1699 -130.181 71.1699c-90.2803 0 -142.311 -41.9297 -142.311 -143.56v-252.51c0 -99.5098 67.7695 -132.08 139.01 -132.08
c71.8398 0 133.84 32.25 133.84 132.07v71.3203h-115.9v93.6299h227.24v-385.43h-82.4004l-3.90039 68.2598c-37.7002 -56.0596 -106.96 -78.2695 -173.86 -78.2695c-112.54 0 -235.38 67.7998 -235.38 230.49z" />
    <glyph glyph-name="H" unicode="H" horiz-adv-x="646" 
d="M572.73 0h-111.34v300.19h-276.26v-300.19h-111.34v700h111.34v-301.08h276.26v301.08h111.34v-700z" />
    <glyph glyph-name="Hbar" unicode="&#x126;" horiz-adv-x="693" 
d="M595.93 569.88h68v-56.9404h-68v-512.94h-111.35v300.19h-276.25v-300.19h-111.35v512.94h-67.7803v56.9404h67.7803v130.12h111.35v-130.12h276.25v130.12h111.35v-130.12zM208.33 512.939v-114.02h276.25v114.02h-276.25z" />
    <glyph glyph-name="I" unicode="I" horiz-adv-x="259" 
d="M185.13 0h-111.34v700h111.34v-700z" />
    <glyph glyph-name="IJ" unicode="&#x132;" horiz-adv-x="617" 
d="M185.13 0h-111.34v700h111.34v-700zM567.55 699.35v-484.201c0 -146.84 -95.7305 -223.56 -230.87 -223.56c-16.4102 0 -33.4004 1.12988 -50.8701 3.41016v98.2402c13.1201 -1.7998 25.9297 -2.74023 38.2598 -2.74023c74.9902 0 132.141 34.9102 132.141 124.65v484.2
h111.34z" />
    <glyph glyph-name="Iacute" unicode="&#xcd;" horiz-adv-x="259" 
d="M154.75 780.85h-71.7705l56.7002 121.55h99.8203zM185.13 -0h-111.34v700h111.34v-700z" />
    <glyph glyph-name="Icaron" unicode="&#x1cf;" horiz-adv-x="259" 
d="M180.92 773.78h-98.9199l-124 141.86h87.2002l85.96 -95.9004l84.1504 95.9004h86.8896zM185.13 0h-111.34v700h111.34v-700z" />
    <glyph glyph-name="Icircumflex" unicode="&#xce;" horiz-adv-x="259" 
d="M303.26 772.05h-86.8896l-84.1504 95.9004l-85.96 -95.9004h-87.2598l124.06 141.86h98.9199zM185.13 -0h-111.34v700h111.34v-700z" />
    <glyph glyph-name="Idieresis" unicode="&#xcf;" horiz-adv-x="259" 
d="M36.6104 882.47c27.8604 0 49.6094 -21.75 49.6094 -51.3096c0 -28.4199 -21.75 -51.3096 -50.1797 -51.3096c-29.25 0 -52.04 22.8896 -52.04 51.3096c0 29.5596 22.79 51.3096 52.6104 51.3096zM231.419 882.47c27.8604 0 49.6104 -21.75 49.6104 -51.3096
c0 -28.4199 -21.75 -51.3096 -50.1699 -51.3096c-29 0 -51.8799 22.8896 -51.8799 51.3096c0 29.5596 22.8799 51.3096 52.4395 51.3096zM185.129 -0h-111.34v700h111.34v-700z" />
    <glyph glyph-name="Idotaccent" unicode="&#x130;" horiz-adv-x="259" 
d="M131.52 885.99c27.8604 0 49.6104 -21.75 49.6104 -51.3096c0 -28.4297 -21.75 -51.3096 -50.1797 -51.3096c-28.9902 0 -51.8799 22.8799 -51.8799 51.3096c0 29.5596 22.8896 51.3096 52.4492 51.3096zM185.13 0h-111.34v700h111.34v-700z" />
    <glyph glyph-name="Igrave" unicode="&#xcc;" horiz-adv-x="259" 
d="M192.42 780.28h-71.7695l-84.7402 121.55h99.8096zM185.141 0h-111.34v700h111.34v-700z" />
    <glyph glyph-name="Imacron" unicode="&#x12a;" horiz-adv-x="259" 
d="M253.73 815.03h-249.82v57.0098h249.82v-57.0098zM185.13 0h-111.34v700h111.34v-700z" />
    <glyph glyph-name="Iogonek" unicode="&#x12e;" horiz-adv-x="259" 
d="M185.13 700l0.00976562 -700.001c-57.9102 -49.2402 -66.4404 -82.0098 -66.4404 -104.029c0 -30.96 20.4102 -45.0098 45.54 -45.0098c27.4502 0 47.1201 17.7305 65.6904 43.04l42.5195 -17c-29.1396 -50 -72.8096 -80 -130.35 -80c-38.3203 0 -96.2402 19 -96.2402 88
c0 25 12.1104 66 72.3408 112l-44.4102 3v700h111.34z" />
    <glyph glyph-name="J" unicode="J" horiz-adv-x="359" 
d="M309.05 699.35l0.000976562 -484.201c0 -146.84 -95.7305 -223.56 -230.881 -223.56c-16.4102 0 -33.4004 1.12988 -50.8701 3.41016v98.2402c13.1201 -1.7998 25.9297 -2.74023 38.2598 -2.74023c75 0 132.15 34.9102 132.15 124.65v484.2h111.34z" />
    <glyph glyph-name="K" unicode="K" horiz-adv-x="612" 
d="M317.5 404.22l272.01 -404.22h-134.25l-207.49 316.92l-62.6396 -75.9502v-240.97h-111.34v700h111.34v-292.98l232.34 292.98h139.69z" />
    <glyph glyph-name="Kcommaaccent" unicode="&#x136;" horiz-adv-x="612" 
d="M317.5 404.22l272 -404.22h-134.25l-207.48 316.92l-62.6396 -75.9502v-240.97h-111.35v700h111.35v-292.98l232.33 292.98h139.7zM254.5 -214l20.0703 60c-9.21973 7 -15.3096 18 -15.3096 31c0 21 18.1797 40 39.96 40s39.9502 -19 39.9502 -40
c0 -7 -1.7002 -13 -4.69043 -19l-34.2305 -72h-45.75z" />
    <glyph glyph-name="L" unicode="L" horiz-adv-x="483" 
d="M185.13 98.7305h272.45v-98.7305h-383.79v700h111.34v-601.27z" />
    <glyph glyph-name="Lacute" unicode="&#x139;" horiz-adv-x="483" 
d="M170.08 780.85h-71.7705l56.6904 121.55h99.8203zM185.13 98.7295h272.44v-98.7305h-383.78v700h111.34v-601.27z" />
    <glyph glyph-name="Lcaron" unicode="&#x13d;" horiz-adv-x="483" 
d="M302.8 602.47l28.8311 87.9805c-13.4805 10.9502 -22.2705 27.7305 -22.2705 46.25c0 32.96 27.4199 60.3896 60.3896 60.3896c32.96 0 60.3896 -27.4297 60.3896 -60.3896c0 -10.1602 -2.61035 -19.7803 -7.16992 -28.2402l-49.9297 -105.99h-70.2402zM185.131 98.7197
h272.45v-98.7305h-383.79v700h111.34v-601.27z" />
    <glyph glyph-name="Lcommaaccent" unicode="&#x13b;" horiz-adv-x="483" 
d="M185.13 98.7305h272.45v-98.7305h-383.79v700h111.34v-601.27zM208.78 -214l20.0703 60c-9.21973 7 -15.3096 18 -15.3096 31c0 21 18.1797 40 39.96 40s39.9502 -19 39.9502 -40c0 -7 -1.7002 -13 -4.69043 -19l-34.2305 -72h-45.75z" />
    <glyph glyph-name="Ldot" unicode="&#x13f;" horiz-adv-x="483" 
d="M185.13 98.7305h272.45v-98.7305h-383.79v700h111.34v-601.27zM350.65 465.381c32.96 0 60.3896 -27.4297 60.3896 -60.3896c0 -32.9697 -27.4297 -60.3799 -60.3896 -60.3799c-32.9697 0 -60.5098 27.4102 -60.5098 60.3799c0 32.96 27.54 60.3896 60.5098 60.3896z" />
    <glyph glyph-name="Lslash" unicode="&#x141;" horiz-adv-x="544" 
d="M246.48 433.48l123.67 55.6494l41.1299 -87.3896l-164.8 -74.1797v-228.83h272.44v-98.7305h-383.79v277.83l-88.54 -39.7002l-36.5996 88.8604l125.14 56.1797v316.83h111.35v-266.52z" />
    <glyph glyph-name="M" unicode="M" horiz-adv-x="750" 
d="M678.64 0h-110.459v445.73l-153.32 -392.95h-80.9805l-152.46 392.95v-445.73h-110.46v700h112.85l190.99 -483.28l190.99 483.28h112.85v-700z" />
    <glyph glyph-name="N" unicode="N" horiz-adv-x="638" 
d="M568.86 0h-116.42l-272.31 476.96v-476.96h-111.34v700h110.8l277.93 -488v488h111.34v-700z" />
    <glyph glyph-name="Nacute" unicode="&#x143;" horiz-adv-x="638" 
d="M343.1 777.44h-71.7705l56.6904 121.56h99.8203zM568.859 0h-116.431l-272.3 476.96v-476.96h-111.34v700h110.79l277.94 -488v488h111.34v-700z" />
    <glyph glyph-name="Ncaron" unicode="&#x147;" horiz-adv-x="638" 
d="M367.25 773.78h-98.9199l-123.67 141.86h86.6797l86.1396 -95.9004l84.1602 95.9004h86.8799zM568.87 0h-116.431l-272.3 476.96v-476.96h-111.34v700h110.79l277.94 -488v488h111.34v-700z" />
    <glyph glyph-name="Ncommaaccent" unicode="&#x145;" horiz-adv-x="638" 
d="M568.86 0h-116.42l-272.31 476.96v-476.96h-111.34v700h110.8l277.93 -488v488h111.34v-700zM265.86 -214l20.0596 60c-9.21973 7 -15.3096 18 -15.3096 31c0 21 18.1797 40 39.96 40s39.96 -19 39.96 -40c0 -7 -1.70996 -13 -4.7002 -19l-34.2197 -72h-45.75z" />
    <glyph glyph-name="Eng" unicode="&#x14a;" horiz-adv-x="638" 
d="M568.86 700l-0.000976562 -753c0 -91 -61.54 -133 -129.92 -146c-15.9102 -5 -33.3906 -8 -53.3506 -8l-1.2998 86c18.3604 0 32.3408 4 43.4307 9c23.1602 13 31.1104 35 33.6104 56v40l-281.2 492.96v-476.96h-111.34v700h110.79l277.94 -488.01v488.01h111.34z" />
    <glyph glyph-name="Ntilde" unicode="&#xd1;" horiz-adv-x="638" 
d="M186.83 791.03l-38.1807 51.0205c15.1396 16.0098 61.5498 58.8994 108.95 58.8994c48.9697 0 78.1895 -39.6602 119.22 -39.6602c30.8701 0 58.6006 30.4902 68.5508 40.8701l38.1201 -51.46c-12.1201 -11.25 -57.5898 -52.4102 -102.83 -52.4102
c-48.9697 0 -80.5996 38.7998 -123.93 38.7998c-29.7402 0 -57.3506 -31.79 -69.9004 -46.0596zM568.869 0.000976562h-116.42l-272.31 476.96v-476.96h-111.34v700h110.8l277.93 -488v488h111.34v-700z" />
    <glyph glyph-name="O" unicode="O" horiz-adv-x="618" 
d="M59.46 219.71l0.000976562 252.51c0 160.21 103.6 242.29 251.229 242.29c159.08 0 247.71 -98.1104 247.71 -243.17v-251.63c0 -172.36 -135.23 -230.71 -248.591 -230.71c-112.22 0 -250.35 58.0596 -250.35 230.71zM447.061 219.71l-0.000976562 251.63
c0 94.0098 -45.9805 144.439 -136.36 144.439c-88.6396 0 -139.899 -42.6797 -139.899 -143.56v-252.51c0 -99.5098 67.7803 -132.08 139.011 -132.08c71.8496 0 137.25 32.2598 137.25 132.08z" />
    <glyph glyph-name="Oacute" unicode="&#xd3;" horiz-adv-x="618" 
d="M338.07 777.44h-71.7705l56.6904 121.56h99.8203zM59.46 219.71l0.000976562 252.51c0 160.21 103.6 242.29 251.229 242.29c159.08 0 247.71 -98.1104 247.71 -243.17v-251.63c0 -172.36 -135.23 -230.71 -248.591 -230.71c-112.22 0 -250.35 58.0596 -250.35 230.71z
M447.061 219.71l-0.000976562 251.63c0 94.0098 -45.9805 144.439 -136.36 144.439c-88.6396 0 -139.899 -42.6797 -139.899 -143.56v-252.51c0 -99.5098 67.7803 -132.08 139.011 -132.08c71.8496 0 137.25 32.2598 137.25 132.08z" />
    <glyph glyph-name="Ocaron" unicode="&#x1d1;" horiz-adv-x="618" 
d="M360.13 773.78h-98.9189l-123.66 141.86h86.6797l86.1396 -95.9004l84.1504 95.9004h86.8896zM59.4707 219.71l-0.0107422 252.51c0 160.21 103.61 242.29 251.24 242.29c159.08 0 247.7 -98.1104 247.7 -243.17v-251.63c0 -172.36 -135.23 -230.71 -248.58 -230.71
c-112.22 0 -250.35 58.0596 -250.35 230.71zM447.06 219.71l-0.000976562 251.63c0 94.0098 -45.9697 144.439 -136.359 144.439c-88.6299 0 -139.89 -42.6797 -139.89 -143.56v-252.51c0 -99.5098 67.7695 -132.08 139.01 -132.08c71.8398 0 137.24 32.2598 137.24 132.08z
" />
    <glyph glyph-name="Ocircumflex" unicode="&#xd4;" horiz-adv-x="618" 
d="M482.47 772.05h-86.8906l-84.1504 95.9004l-86.1396 -95.9004h-86.6797l123.66 141.86h98.9199zM59.459 219.71l0.000976562 252.51c0 160.21 103.6 242.29 251.229 242.29c159.08 0 247.71 -98.1104 247.71 -243.17v-251.63c0 -172.36 -135.23 -230.71 -248.591 -230.71
c-112.22 0 -250.35 58.0596 -250.35 230.71zM447.06 219.71l-0.000976562 251.63c0 94.0098 -45.9805 144.439 -136.36 144.439c-88.6396 0 -139.899 -42.6797 -139.899 -143.56v-252.51c0 -99.5098 67.7803 -132.08 139.011 -132.08
c71.8496 0 137.25 32.2598 137.25 132.08z" />
    <glyph glyph-name="Odieresis" unicode="&#xd6;" horiz-adv-x="618" 
d="M215.82 882.47c27.8604 0 49.6104 -21.75 49.6104 -51.3096c0 -28.4199 -21.75 -51.3096 -50.1797 -51.3096c-28.9902 0 -51.8799 22.8896 -51.8799 51.3096c0 29.5596 22.8896 51.3096 52.4492 51.3096zM410.63 882.47c27.8604 0 49.6104 -21.75 49.6104 -51.3096
c0 -28.4199 -21.75 -51.3096 -50.1699 -51.3096c-29 0 -51.8799 22.8896 -51.8799 51.3096c0 29.5596 22.8799 51.3096 52.4395 51.3096zM59.46 219.71l0.000976562 252.51c0 160.21 103.6 242.29 251.229 242.29c159.08 0 247.71 -98.1104 247.71 -243.17v-251.63
c0 -172.36 -135.23 -230.71 -248.591 -230.71c-112.22 0 -250.35 58.0596 -250.35 230.71zM447.061 219.71l-0.000976562 251.63c0 94.0098 -45.9805 144.439 -136.36 144.439c-88.6396 0 -139.899 -42.6797 -139.899 -143.56v-252.51
c0 -99.5098 67.7803 -132.08 139.011 -132.08c71.8496 0 137.25 32.2598 137.25 132.08z" />
    <glyph glyph-name="Ograve" unicode="&#xd2;" horiz-adv-x="618" 
d="M370.55 780.28h-71.7705l-84.7402 121.55h99.8203zM59.459 219.71l-0.0107422 252.51c0 160.21 103.61 242.29 251.24 242.29c159.08 0 247.7 -98.1104 247.7 -243.17v-251.63c0 -172.36 -135.23 -230.71 -248.58 -230.71c-112.22 0 -250.35 58.0596 -250.35 230.71z
M447.048 219.71l-0.000976562 251.63c0 94.0098 -45.9697 144.439 -136.359 144.439c-88.6299 0 -139.89 -42.6797 -139.89 -143.56v-252.51c0 -99.5098 67.7695 -132.08 139.01 -132.08c71.8398 0 137.24 32.2598 137.24 132.08z" />
    <glyph glyph-name="Ohungarumlaut" unicode="&#x150;" horiz-adv-x="618" 
d="M411.56 779.72h-67.3896l51.5596 122.69h92.79zM263.86 779.72h-67.3896l51.5596 122.69h92.79zM59.4609 219.71l0.000976562 252.51c0 160.21 103.6 242.29 251.229 242.29c159.08 0 247.71 -98.1104 247.71 -243.17v-251.63
c0 -172.36 -135.23 -230.71 -248.591 -230.71c-112.22 0 -250.35 58.0596 -250.35 230.71zM447.062 219.71l-0.000976562 251.63c0 94.0098 -45.9805 144.439 -136.36 144.439c-88.6396 0 -139.899 -42.6797 -139.899 -143.56v-252.51
c0 -99.5098 67.7803 -132.08 139.011 -132.08c71.8496 0 137.25 32.2598 137.25 132.08z" />
    <glyph glyph-name="Omacron" unicode="&#x14c;" horiz-adv-x="618" 
d="M433.85 805.38h-249.83v57.0195h249.83v-57.0195zM59.46 219.71l0.000976562 252.51c0 160.21 103.6 242.29 251.229 242.29c159.08 0 247.71 -98.1104 247.71 -243.17v-251.63c0 -172.36 -135.23 -230.71 -248.591 -230.71c-112.22 0 -250.35 58.0596 -250.35 230.71z
M447.061 219.71l-0.000976562 251.63c0 94.0098 -45.9805 144.439 -136.36 144.439c-88.6396 0 -139.899 -42.6797 -139.899 -143.56v-252.51c0 -99.5098 67.7803 -132.08 139.011 -132.08c71.8496 0 137.25 32.2598 137.25 132.08z" />
    <glyph glyph-name="Oslash" unicode="&#xd8;" horiz-adv-x="618" 
d="M500.92 750l-28.9189 -83.2402c56.4004 -42.54 86.3906 -111.03 86.3906 -195.42v-251.63c0 -172.36 -135.23 -230.71 -248.58 -230.71c-22.9004 0 -46.8809 2.41992 -70.541 7.74023l-16.2305 -46.7402h-106.1l30.0195 86.4199
c-50.8604 35.8496 -87.5 94.3691 -87.5 183.279v252.52c0 160.21 103.61 242.28 251.24 242.28c24.8604 0 48.0107 -2.38965 69.3604 -6.98926l14.7598 42.4902h106.1zM170.791 472.22l-0.00195312 -252.509c0 -28.7305 5.66016 -51.8906 15.4102 -70.291l160.9 463.22
c-11.21 2.08008 -23.3496 3.13965 -36.4092 3.13965c-88.6396 0 -139.899 -42.6797 -139.899 -143.56zM447.049 219.711l-0.000976562 251.631c0 31.4199 -5.12988 57.9697 -15.3496 79.3994l-159.68 -459.73c12.2305 -2.32031 24.9502 -3.37012 37.79 -3.37012
c71.8398 0 137.24 32.25 137.24 132.07z" />
    <glyph glyph-name="Otilde" unicode="&#xd5;" horiz-adv-x="618" 
d="M179.72 791.03l-38.1904 51.0205c15.1396 16.0098 61.5498 58.8994 108.95 58.8994c48.9697 0 78.2002 -39.6602 119.22 -39.6602c30.8701 0 58.6104 30.4902 68.5605 40.8701l38.1104 -51.46c-12.1104 -11.25 -57.5801 -52.4102 -102.82 -52.4102
c-48.9697 0 -80.6094 38.7998 -123.93 38.7998c-29.75 0 -57.3604 -31.79 -69.9004 -46.0596zM59.4697 219.711l0.000976562 252.51c0 160.21 103.6 242.29 251.229 242.29c159.08 0 247.71 -98.1104 247.71 -243.17v-251.63c0 -172.36 -135.23 -230.71 -248.591 -230.71
c-112.22 0 -250.35 58.0596 -250.35 230.71zM447.07 219.711l-0.000976562 251.63c0 94.0098 -45.9805 144.439 -136.36 144.439c-88.6396 0 -139.899 -42.6797 -139.899 -143.56v-252.51c0 -99.5098 67.7803 -132.08 139.011 -132.08
c71.8496 0 137.25 32.2598 137.25 132.08z" />
    <glyph glyph-name="OE" unicode="&#x152;" horiz-adv-x="941" 
d="M44.3203 220.48v252.501c0 160.21 103.6 242.29 251.229 242.29c71.5703 0 125.32 -24.4004 158.83 -65.9707v50.6904h447.93v-98.7305h-336.59v-202.34h308.39v-98.7402h-308.39v-201.46h338.43v-98.7305h-449.77v53.0898
c-38.9297 -46.1396 -101.84 -63.0898 -159.71 -63.0898c-112.22 0 -250.35 57.8398 -250.35 230.49zM431.92 215.712l-0.000976562 256.391c0 94.0098 -45.9805 144.43 -136.36 144.43c-88.6396 0 -139.899 -42.6699 -139.899 -143.55v-252.51
c0 -99.5098 67.7803 -132.08 139.011 -132.08c70.5498 0 137.25 34.8496 137.25 127.319z" />
    <glyph glyph-name="P" unicode="P" horiz-adv-x="598" 
d="M73.79 700h260.01c141.26 0 218.38 -99.9102 218.38 -209.41c0 -137.77 -80.5996 -219.75 -220.149 -219.68h-146.9v-270.91h-111.34v700zM185.13 601.28l-0.00195312 -231.35h145.62c74.2305 0 114.591 41.0801 114.591 119.64
c0 61.2598 -39.6396 111.71 -113.149 111.71h-147.06z" />
    <glyph glyph-name="Thorn" unicode="&#xde;" horiz-adv-x="598" 
d="M185.13 568.65h148.66c141.27 0 218.39 -99.9102 218.39 -209.42c0 -137.76 -80.5996 -219.74 -220.149 -219.66h-146.9v-139.57h-111.34v700h111.34v-131.35zM185.13 469.931l-0.0117188 -231.359h145.61c74.2402 0 114.601 41.0898 114.601 119.64
c0 61.2695 -39.6396 111.72 -113.149 111.72h-147.05z" />
    <glyph glyph-name="Q" unicode="Q" horiz-adv-x="618" 
d="M558.41 471.34l-0.00976562 -251.631c0 -67.5898 -20.7998 -117.649 -52.9199 -153.539l52.9199 -60.6299l-57.5 -47.54l-54.6699 62.54c-42.2695 -22.21 -91.0898 -31.54 -136.41 -31.54c-112.22 0 -250.35 58.0596 -250.35 230.699v252.52
c0 160.21 103.6 242.28 251.229 242.28c159.08 0 247.71 -98.0996 247.71 -243.159zM354.11 239.579l78.3086 -89.6992c9.2998 18.3203 14.6396 41.3203 14.6396 69.8398v251.63c0 94.0098 -45.9697 144.439 -136.359 144.439c-88.6299 0 -139.89 -42.6797 -139.89 -143.56
v-252.51c0 -99.5098 67.7695 -132.08 139.01 -132.08c23.8604 0 47.0205 3.55957 67.3008 11.9697l-80.5098 92.0996z" />
    <glyph glyph-name="R" unicode="R" horiz-adv-x="611" 
d="M73.79 700l260.011 -0.000976562c141.27 0 218.39 -98.2695 218.39 -206.069c0 -107.41 -50.5703 -176.79 -142.051 -198.71l-21.5596 -1.29004l182.41 -293.93h-129.44l-165.55 277.97h-90.8604v-277.97h-111.35v700zM185.141 601.269l-0.0117188 -224.289h145.61
c74.2402 0 114.601 40.0498 114.601 116.149c0 59.3398 -39.6396 108.21 -113.149 108.14h-147.05z" />
    <glyph glyph-name="Racute" unicode="&#x154;" horiz-adv-x="611" 
d="M328.32 777.44h-71.7705l56.6904 121.56h99.8203zM73.79 700l260.011 -0.000976562c141.27 0 218.39 -98.2695 218.39 -206.069c0 -107.41 -50.5703 -176.79 -142.051 -198.71l-21.5596 -1.29004l182.41 -293.93h-129.44l-165.55 277.97h-90.8604v-277.97h-111.35v700z
M185.141 601.269l-0.0117188 -224.289h145.61c74.2402 0 114.601 40.0498 114.601 116.149c0 59.3398 -39.6396 108.21 -113.149 108.14h-147.05z" />
    <glyph glyph-name="Rcaron" unicode="&#x158;" horiz-adv-x="611" 
d="M356.79 773.78h-98.9297l-123.66 141.86h86.6797l86.1396 -95.9004l84.1602 95.9004h86.8799zM73.79 700l260.009 -0.000976562c141.26 0 218.38 -98.2695 218.38 -206.069c0 -107.41 -50.5596 -176.79 -142.05 -198.71l-21.5596 -1.29004l182.41 -293.93h-129.43
l-165.55 277.97h-90.8701v-277.97h-111.34v700zM185.129 601.269l-0.0117188 -224.289h145.62c74.2305 0 114.601 40.0498 114.601 116.149c0 59.3398 -39.6396 108.21 -113.159 108.14h-147.05z" />
    <glyph glyph-name="Rcommaaccent" unicode="&#x156;" horiz-adv-x="611" 
d="M73.79 700l260.01 -0.0117188c141.27 0 218.39 -98.2598 218.39 -206.069c0 -106.29 -49.6396 -175.09 -139.55 -197.35l-24.0596 -2.63965l182.41 -293.93h-129.44l-165.55 277.97h-90.8604v-277.97h-111.35v700zM185.14 601.269l-0.0117188 -224.29h145.61
c74.2402 0 114.601 40.04 114.601 116.15c0 59.3398 -39.6396 108.21 -113.149 108.14h-147.05zM253.147 -214.002l20.0703 60c-9.21973 7 -15.3096 18 -15.3096 31c0 21 18.1797 40 39.96 40s39.9502 -19 39.9502 -40c0 -7 -1.7002 -13 -4.69043 -19l-34.2305 -72h-45.75z
" />
    <glyph glyph-name="S" unicode="S" horiz-adv-x="573" 
d="M36.2695 199.14l105.812 0.00878906c1.2998 -60.4199 41.1201 -110.07 145.95 -110.07c94.9502 0 139.67 42.0996 139.67 105.64c0 67.6104 -65.7998 84.7705 -155.45 112.311c-128.69 39.0098 -222.82 81.0498 -222.82 204.95c0 125.83 89.5 199.17 232.41 199.17
c141.44 0 235.36 -72.3799 236.23 -202.689h-106.07c-0.860352 73.7305 -56.3105 104.631 -130.16 104.631c-74.9102 0 -124.391 -36.46 -124.391 -92.4404c0 -54.46 44.5195 -79.2197 152.38 -107.85c153.21 -39.1396 225.54 -101.97 225.54 -217.59
c0 -108.89 -66.79 -207.21 -242.92 -207.21c-159.19 0 -254.881 88.29 -256.181 211.14z" />
    <glyph glyph-name="Sacute" unicode="&#x15a;" horiz-adv-x="573" 
d="M308.45 777.44h-71.7705l56.7002 121.56h99.8203zM36.2695 199.141l105.812 0.00878906c1.2998 -60.4199 41.1201 -110.07 145.95 -110.07c94.9502 0 139.67 42.0996 139.67 105.64c0 67.6104 -65.7998 84.7705 -155.45 112.311
c-128.69 39.0098 -222.82 81.0498 -222.82 204.95c0 125.83 89.5 199.17 232.41 199.17c141.44 0 235.36 -72.3799 236.23 -202.689h-106.07c-0.860352 73.7305 -56.3105 104.631 -130.16 104.631c-74.9102 0 -124.391 -36.46 -124.391 -92.4404
c0 -54.46 44.5195 -79.2197 152.38 -107.85c153.21 -39.1396 225.54 -101.97 225.54 -217.59c0 -108.89 -66.79 -207.21 -242.92 -207.21c-159.19 0 -254.881 88.29 -256.181 211.14z" />
    <glyph glyph-name="Scaron" unicode="&#x160;" horiz-adv-x="573" 
d="M336.93 773.78h-98.9199l-123.67 141.86h86.6797l86.1396 -95.9004l84.1602 95.9004h86.8799zM36.2793 199.141l105.809 0.00878906c1.2998 -60.4199 41.1094 -110.07 145.949 -110.07c94.9404 0 139.671 42.0996 139.671 105.64
c0 67.6104 -65.7998 84.7705 -155.45 112.311c-128.7 39.0098 -222.82 81.0498 -222.82 204.95c0 125.83 89.5 199.17 232.41 199.17c141.44 0 235.36 -72.3799 236.221 -202.689h-106.06c-0.870117 73.7305 -56.3203 104.631 -130.16 104.631
c-74.9102 0 -124.4 -36.46 -124.4 -92.4404c0 -54.46 44.5303 -79.2197 152.391 -107.85c153.2 -39.1396 225.53 -101.97 225.53 -217.59c0 -108.89 -66.79 -207.21 -242.92 -207.21c-159.18 0 -254.87 88.29 -256.17 211.14z" />
    <glyph glyph-name="Scedilla" unicode="&#x15e;" horiz-adv-x="573" 
d="M36.2695 199.14l105.807 -0.000976562c1.2998 -60.4199 41.1094 -110.06 145.949 -110.06c94.9404 0 139.671 42.0996 139.671 105.64c0 67.6104 -65.7998 84.7607 -155.45 112.311c-128.7 39.0098 -222.82 81.04 -222.82 204.94c0 125.84 89.5 199.18 232.41 199.18
c141.44 0 235.36 -72.3896 236.221 -202.699h-106.06c-0.870117 73.7402 -56.3203 104.63 -130.16 104.63c-74.9102 0 -124.4 -36.46 -124.4 -92.4404c0 -54.4502 44.5303 -79.2197 152.391 -107.85c153.2 -39.1299 225.53 -101.97 225.53 -217.59
c0 -106.71 -64.0996 -202.21 -232.029 -207.21l-22.2695 -30c10.7803 2.59961 22.6299 5.19922 34.46 5.19922c49.2803 0 92.3906 -26.0596 92.3906 -85.1895c0 -75 -66.7695 -99 -131.939 -99c-42.75 0 -84.9199 17 -114 28l19.1201 45
c29.1299 -14 60.0703 -21 86.2705 -23c35.3096 -1 67.6494 14 67.6494 46c0 27 -18.6504 41 -48.1406 41c-16.1699 0 -35.2295 -4 -61.6895 -15l-20.9502 20l47.7002 70c-135.66 12.5596 -214.41 97.25 -215.66 208.14z" />
    <glyph glyph-name="Scommaaccent" unicode="&#x218;" horiz-adv-x="579" 
d="M36.2695 199.14l105.811 0.00976562c1.2998 -60.4199 41.1094 -110.07 145.949 -110.07c94.9404 0 139.671 42.0996 139.671 105.64c0 67.6104 -65.7998 84.7705 -155.45 112.311c-128.7 39.0098 -222.82 81.0498 -222.82 204.95c0 125.83 89.5 199.17 232.41 199.17
c141.44 0 235.36 -72.3799 236.221 -202.689h-106.06c-0.870117 73.7305 -56.3203 104.631 -130.16 104.631c-74.9102 0 -124.4 -36.46 -124.4 -92.4404c0 -54.5703 44.7803 -79.3008 152.78 -107.98c153.09 -39.0996 225.149 -101.979 225.149 -217.46
c0 -108.89 -66.79 -207.21 -242.92 -207.21c-159.19 0 -254.881 88.29 -256.181 211.14zM246.561 -213.99l20.0596 60c-9.21973 7 -15.3096 18 -15.3096 31c0 21 18.1797 40 39.96 40s39.96 -19 39.96 -40c0 -7 -1.70996 -13 -4.7002 -19l-34.2197 -72h-45.75z" />
    <glyph glyph-name="T" unicode="T" horiz-adv-x="530" 
d="M495.53 601.27h-180.109v-601.27h-111.34v601.27h-173.94v98.7305h465.39v-98.7305z" />
    <glyph glyph-name="Tbar" unicode="&#x166;" horiz-adv-x="530" 
d="M495.53 601.27h-180.119v-212.76h96.29v-57.0195h-96.29v-331.49h-111.33v331.49h-90.1104v57.0195h90.1104v212.76h-173.94v98.7305h465.39v-98.7305z" />
    <glyph glyph-name="Tcaron" unicode="&#x164;" horiz-adv-x="530" 
d="M316.19 773.78h-98.9189l-123.66 141.86h86.6797l86.1396 -95.9004l84.1504 95.9004h86.8896zM495.531 601.271h-180.12v-601.27h-111.34v601.27h-173.93v98.7305h465.39v-98.7305z" />
    <glyph glyph-name="Tcedilla" unicode="&#x162;" horiz-adv-x="530" 
d="M495.53 601.27l-180.118 -0.0107422v-601.27l-32.6602 -2l-25.1602 -36c10.8799 3.32031 22.71 5.26074 34.5098 5.26074c49.0303 0 92.3506 -25.2598 92.3506 -85.25c0 -75 -66.7803 -98 -131.95 -98c-42.7402 0 -84.9102 16 -113.99 28l19.1201 44
c29.1299 -14 60.0703 -20 86.2705 -22c35.2998 -1 67.6494 14 67.6494 46c0 26 -18.6504 41 -48.1406 41c-16.1699 0 -35.2295 -4 -61.6895 -16l-20.9502 20l50.0195 73l-26.71 2v601.27h-173.94v98.7305h465.39v-98.7305z" />
    <glyph glyph-name="uni021A" unicode="&#x21a;" horiz-adv-x="526" 
d="M495.53 601.27h-180.109v-601.27h-111.34v601.27h-173.94v98.7305h465.39v-98.7305zM214.521 -214l20.0713 60c-9.23047 7 -15.3105 18 -15.3105 31c0 21 18.1699 40 39.9502 40s39.96 -19 39.96 -40c0 -7 -1.7002 -13 -4.69043 -19l-34.2305 -72h-45.75z" />
    <glyph glyph-name="U" unicode="U" horiz-adv-x="626" 
d="M564.08 700.3l0.00878906 -479.8c0 -172.4 -135.28 -230.5 -248.59 -230.5c-112.18 0 -250.359 57.8096 -250.359 230.51v479.79h111.34v-479.79c0 -99.5098 67.7803 -132.08 139.011 -132.08c71.8496 0 137.25 32.2598 137.25 132.08v479.79h111.34z" />
    <glyph glyph-name="Uacute" unicode="&#xda;" horiz-adv-x="626" 
d="M335.96 777.44h-71.7705l56.7002 121.56h99.8203zM564.079 700.301v-479.8c0 -172.4 -135.27 -230.5 -248.59 -230.5c-112.18 0 -250.35 57.8096 -250.35 230.51v479.79h111.34v-479.79c0 -99.5098 67.7695 -132.08 139.01 -132.08
c71.8398 0 137.25 32.2598 137.25 132.08v479.79h111.34z" />
    <glyph glyph-name="Ucaron" unicode="&#x1d3;" horiz-adv-x="626" 
d="M364.04 773.78h-98.9189l-123.66 141.86h86.6797l86.1396 -95.9004l84.1504 95.9004h86.8896zM564.091 700.3v-479.8c0 -172.4 -135.27 -230.5 -248.59 -230.5c-112.18 0 -250.35 57.8096 -250.35 230.51v479.79h111.34v-479.79
c0 -99.5098 67.7695 -132.08 139.01 -132.08c71.8398 0 137.25 32.2598 137.25 132.08v479.79h111.34z" />
    <glyph glyph-name="Ucircumflex" unicode="&#xdb;" horiz-adv-x="626" 
d="M486.38 772.05h-86.8906l-84.1602 95.9004l-86.1396 -95.9004h-86.6797l123.67 141.86h98.9199zM564.079 700.3v-479.8c0 -172.4 -135.27 -230.5 -248.59 -230.5c-112.18 0 -250.35 57.8096 -250.35 230.51v479.79h111.34v-479.79
c0 -99.5098 67.7695 -132.08 139.01 -132.08c71.8398 0 137.25 32.2598 137.25 132.08v479.79h111.34z" />
    <glyph glyph-name="Udieresis" unicode="&#xdc;" horiz-adv-x="626" 
d="M219.73 882.47c27.8604 0 49.6104 -21.75 49.6104 -51.3096c0 -28.4199 -21.75 -51.3096 -50.1797 -51.3096c-28.9902 0 -51.8799 22.8896 -51.8799 51.3096c0 29.5596 22.8896 51.3096 52.4492 51.3096zM414.54 882.47c27.8604 0 49.6104 -21.75 49.6104 -51.3096
c0 -28.4199 -21.75 -51.3096 -50.1699 -51.3096c-29 0 -51.8799 22.8896 -51.8799 51.3096c0 29.5596 22.8799 51.3096 52.4395 51.3096zM564.08 700.29l0.00878906 -479.792c0 -172.41 -135.28 -230.51 -248.59 -230.51c-112.18 0 -250.359 57.8203 -250.359 230.511
v479.79h111.34v-479.79c0 -99.5098 67.7803 -132.069 139.011 -132.069c71.8496 0 137.25 32.25 137.25 132.07v479.79h111.34z" />
    <glyph glyph-name="Udieresisacute" unicode="&#x1d7;" horiz-adv-x="641" 
d="M364.46 902.96h-71.7705l56.7002 121.56h99.8203zM230.079 872.9c27.8604 0 49.6104 -21.75 49.6104 -51.3096c0 -28.4297 -21.75 -51.3096 -50.1797 -51.3096c-28.9902 0 -51.8799 22.8799 -51.8799 51.3096c0 29.5596 22.8896 51.3096 52.4492 51.3096zM424.899 872.9
c27.8604 0 49.6104 -21.75 49.6104 -51.3096c0 -28.4297 -21.75 -51.3096 -50.1797 -51.3096c-28.9902 0 -51.8799 22.8799 -51.8799 51.3096c0 29.5596 22.8896 51.3096 52.4492 51.3096zM564.079 700.29l0.00878906 -479.792c0 -172.41 -135.28 -230.51 -248.59 -230.51
c-112.18 0 -250.359 57.8203 -250.359 230.511v479.79h111.34v-479.79c0 -99.5098 67.7803 -132.069 139.011 -132.069c71.8496 0 137.25 32.25 137.25 132.07v479.79h111.34z" />
    <glyph glyph-name="Udieresiscaron" unicode="&#x1d9;" horiz-adv-x="626" 
d="M364.04 908.61h-98.9189l-123.66 141.87h86.6797l86.1396 -95.9102l84.1504 95.9102h86.8896zM219.731 875.98c27.8604 0 49.6104 -21.75 49.6104 -51.3096c0 -28.4199 -21.75 -51.3096 -50.1699 -51.3096c-29 0 -51.8799 22.8896 -51.8799 51.3096
c0 29.5596 22.8799 51.3096 52.4395 51.3096zM414.552 875.98c27.8604 0 49.6104 -21.75 49.6104 -51.3096c0 -28.4199 -21.75 -51.3096 -50.1797 -51.3096c-28.9902 0 -51.8799 22.8896 -51.8799 51.3096c0 29.5596 22.8896 51.3096 52.4492 51.3096zM564.092 700.29
v-479.792c0 -172.41 -135.27 -230.51 -248.59 -230.51c-112.18 0 -250.35 57.8203 -250.35 230.511v479.79h111.34v-479.79c0 -99.5098 67.7695 -132.069 139.01 -132.069c71.8398 0 137.25 32.25 137.25 132.07v479.79h111.34z" />
    <glyph glyph-name="Udieresisgrave" unicode="&#x1db;" horiz-adv-x="641" 
d="M374.37 903.6h-71.7695l-84.6504 121.56h99.7197zM230.081 872.899c27.8604 0 49.6104 -21.75 49.6104 -51.3096c0 -28.4297 -21.75 -51.3096 -50.1797 -51.3096c-28.9902 0 -51.8799 22.8799 -51.8799 51.3096c0 29.5596 22.8896 51.3096 52.4492 51.3096z
M424.901 872.899c27.8604 0 49.6104 -21.75 49.6104 -51.3096c0 -28.4297 -21.75 -51.3096 -50.1797 -51.3096c-28.9902 0 -51.8799 22.8799 -51.8799 51.3096c0 29.5596 22.8896 51.3096 52.4492 51.3096zM564.081 700.289l0.00878906 -479.792
c0 -172.41 -135.28 -230.51 -248.59 -230.51c-112.18 0 -250.359 57.8203 -250.359 230.511v479.79h111.34v-479.79c0 -99.5098 67.7803 -132.069 139.011 -132.069c71.8496 0 137.25 32.25 137.25 132.07v479.79h111.34z" />
    <glyph glyph-name="Udieresismacron" unicode="&#x1d5;" horiz-adv-x="641" 
d="M450.61 915.85h-249.83v57.0098h249.83v-57.0098zM230.08 872.899c27.8604 0 49.6104 -21.75 49.6104 -51.3096c0 -28.4199 -21.75 -51.3096 -50.1797 -51.3096c-28.9902 0 -51.8799 22.8896 -51.8799 51.3096c0 29.5596 22.8896 51.3096 52.4492 51.3096zM424.9 872.899
c27.8604 0 49.6104 -21.75 49.6104 -51.3096c0 -28.4199 -21.75 -51.3096 -50.1797 -51.3096c-28.9902 0 -51.8799 22.8896 -51.8799 51.3096c0 29.5596 22.8896 51.3096 52.4492 51.3096zM564.08 700.3l0.00878906 -479.8c0 -172.4 -135.28 -230.5 -248.59 -230.5
c-112.18 0 -250.359 57.8096 -250.359 230.51v479.79h111.34v-479.79c0 -99.5098 67.7803 -132.08 139.011 -132.08c71.8496 0 137.25 32.2598 137.25 132.08v479.79h111.34z" />
    <glyph glyph-name="Ugrave" unicode="&#xd9;" horiz-adv-x="626" 
d="M369.69 780.28h-71.7705l-84.75 121.55h99.8203zM564.08 700.29v-479.792c0 -172.41 -135.27 -230.51 -248.59 -230.51c-112.18 0 -250.35 57.8203 -250.35 230.511v479.79h111.34v-479.79c0 -99.5098 67.7695 -132.069 139.01 -132.069
c71.8398 0 137.25 32.25 137.25 132.07v479.79h111.34z" />
    <glyph glyph-name="Uhungarumlaut" unicode="&#x170;" horiz-adv-x="641" 
d="M273.37 779.72h-67.3906l51.5703 122.69h92.7803zM421.069 779.72h-67.3896l51.5596 122.69h92.79zM564.069 700.29l0.00878906 -479.792c0 -172.41 -135.28 -230.51 -248.59 -230.51c-112.18 0 -250.359 57.8203 -250.359 230.511v479.79h111.34v-479.79
c0 -99.5098 67.7803 -132.069 139.011 -132.069c71.8496 0 137.25 32.25 137.25 132.07v479.79h111.34z" />
    <glyph glyph-name="Umacron" unicode="&#x16a;" horiz-adv-x="641" 
d="M442.93 805.38h-249.82v57.0195h249.82v-57.0195zM564.079 700.3v-479.8c0 -172.4 -135.27 -230.5 -248.59 -230.5c-112.18 0 -250.35 57.8096 -250.35 230.51v479.79h111.34v-479.79c0 -99.5098 67.7695 -132.08 139.01 -132.08c71.8398 0 137.25 32.2598 137.25 132.08
v479.79h111.34z" />
    <glyph glyph-name="Uogonek" unicode="&#x172;" horiz-adv-x="641" 
d="M572.73 700.3l0.00878906 -479.859c0 -126.3 -74.9404 -187.53 -153.78 -211.44c-61.9404 -53 -72.8701 -86 -74.8105 -111c-1.37012 -33.04 19.5801 -47.04 45.4805 -47.04c27.4502 0 47.1201 17.7305 65.6904 43.04l42.5195 -17c-29.1699 -50 -72.8496 -80 -130.35 -80
c-38.3096 0 -96.2393 19 -96.2393 88c0 23 9.91992 59 61.4795 105c-33.4502 0 -52.6104 2 -75.1602 7c-93.5098 19.46 -183.779 84.2197 -183.779 223.51v479.79h111.34v-479.79c0 -99.5098 67.7803 -132.08 139.011 -132.08c71.8496 0 137.25 32.2598 137.25 132.08
v479.79h111.34z" />
    <glyph glyph-name="Uring" unicode="&#x16e;" horiz-adv-x="626" 
d="M312.83 956.21c63.5996 0 118.85 -53.9092 118.85 -118.56c0 -63.3604 -54.54 -118.57 -118.85 -118.57c-64.3496 0 -118.859 55.8398 -118.859 118.57c0 64.0195 55.2197 118.56 118.859 118.56zM312.83 902.871c-36.3496 0 -65.3691 -28.5703 -65.3691 -65.2305
c0 -36.0195 29.1699 -65.6494 65.3701 -65.6494c35.7695 0 64.9395 29.6299 64.9395 65.6494c0 36.6602 -29.0303 65.2305 -64.9404 65.2305zM564.09 700.291v-479.792c0 -172.41 -135.27 -230.51 -248.59 -230.51c-112.18 0 -250.35 57.8203 -250.35 230.511v479.79h111.34
v-479.79c0 -99.5098 67.7695 -132.069 139.01 -132.069c71.8398 0 137.25 32.25 137.25 132.07v479.79h111.34z" />
    <glyph glyph-name="V" unicode="V" horiz-adv-x="607" 
d="M377.92 0h-160.699l-202.9 700h115l167.82 -582.94l167.81 582.94h115.06z" />
    <glyph glyph-name="W" unicode="W" horiz-adv-x="847" 
d="M664.91 0h-143.282l-97.54 446.8l-97.54 -446.8h-143.27l-160.31 700h115.53l117.03 -565.07l114.9 565.07h107.33l114.9 -565.5l115.73 565.5h115.96z" />
    <glyph glyph-name="Wacute" unicode="&#x1e82;" horiz-adv-x="847" 
d="M462.33 776.44h-71.7705l56.6904 121.55h99.8203zM664.909 0h-143.282l-97.54 446.8l-97.54 -446.8h-143.27l-160.31 700h115.53l117.03 -565.07l114.9 565.07h107.33l114.9 -565.5l115.73 565.5h115.96z" />
    <glyph glyph-name="Wcircumflex" unicode="&#x174;" horiz-adv-x="847" 
d="M597.28 772.05h-86.8906l-84.1602 95.9004l-86.1396 -95.9004h-86.6797l123.67 141.86h98.9199zM664.909 -0h-143.282l-97.54 446.8l-97.54 -446.8h-143.27l-160.31 700h115.53l117.03 -565.07l114.9 565.07h107.33l114.9 -565.5l115.73 565.5h115.96z" />
    <glyph glyph-name="Wdieresis" unicode="&#x1e84;" horiz-adv-x="847" 
d="M330.63 882.47c27.8604 0 49.6104 -21.75 49.6104 -51.3096c0 -28.4199 -21.75 -51.3096 -50.1797 -51.3096c-28.9902 0 -51.8799 22.8896 -51.8799 51.3096c0 29.5596 22.8896 51.3096 52.4492 51.3096zM525.45 882.47c27.8604 0 49.6104 -21.75 49.6104 -51.3096
c0 -28.4199 -21.75 -51.3096 -50.1797 -51.3096c-28.9902 0 -51.8799 22.8896 -51.8799 51.3096c0 29.5596 22.8896 51.3096 52.4492 51.3096zM664.91 -0h-143.27l-97.54 446.8l-97.54 -446.8h-143.28l-160.3 700h115.53l117.02 -565.07l114.91 565.07h107.32l114.91 -565.5
l115.72 565.5h115.96z" />
    <glyph glyph-name="Wgrave" unicode="&#x1e80;" horiz-adv-x="847" 
d="M464.81 779.71h-71.7705l-84.6504 121.55h99.7305zM664.909 -0h-143.282l-97.54 446.8l-97.54 -446.8h-143.27l-160.31 700h115.53l117.03 -565.07l114.9 565.07h107.33l114.9 -565.5l115.73 565.5h115.96z" />
    <glyph glyph-name="X" unicode="X" horiz-adv-x="641" 
d="M397.33 362.33l220.47 -362.33h-130.05l-167.54 275.64l-166.01 -275.64h-131.22l221.49 362.37l-204.66 337.63h128.35l151.87 -266.37l151.87 266.37h130.12z" />
    <glyph glyph-name="Y" unicode="Y" horiz-adv-x="608" 
d="M359.07 313.57l-0.000976562 -313.57h-111.34v311.9l-224.75 388.1h128.11l151.87 -282.95l151.87 282.95h130.3z" />
    <glyph glyph-name="Yacute" unicode="&#xdd;" horiz-adv-x="608" 
d="M326.56 777.44h-71.7607l56.6904 121.56h99.8203zM359.068 313.57l-0.000976562 -313.57h-111.34v311.9l-224.75 388.1h128.11l151.87 -282.95l151.87 282.95h130.3z" />
    <glyph glyph-name="Ycircumflex" unicode="&#x176;" horiz-adv-x="608" 
d="M477.37 772.05h-86.8896l-84.1504 95.9004l-86.1396 -95.9004h-86.6797l123.66 141.86h98.9297zM359.07 313.569l-0.000976562 -313.57h-111.34v311.9l-224.76 388.1h128.11l151.87 -282.95l151.87 282.95h130.3z" />
    <glyph glyph-name="Ydieresis" unicode="&#x178;" horiz-adv-x="608" 
d="M210.72 882.47c27.8604 0 49.6104 -21.75 49.6104 -51.3096c0 -28.4199 -21.75 -51.3096 -50.1699 -51.3096c-29 0 -51.8799 22.8896 -51.8799 51.3096c0 29.5596 22.8799 51.3096 52.4395 51.3096zM405.54 882.47c27.8604 0 49.6201 -21.75 49.6201 -51.3096
c0 -28.4199 -21.7598 -51.3096 -50.1797 -51.3096c-29 0 -51.8799 22.8896 -51.8799 51.3096c0 29.5596 22.8799 51.3096 52.4395 51.3096zM359.07 313.569l-0.000976562 -313.57h-111.34v311.9l-224.75 388.1h128.11l151.87 -282.95l151.87 282.95h130.3z" />
    <glyph glyph-name="Ygrave" unicode="&#x1ef2;" horiz-adv-x="608" 
d="M363.71 780.28h-71.7705l-84.75 121.55h99.8203zM359.069 313.57l-0.000976562 -313.57h-111.34v311.9l-224.75 388.1h128.11l151.87 -282.95l151.87 282.95h130.3z" />
    <glyph glyph-name="Z" unicode="Z" horiz-adv-x="580" 
d="M537.18 631.22l-348.02 -532.49h353.32v-98.7305h-504.5v68.7803l348.01 532.49h-326.28v98.7305h477.47v-68.7803z" />
    <glyph glyph-name="Zacute" unicode="&#x179;" horiz-adv-x="580" 
d="M329.75 777.44h-71.7705l56.7002 121.56h99.8203zM537.17 631.221l-348.009 -532.49h353.31v-98.7305h-504.5v68.7803l348.02 532.49h-326.29v98.7305h477.47v-68.7803z" />
    <glyph glyph-name="Zcaron" unicode="&#x17d;" horiz-adv-x="580" 
d="M344.7 773.78h-98.9199l-123.67 141.86h86.6797l86.1396 -95.9004l84.1602 95.9004h86.8799zM537.181 631.221l-348.02 -532.49h353.32v-98.7305h-504.5v68.7803l348.01 532.49h-326.28v98.7305h477.47v-68.7803z" />
    <glyph glyph-name="Zdotaccent" unicode="&#x17b;" horiz-adv-x="580" 
d="M304.79 885.85c27.8604 0 49.6104 -21.75 49.6104 -51.3096c0 -28.4297 -21.75 -51.3096 -50.1797 -51.3096c-28.9902 0 -51.8799 22.8799 -51.8799 51.3096c0 29.5596 22.8896 51.3096 52.4492 51.3096zM537.17 631.22l-348.009 -532.49h353.31v-98.7305h-504.5v68.7803
l348.02 532.49h-326.29v98.7305h477.47v-68.7803z" />
    <glyph glyph-name="a" unicode="a" horiz-adv-x="490" 
d="M114.91 392.35l-53.75 51.8701c34.4805 35.04 87.0908 65.2002 167.61 65.2002c171.95 0 212.42 -97.5498 212.42 -208.81v-301.6h-82.3896l-2.59961 25.7002c-35.9004 -22.5098 -83.2607 -33.71 -129.971 -33.71c-99.9297 1 -191.1 46.5098 -191.1 172.68
c0 132.27 103.6 164.369 202.159 164.369c31.2402 0 65.4102 -3.61035 97.0703 -8.25c-0.889648 56.3203 -21.1201 103.12 -115.49 103.12c-38.7598 0 -74.2197 -11.2305 -103.96 -30.5703zM334.351 95.4297l-0.00976562 151.541
c-26.5996 3.46973 -54.3594 6.35938 -80.3896 6.35938c-65.3496 0 -120.3 -17.9297 -120.3 -89.6494c0 -68.25 49.7402 -89.6504 111.05 -89.6504c31.8096 0 64.7793 8.09961 89.6494 21.3994z" />
    <glyph glyph-name="a.ss01" horiz-adv-x="499" 
d="M445.68 0h-82.3896l-2.59961 26c-35.9004 -22.5098 -83.2607 -34 -129.971 -34c-94.9297 0 -191.26 47.3203 -191.26 174.12v165.99c0 130.39 88.8896 176.6 181.92 176.6c47.8701 0 99.1006 -13.0996 139.311 -32.8496l2.59961 25.1396h82.3896v-501zM338.84 94.3896
v314.08c-24.5 9.83008 -60.5303 17.7402 -96.2305 17.7402c-63.3203 0 -96.3105 -28.1104 -96.3105 -101.4v-159.57c0.570312 -58.4697 35.9805 -89.9199 100.721 -89.9199c32.9697 0 65.25 6.86035 91.8203 19.0703z" />
    <glyph glyph-name="aacute" unicode="&#xe1;" horiz-adv-x="490" 
d="M276.9 578.44h-71.7705l56.6904 121.56h99.8203zM114.91 392.351l-53.75 51.8701c34.4805 35.04 87.0908 65.2002 167.61 65.2002c171.95 0 212.42 -97.5498 212.42 -208.81v-301.6h-82.3896l-2.59961 25.7002c-35.9004 -22.5098 -83.2607 -33.71 -129.971 -33.71
c-99.9297 1 -191.1 46.5098 -191.1 172.68c0 132.27 103.6 164.369 202.159 164.369c31.2402 0 65.4102 -3.61035 97.0703 -8.25c-0.889648 56.3203 -21.1201 103.12 -115.49 103.12c-38.7598 0 -74.2197 -11.2305 -103.96 -30.5703zM334.351 95.4307l-0.00976562 151.541
c-26.5996 3.46973 -54.3594 6.35938 -80.3896 6.35938c-65.3496 0 -120.3 -17.9297 -120.3 -89.6494c0 -68.25 49.7402 -89.6504 111.05 -89.6504c31.8096 0 64.7793 8.09961 89.6494 21.3994z" />
    <glyph glyph-name="abreve" unicode="&#x103;" horiz-adv-x="490" 
d="M353.76 702.46h49.3711c0 -81.2998 -63.9404 -138.43 -147.61 -138.43c-83.6602 0 -147.61 57.1299 -147.61 138.43h49.3701c3.96973 -50.9102 48.4795 -80.9805 98.2393 -80.9805c49.3301 0 94.2705 30.0703 98.2402 80.9805zM114.911 392.34l-53.75 51.8818
c34.4805 35.0303 87.0908 65.2002 167.61 65.2002c171.95 0 212.42 -97.5498 212.42 -208.81v-301.61h-82.3896l-2.59961 25.7002c-35.9004 -22.5098 -83.2607 -33.7002 -129.971 -33.7002c-99.9297 1 -191.1 46.5098 -191.1 172.67c0 132.27 103.6 164.369 202.159 164.369
c31.2402 0 65.4102 -3.61035 97.0703 -8.24023c-0.889648 56.3096 -21.1201 103.109 -115.49 103.109c-38.7598 0 -74.2197 -11.2305 -103.96 -30.5703zM334.352 95.4316l-0.00976562 151.541c-26.5996 3.46973 -54.3594 6.35938 -80.3896 6.35938
c-65.3496 0 -120.3 -17.9297 -120.3 -89.6494c0 -68.25 49.7402 -89.6504 111.05 -89.6504c31.8096 0 64.7793 8.08984 89.6494 21.3994z" />
    <glyph glyph-name="acaron" unicode="&#x1ce;" horiz-adv-x="490" 
d="M306.72 574.78h-98.9297l-123.66 141.86h86.6797l86.1396 -95.9004l84.1602 95.9004h86.8799zM114.91 392.351l-53.75 51.8701c34.4805 35.04 87.0908 65.2002 167.61 65.2002c171.95 0 212.42 -97.5498 212.42 -208.81v-301.6h-82.3896l-2.59961 25.7002
c-35.9004 -22.5098 -83.2607 -33.71 -129.971 -33.71c-99.9297 1 -191.1 46.5098 -191.1 172.68c0 132.27 103.6 164.369 202.159 164.369c31.2402 0 65.4102 -3.61035 97.0703 -8.25c-0.889648 56.3203 -21.1201 103.12 -115.49 103.12
c-38.7598 0 -74.2197 -11.2305 -103.96 -30.5703zM334.351 95.4307l-0.00976562 151.541c-26.5996 3.46973 -54.3594 6.35938 -80.3896 6.35938c-65.3496 0 -120.3 -17.9297 -120.3 -89.6494c0 -68.25 49.7402 -89.6504 111.05 -89.6504
c31.8096 0 64.7793 8.09961 89.6494 21.3994z" />
    <glyph glyph-name="acircumflex" unicode="&#xe2;" horiz-adv-x="490" 
d="M429.05 573.05h-86.8896l-84.1504 95.9004l-86.1396 -95.9004h-86.6797l123.66 141.86h98.9297zM114.9 392.35l-53.751 51.8701c34.4902 35.04 87.1006 65.2002 167.62 65.2002c171.95 0 212.41 -97.5498 212.41 -208.81v-301.6h-82.3799l-2.59961 25.7002
c-35.9004 -22.5098 -83.2607 -33.71 -129.98 -33.71c-99.9297 1 -191.09 46.5098 -191.09 172.68c0 132.27 103.6 164.369 202.149 164.369c31.25 0 65.4199 -3.61035 97.0703 -8.25c-0.889648 56.3203 -21.1094 103.12 -115.489 103.12
c-38.75 0 -74.21 -11.2305 -103.96 -30.5703zM334.35 95.4297l-0.00878906 151.541c-26.6104 3.46973 -54.3701 6.35938 -80.3896 6.35938c-65.3604 0 -120.301 -17.9297 -120.301 -89.6494c0 -68.25 49.7402 -89.6504 111.05 -89.6504
c31.8096 0 64.7793 8.09961 89.6494 21.3994z" />
    <glyph glyph-name="adieresis" unicode="&#xe4;" horiz-adv-x="490" 
d="M162.41 683.47c27.8604 0 49.6104 -21.75 49.6104 -51.3096c0 -28.4199 -21.75 -51.3096 -50.1797 -51.3096c-28.9902 0 -51.8799 22.8896 -51.8799 51.3096c0 29.5596 22.8896 51.3096 52.4492 51.3096zM357.22 683.47c27.8604 0 49.6104 -21.75 49.6104 -51.3096
c0 -28.4199 -21.75 -51.3096 -50.1699 -51.3096c-29 0 -51.8799 22.8896 -51.8799 51.3096c0 29.5596 22.8799 51.3096 52.4395 51.3096zM114.91 392.34l-53.75 51.8818c34.4805 35.0303 87.0908 65.2002 167.61 65.2002c171.95 0 212.42 -97.5498 212.42 -208.81v-301.61
h-82.3896l-2.59961 25.7002c-35.9004 -22.5098 -83.2607 -33.7002 -129.971 -33.7002c-99.9297 1 -191.1 46.5098 -191.1 172.67c0 132.27 103.6 164.369 202.159 164.369c31.2402 0 65.4102 -3.61035 97.0703 -8.24023c-0.889648 56.3096 -21.1201 103.109 -115.49 103.109
c-38.7598 0 -74.2197 -11.2305 -103.96 -30.5703zM334.351 95.4316l-0.00976562 151.541c-26.5996 3.46973 -54.3594 6.35938 -80.3896 6.35938c-65.3496 0 -120.3 -17.9297 -120.3 -89.6494c0 -68.25 49.7402 -89.6504 111.05 -89.6504
c31.8096 0 64.7793 8.08984 89.6494 21.3994z" />
    <glyph glyph-name="agrave" unicode="&#xe0;" horiz-adv-x="490" 
d="M320.86 578.44h-71.7705l-84.7402 121.56h99.8203zM114.91 392.351l-53.75 51.8701c34.4805 35.04 87.0908 65.2002 167.61 65.2002c171.95 0 212.42 -97.5498 212.42 -208.81v-301.6h-82.3896l-2.59961 25.7002c-35.9004 -22.5098 -83.2607 -33.71 -129.971 -33.71
c-99.9297 1 -191.1 46.5098 -191.1 172.68c0 132.27 103.6 164.369 202.159 164.369c31.2402 0 65.4102 -3.61035 97.0703 -8.25c-0.889648 56.3203 -21.1201 103.12 -115.49 103.12c-38.7598 0 -74.2197 -11.2305 -103.96 -30.5703zM334.351 95.4307l-0.00976562 151.541
c-26.5996 3.46973 -54.3594 6.35938 -80.3896 6.35938c-65.3496 0 -120.3 -17.9297 -120.3 -89.6494c0 -68.25 49.7402 -89.6504 111.05 -89.6504c31.8096 0 64.7793 8.09961 89.6494 21.3994z" />
    <glyph glyph-name="amacron" unicode="&#x101;" horiz-adv-x="490" 
d="M379.53 599h-249.83v57.0195h249.83v-57.0195zM114.91 392.34l-53.75 51.8818c34.4805 35.0303 87.0908 65.2002 167.61 65.2002c171.95 0 212.42 -97.5498 212.42 -208.81v-301.61h-82.3896l-2.59961 25.7002c-35.9004 -22.5098 -83.2607 -33.7002 -129.971 -33.7002
c-99.9297 1 -191.1 46.5098 -191.1 172.67c0 132.27 103.6 164.369 202.159 164.369c31.2402 0 65.4102 -3.61035 97.0703 -8.24023c-0.889648 56.3096 -21.1201 103.109 -115.49 103.109c-38.7598 0 -74.2197 -11.2305 -103.96 -30.5703zM334.351 95.4316
l-0.00976562 151.541c-26.5996 3.46973 -54.3594 6.35938 -80.3896 6.35938c-65.3496 0 -120.3 -17.9297 -120.3 -89.6494c0 -68.25 49.7402 -89.6504 111.05 -89.6504c31.8096 0 64.7793 8.08984 89.6494 21.3994z" />
    <glyph glyph-name="aogonek" unicode="&#x105;" horiz-adv-x="490" 
d="M114.89 392.35l-53.7412 51.8701c34.4805 35.0303 87.0908 65.2002 167.61 65.2002c171.95 0 212.42 -97.5498 212.42 -208.81v-301.61l-22.8496 -3c-51.7002 -46.0898 -60.1807 -79.0098 -60.1807 -101.029c0 -30.9502 20.4102 -45.0098 45.54 -45.0098
c27.46 0 47.1299 17.7598 65.7002 44.04l42.5195 -17c-29.1602 -50 -72.8398 -80 -130.359 -80c-38.3096 0 -96.2393 18 -96.2393 87c0 26 10.46 67 73.4795 115l-2.59961 25.7002c-35.9004 -22.5098 -83.2607 -33.7002 -129.971 -33.7002
c-99.9297 1 -191.1 46.5098 -191.1 172.68c0 132.27 103.6 164.369 202.149 164.369c31.25 0 65.4199 -3.61035 97.0703 -8.25c-0.889648 56.3203 -21.1094 103.12 -115.489 103.12c-38.7598 0 -74.2197 -11.2305 -103.96 -30.5703zM334.339 95.4297l0.000976562 151.541
c-26.6104 3.46973 -54.3701 6.35938 -80.3896 6.35938c-65.3604 0 -120.301 -17.9297 -120.301 -89.6494c0 -68.25 49.7402 -89.6504 111.04 -89.6504c31.8096 0 64.7793 8.08984 89.6494 21.3994z" />
    <glyph glyph-name="aring" unicode="&#xe5;" horiz-adv-x="490" 
d="M255.5 770.19c63.5996 0 118.85 -53.9102 118.85 -118.57c0 -63.4297 -54.5195 -118.569 -118.85 -118.569c-64.3398 0 -118.85 55.8496 -118.85 118.569c0 64.0303 55.21 118.57 118.85 118.57zM255.5 716.841c-36.3496 0 -65.3701 -28.5605 -65.3701 -65.2207
c0 -36.0195 29.1699 -65.6592 65.3701 -65.6592c35.8301 0 64.9404 29.5898 64.9404 65.6602c0 36.6602 -29.0303 65.2197 -64.9404 65.2197zM114.909 392.34l-53.75 51.8818c34.4805 35.0303 87.0908 65.2002 167.61 65.2002c171.95 0 212.42 -97.5498 212.42 -208.81
v-301.61h-82.3896l-2.59961 25.7002c-35.9004 -22.5098 -83.2607 -33.7002 -129.971 -33.7002c-99.9297 1 -191.1 46.5098 -191.1 172.67c0 132.27 103.6 164.369 202.159 164.369c31.2402 0 65.4102 -3.61035 97.0703 -8.24023
c-0.889648 56.3096 -21.1201 103.109 -115.49 103.109c-38.7598 0 -74.2197 -11.2305 -103.96 -30.5703zM334.35 95.4316l-0.00976562 151.541c-26.5996 3.46973 -54.3594 6.35938 -80.3896 6.35938c-65.3496 0 -120.3 -17.9297 -120.3 -89.6494
c0 -68.25 49.7402 -89.6504 111.05 -89.6504c31.8096 0 64.7793 8.08984 89.6494 21.3994z" />
    <glyph glyph-name="atilde" unicode="&#xe3;" horiz-adv-x="490" 
d="M126.3 592.03l-38.1904 51.0205c15.1396 16.0098 61.5596 58.8994 108.96 58.8994c48.9697 0 78.1895 -39.6602 119.22 -39.6602c30.8701 0 58.6006 30.4902 68.5508 40.8701l38.1201 -51.46c-12.1201 -11.25 -57.5898 -52.4102 -102.83 -52.4102
c-48.9697 0 -80.5996 38.7998 -123.93 38.7998c-29.7402 0 -57.3506 -31.79 -69.9004 -46.0596zM114.909 392.351l-53.751 51.8701c34.4902 35.04 87.1006 65.2002 167.62 65.2002c171.95 0 212.41 -97.5498 212.41 -208.81v-301.6h-82.3799l-2.59961 25.7002
c-35.9004 -22.5098 -83.2607 -33.71 -129.98 -33.71c-99.9297 1 -191.09 46.5098 -191.09 172.68c0 132.27 103.6 164.369 202.149 164.369c31.25 0 65.4199 -3.61035 97.0703 -8.25c-0.889648 56.3203 -21.1094 103.12 -115.489 103.12
c-38.75 0 -74.21 -11.2305 -103.96 -30.5703zM334.358 95.4307l-0.00878906 151.541c-26.6104 3.46973 -54.3701 6.35938 -80.3896 6.35938c-65.3604 0 -120.301 -17.9297 -120.301 -89.6494c0 -68.25 49.7402 -89.6504 111.05 -89.6504
c31.8096 0 64.7793 8.09961 89.6494 21.3994z" />
    <glyph glyph-name="ae" unicode="&#xe6;" horiz-adv-x="800" 
d="M114.91 392.35l-53.752 51.8604c34.4805 35.0303 87.0908 65.2002 167.381 65.2002c98 0 149.17 -32.25 176.939 -77.7803c31.1504 50.6602 90.6006 78.21 169.261 78.21c130.55 0 190.84 -76.4199 190.84 -190.21v-107.82h-291.81v-53.7197
c0 -59.9102 43.7998 -87.4297 98.5801 -87.4297c37.29 0 79.3896 13.4805 112.5 37.3008l58.7695 -47.6699c-38.79 -41.3203 -96.1904 -69.3008 -179.99 -70.3008c-52.5703 0 -94.7705 13.9004 -122.44 40.3506v-31.3398h-82.3799l-2.59961 25.7002
c-35.04 -22.0801 -81.0996 -33.7002 -129.979 -33.7002c-99.9297 0 -191.1 46.5098 -191.1 172.67c0 132.27 103.6 164.369 202.159 164.369c31.2402 0 65.4102 -3.61035 97.0703 -8.24023l-0.0400391 4.5498c-2.04004 54.0801 -23.3896 98.5703 -115.449 98.5703
c-38.7598 0 -74.2197 -11.2305 -103.96 -30.5703zM665.538 280.18v42.7197c0 76.0703 -43.25 103.12 -92.4004 103.12c-54.1201 0 -96.3398 -27.5098 -96.3398 -104.42v-41.4199h188.74zM334.348 95.4189l-0.00976562 151.541
c-26.5996 3.46973 -54.3594 6.35938 -80.3896 6.35938c-65.3496 0 -120.3 -17.9297 -120.3 -89.6494c0 -68.25 49.7402 -89.6504 111.05 -89.6504c31.8096 0 64.7793 8.09961 89.6494 21.3994z" />
    <glyph glyph-name="b" unicode="b" horiz-adv-x="499" 
d="M160.63 700l-0.00976562 -214.869c32.2197 13.7002 75.0596 23.6299 116.01 23.6299c89.4404 0 183.37 -43.1201 183.37 -176.65v-165.99c0 -127.68 -97.9902 -174.12 -191.25 -174.12c-46.7197 0 -94.0801 11.4902 -129.98 34l-2.59961 -26h-82.3799v700h106.84z
M353.15 165.241l0.0117188 159.58c0 73.2803 -32.9902 101.4 -96.3105 101.4c-35.7002 0 -71.7305 -7.91992 -96.2305 -17.75v-314.08c26.5596 -12.21 58.8496 -19.0703 91.8193 -19.0703c64.7305 0 100.15 31.4502 100.71 89.9199z" />
    <glyph glyph-name="c" unicode="c" horiz-adv-x="445" 
d="M39.46 196.05v108.88c0 129.77 76.1904 204.92 204.48 204.92c84.2598 0 136.35 -36.5303 166.369 -92.0605l-85.4004 -33.6699c-21.0801 25.9404 -48.9004 39.0605 -80.9707 39.0605c-60.1797 0 -97.6396 -36.1504 -97.6396 -118.25v-108.88
c0 -82.0996 37.46 -118.26 97.6396 -118.26c32.0703 0 59.8906 13.1201 80.9707 39.0703l85.4004 -33.6699c-30.0195 -55.5303 -82.1094 -92.1904 -166.369 -92.1904c-128.29 0 -204.48 75.2803 -204.48 205.05z" />
    <glyph glyph-name="cacute" unicode="&#x107;" horiz-adv-x="445" 
d="M245.58 578.44h-71.7705l56.7002 121.56h99.8203zM39.46 196.051v108.88c0 129.77 76.1904 204.92 204.48 204.92c84.25 0 136.35 -36.5303 166.369 -92.0605l-85.4004 -33.6699c-21.0801 25.9404 -48.9004 39.0605 -80.9707 39.0605
c-60.1797 0 -97.6396 -36.1504 -97.6396 -118.25v-108.88c0 -82.0996 37.46 -118.26 97.6396 -118.26c32.0703 0 59.8906 13.1201 80.9707 39.0703l85.4004 -33.6699c-30.0195 -55.5303 -82.1191 -92.1904 -166.369 -92.1904c-128.29 0 -204.48 75.2803 -204.48 205.05z" />
    <glyph glyph-name="ccaron" unicode="&#x10d;" horiz-adv-x="445" 
d="M274.06 574.78h-98.9199l-123.67 141.86h86.6797l86.1396 -95.9004l84.1602 95.9004h86.8799zM39.4697 196.05v108.891c0 129.77 76.1904 204.909 204.48 204.909c84.25 0 136.35 -36.5303 166.369 -92.0605l-85.4004 -33.6699
c-21.0801 25.9502 -48.9004 39.0703 -80.9707 39.0703c-60.1797 0 -97.6396 -36.1602 -97.6396 -118.26v-108.88c0 -82.0996 37.46 -118.25 97.6396 -118.25c32.0703 0 59.8906 13.1201 80.9707 39.0605l85.4004 -33.6699
c-30.0195 -55.5303 -82.1191 -92.1904 -166.369 -92.1904c-128.29 0 -204.48 75.2803 -204.48 205.05z" />
    <glyph glyph-name="ccedilla" unicode="&#xe7;" horiz-adv-x="445" 
d="M39.46 196.05l-0.00585938 108.799c0 129.77 76.1904 204.909 204.48 204.909c84.2598 0 136.35 -36.5303 166.369 -92.0605l-85.4004 -33.6699c-21.0801 25.9502 -48.9004 39.0703 -80.9707 39.0703c-60.1797 0 -97.6396 -36.1602 -97.6396 -118.26v-108.88
c0 -82.0996 37.46 -118.25 97.6396 -118.25c32.0703 0 59.8906 13.1201 80.9707 39.0605l85.4004 -33.6699c-26.3203 -39.2695 -62.2207 -68.0098 -109.211 -81.1094c-16.8604 -6 -36.3408 -10 -58.751 -10l-24.1602 -34c11.7998 3.32031 24.5098 5.26074 37.0996 5.26074
c47.7197 0 89.7598 -27.0898 89.7598 -85.25c0 -75 -66.7803 -98 -131.95 -98c-42.7402 0 -84.9102 16 -113.99 28l19.1201 44c29.1299 -14 60.0703 -20 86.2705 -22c35.3096 -1 67.6494 14 67.6494 46c0 27 -18.6504 40 -48.1406 40c-16.1699 0 -35.2295 -3 -61.6895 -15
l-20.9502 20l50.7598 75c-96.75 17.7695 -152.66 88.8799 -152.66 200.05z" />
    <glyph glyph-name="cdotaccent" unicode="&#x10b;" horiz-adv-x="445" 
d="M224.28 683.47c27.8604 0 49.6201 -21.75 49.6201 -51.3096c0 -28.4199 -21.7598 -51.3096 -50.1797 -51.3096c-29 0 -51.8799 22.8896 -51.8799 51.3096c0 29.5596 22.8799 51.3096 52.4395 51.3096zM39.4707 196.05v108.88c0 129.77 76.1904 204.92 204.48 204.92
c84.25 0 136.35 -36.5303 166.369 -92.0605l-85.4004 -33.6699c-21.0801 25.9404 -48.9004 39.0605 -80.9707 39.0605c-60.1797 0 -97.6396 -36.1504 -97.6396 -118.25v-108.88c0 -82.0996 37.46 -118.26 97.6396 -118.26c32.0703 0 59.8906 13.1201 80.9707 39.0703
l85.4004 -33.6699c-30.0195 -55.5303 -82.1191 -92.1904 -166.369 -92.1904c-128.29 0 -204.48 75.2803 -204.48 205.05z" />
    <glyph glyph-name="d" unicode="d" horiz-adv-x="499" 
d="M445.68 0l-82.3906 -0.0107422l-2.59961 26c-35.9004 -22.5098 -83.2607 -34 -129.98 -34c-94.9297 0 -191.25 47.3203 -191.25 174.13v165.99c0 133.53 93.9199 176.65 183.36 176.65c40.9502 0 83.79 -9.92969 116.021 -23.6299v214.87h106.84v-700zM338.829 94.3789
l0.0117188 314.08c-24.5098 9.83008 -60.54 17.75 -96.2402 17.75c-63.3203 0 -96.3008 -28.1201 -96.3008 -101.4v-159.58c0.55957 -58.46 35.9795 -89.9102 100.71 -89.9102c32.9697 0 65.2598 6.86035 91.8193 19.0605z" />
    <glyph glyph-name="eth" unicode="&#xf0;" horiz-adv-x="584" 
d="M505.58 687.76l-54.3213 -53.4297c47.3203 -47.79 70.3799 -114.09 70.3799 -181.54v-235.03c0 -127.83 -102.59 -228.76 -233.439 -228.76s-233.89 100.91 -233.89 228.76c0 119.19 98.8799 213.33 228.21 213.33c45.2002 0 101.681 -16.6504 138.44 -66.8701v95.71
c0 29.79 -9.25 65.6602 -33.2695 92.5898l-51.2402 -50.9199l-39.3398 39.8096l46.1299 45.8604c-19.4297 12.6299 -44.8398 20.9199 -77.9395 20.9199c-57.1904 0 -104.011 -25.2803 -127.23 -45.29l-64.5801 73.9102c28.0098 24.3896 95.6396 70.1094 188.97 70.1094
c57.4404 0 105.44 -14.5596 143.58 -38.6191l60.21 59.2598zM288.199 340.58c-76.7305 0 -127.06 -55.21 -127.06 -126.37c0 -71.1699 51.0596 -126.81 127.06 -126.81c76.0098 0 126.62 56.4004 126.62 126.811c-1.33984 73.8496 -51.6396 126.369 -126.62 126.369z" />
    <glyph glyph-name="dcaron" unicode="&#x10f;" horiz-adv-x="633" 
d="M505.2 602.47l28.8311 87.9805c-13.4805 10.9502 -22.2705 27.7305 -22.2705 46.25c0 32.96 27.4199 60.3896 60.3896 60.3896c32.96 0 60.3896 -27.4297 60.3896 -60.3896c0 -10.1602 -2.61035 -19.7803 -7.16992 -28.2402l-49.9199 -105.99h-70.25z
M445.682 -0.00976562l-82.3906 -0.000976562l-2.59961 26c-35.9004 -22.5098 -83.2607 -34 -129.98 -34c-94.9297 0 -191.25 47.3203 -191.25 174.12v165.99c0 133.53 93.9199 176.66 183.36 176.66c40.9502 0 83.79 -9.92969 116.021 -23.6396v214.87h106.84v-700z
M338.831 94.3789l0.0117188 314.08c-24.5098 9.83008 -60.54 17.7402 -96.2402 17.7402c-63.3203 0 -96.3008 -28.1104 -96.3008 -101.4v-159.57c0.55957 -58.4697 35.9795 -89.9199 100.71 -89.9199c32.9697 0 65.2598 6.86035 91.8193 19.0703z" />
    <glyph glyph-name="dcroat" unicode="&#x111;" horiz-adv-x="534" 
d="M445.68 632.64l67.8096 -0.000976562v-56.96h-67.8096v-575.68h-82.3799l-2.61035 26c-35.8896 -22.5098 -83.2598 -34 -129.97 -34c-94.9297 0 -191.25 47.3203 -191.25 174.12v165.99c0 133.53 93.9199 176.65 183.38 176.65
c40.9404 0 83.7705 -9.92969 115.99 -23.6299v90.5498h-115.23v56.96h115.23v67.3604h106.84v-67.3604zM338.839 94.3887v314.09c-24.5098 9.83008 -60.54 17.7402 -96.2402 17.7402c-63.3203 0 -96.3008 -28.1104 -96.3008 -101.4v-159.58
c0.570312 -58.46 35.9805 -89.9102 100.721 -89.9102c32.9697 0 65.25 6.86035 91.8203 19.0605z" />
    <glyph glyph-name="e" unicode="e" horiz-adv-x="469" 
d="M39.46 170.21l0.0107422 148.119c0 118.98 73.8203 191.511 204.78 191.511c130.54 0 190.83 -76.4102 190.83 -190.21v-107.81h-291.8v-52.8604c0 -61.9404 41.0098 -87.4307 99.0498 -87.4307c42.4297 0 82.0996 13.25 111.609 36.0801l59.1904 -47.3096
c-38.7998 -41.3301 -96.2002 -70.2998 -179.141 -70.2998c-135.37 0 -194.53 81.9004 -194.53 180.21zM335.051 280.179v42.7197c0 76.0703 -43.25 103.12 -92.4004 103.12c-54.1299 0 -96.3496 -27.5098 -96.3496 -104.42v-41.4199h188.75z" />
    <glyph glyph-name="e.ss01" horiz-adv-x="470" 
d="M39.46 170.21l0.0107422 148.121c0 111.07 64.3301 181.67 179.34 190.56c8.19043 0.639648 16.6406 0.959961 25.3311 0.959961c121.97 0 192.02 -72.8203 192.02 -169.221c0 -112.26 -85.6201 -149.76 -176.5 -149.76c-40.0703 0 -81.1602 7.29004 -116.38 18.6797
v-50.5898c0 -61.9404 41.0098 -87.4307 99.0498 -87.4307c42.4297 0 82.0996 13.25 111.609 36.0801l59.1904 -47.3096c-38.7998 -41.3301 -96.2002 -70.2998 -179.141 -70.2998c-135.37 0 -194.53 81.9004 -194.53 180.21zM145.15 333.141v-49.0801
c22.3096 -11.0498 63.0195 -22.5195 101.52 -22.5195c48.7998 0 93.7197 18.4404 93.7197 79.3105c0 53.54 -35.1299 84.3896 -95.2598 84.3896c-60.7695 0 -99.9795 -31.6104 -99.9795 -92.1006z" />
    <glyph glyph-name="eacute" unicode="&#xe9;" horiz-adv-x="469" 
d="M261.35 578.44h-71.7705l56.6904 121.56h99.8203zM39.459 170.21l0.0107422 148.119c0 118.98 73.8203 191.511 204.78 191.511c130.54 0 190.83 -76.4102 190.83 -190.21v-107.81h-291.8v-52.8604c0 -61.9404 41.0098 -87.4307 99.0498 -87.4307
c42.4297 0 82.0996 13.25 111.609 36.0801l59.1904 -47.3096c-38.7998 -41.3301 -96.2002 -70.2998 -179.141 -70.2998c-135.37 0 -194.53 81.9004 -194.53 180.21zM335.05 280.179v42.7197c0 76.0703 -43.25 103.12 -92.4004 103.12
c-54.1299 0 -96.3496 -27.5098 -96.3496 -104.42v-41.4199h188.75z" />
    <glyph glyph-name="ecaron" unicode="&#x11b;" horiz-adv-x="469" 
d="M289.82 574.78h-98.9189l-123.66 141.86h86.6797l86.1396 -95.9004l84.1504 95.9004h86.8896zM39.4717 170.21l0.000976562 148.119c0 118.98 73.8301 191.511 204.78 191.511c130.55 0 190.84 -76.4102 190.84 -190.21v-107.81h-291.81v-52.8604
c0 -61.9404 41.0195 -87.4307 99.0596 -87.4307c42.4297 0 82.0898 13.25 111.6 36.0801l59.1904 -47.3096c-38.79 -41.3301 -96.1904 -70.2998 -179.131 -70.2998c-135.38 0 -194.53 81.9004 -194.53 180.21zM335.053 280.179v42.7197
c0 76.0703 -43.25 103.12 -92.4004 103.12c-54.1201 0 -96.3398 -27.5098 -96.3398 -104.42v-41.4199h188.74z" />
    <glyph glyph-name="ecircumflex" unicode="&#xea;" horiz-adv-x="469" 
d="M412.16 573.05h-86.8906l-84.1602 95.9004l-86.1396 -95.9004h-86.6797l123.67 141.86h98.9199zM39.46 170.21l0.0107422 148.119c0 118.98 73.8203 191.511 204.78 191.511c130.54 0 190.83 -76.4102 190.83 -190.21v-107.81h-291.8v-52.8604
c0 -61.9404 41.0098 -87.4307 99.0498 -87.4307c42.4297 0 82.0996 13.25 111.609 36.0801l59.1904 -47.3096c-38.7998 -41.3301 -96.2002 -70.2998 -179.141 -70.2998c-135.37 0 -194.53 81.9004 -194.53 180.21zM335.051 280.179v42.7197
c0 76.0703 -43.25 103.12 -92.4004 103.12c-54.1299 0 -96.3496 -27.5098 -96.3496 -104.42v-41.4199h188.75z" />
    <glyph glyph-name="edieresis" unicode="&#xeb;" horiz-adv-x="469" 
d="M145.51 683.47c27.8604 0 49.6104 -21.75 49.6104 -51.3096c0 -28.4199 -21.75 -51.3096 -50.1797 -51.3096c-28.9902 0 -51.8799 22.8896 -51.8799 51.3096c0 29.5596 22.8896 51.3096 52.4492 51.3096zM340.33 683.47c27.8604 0 49.6104 -21.75 49.6104 -51.3096
c0 -28.4199 -21.75 -51.3096 -50.1797 -51.3096c-28.9902 0 -51.8799 22.8896 -51.8799 51.3096c0 29.5596 22.8896 51.3096 52.4492 51.3096zM39.4697 170.21l0.000976562 148.12c0 118.98 73.8301 191.511 204.78 191.511c130.55 0 190.84 -76.4199 190.84 -190.21
v-107.82h-291.81v-52.8496c0 -61.9404 41.0195 -87.4307 99.0596 -87.4307c42.4297 0 82.0898 13.2402 111.6 36.0703l59.1904 -47.3096c-38.79 -41.3203 -96.1904 -70.3008 -179.131 -70.3008c-135.38 0 -194.53 81.9102 -194.53 180.22zM335.051 280.17v42.7305
c0 76.0596 -43.25 103.109 -92.4004 103.109c-54.1201 0 -96.3398 -27.5 -96.3398 -104.41v-41.4297h188.74z" />
    <glyph glyph-name="edotaccent" unicode="&#x117;" horiz-adv-x="469" 
d="M240.04 683.47c27.8604 0 49.6104 -21.75 49.6104 -51.3096c0 -28.4199 -21.75 -51.3096 -50.1699 -51.3096c-29 0 -51.8799 22.8896 -51.8799 51.3096c0 29.5596 22.8799 51.3096 52.4395 51.3096zM39.46 170.21l0.0107422 148.12
c0 118.98 73.8203 191.511 204.78 191.511c130.54 0 190.83 -76.4199 190.83 -190.21v-107.82h-291.8v-52.8496c0 -61.9404 41.0098 -87.4307 99.0498 -87.4307c42.4297 0 82.0996 13.2402 111.609 36.0703l59.1904 -47.3096
c-38.7998 -41.3203 -96.2002 -70.3008 -179.141 -70.3008c-135.37 0 -194.53 81.9102 -194.53 180.22zM335.051 280.17v42.7305c0 76.0596 -43.25 103.109 -92.4004 103.109c-54.1299 0 -96.3496 -27.5 -96.3496 -104.41v-41.4297h188.75z" />
    <glyph glyph-name="egrave" unicode="&#xe8;" horiz-adv-x="469" 
d="M312.62 578.44h-71.7705l-84.6504 121.56h99.7305zM39.46 170.21l0.000976562 148.119c0 118.98 73.8301 191.511 204.78 191.511c130.55 0 190.84 -76.4102 190.84 -190.21v-107.81h-291.81v-52.8604c0 -61.9404 41.0195 -87.4307 99.0596 -87.4307
c42.4297 0 82.0898 13.25 111.6 36.0801l59.1904 -47.3096c-38.79 -41.3301 -96.1904 -70.2998 -179.131 -70.2998c-135.38 0 -194.53 81.9004 -194.53 180.21zM335.041 280.179v42.7197c0 76.0703 -43.25 103.12 -92.4004 103.12
c-54.1201 0 -96.3398 -27.5098 -96.3398 -104.42v-41.4199h188.74z" />
    <glyph glyph-name="emacron" unicode="&#x113;" horiz-adv-x="469" 
d="M362.63 616.03h-249.83v57.0098h249.83v-57.0098zM39.46 170.21l0.0107422 148.119c0 118.98 73.8203 191.511 204.78 191.511c130.54 0 190.83 -76.4102 190.83 -190.21v-107.81h-291.8v-52.8604c0 -61.9404 41.0098 -87.4307 99.0498 -87.4307
c42.4297 0 82.0996 13.25 111.609 36.0801l59.1904 -47.3096c-38.7998 -41.3301 -96.2002 -70.2998 -179.141 -70.2998c-135.37 0 -194.53 81.9004 -194.53 180.21zM335.051 280.179v42.7197c0 76.0703 -43.25 103.12 -92.4004 103.12
c-54.1299 0 -96.3496 -27.5098 -96.3496 -104.42v-41.4199h188.75z" />
    <glyph glyph-name="eogonek" unicode="&#x119;" horiz-adv-x="469" 
d="M39.46 170.21l0.0175781 148.569c0 118.98 73.8203 191.511 204.771 191.511c130.55 0 190.84 -76.4102 190.84 -190.21v-107.82h-291.81v-52.8496c0 -61.9404 41.0195 -87.4307 99.0596 -87.4307c42.4297 0 82.0898 13.2402 111.6 36.0703l59.1904 -47.3096
c-20.4502 -21.4004 -45.8105 -39.3301 -76.9707 -51.7402c-56.1104 -50 -66.2002 -82 -68.04 -105c-1.33008 -32 18.2803 -47 43.2207 -48c28.6396 0 48.8701 17 67.9502 44l42.5195 -18c-29.1602 -49 -72.8398 -79 -130.359 -79c-38.3096 0 -96.2393 19 -96.2393 87
c0 24 9.76953 58 57.3496 102c-20.8496 -1 -40.5195 0 -59.1191 3c-103.93 15.1904 -153.979 85.7402 -153.979 175.21zM335.058 280.629v42.7197c0 76.0703 -43.25 103.12 -92.4004 103.12c-54.1299 0 -96.3496 -27.5098 -96.3496 -104.42v-41.4199h188.75z" />
    <glyph glyph-name="f" unicode="f" horiz-adv-x="304" 
d="M55.9502 0l0.000976562 540.401c0 129.77 91.9697 171.149 177.569 171.149c17.7695 0 34.8896 -1.73047 51.1094 -4.76074v-85.54c-13.0498 1.99023 -24.4297 3.03027 -34.0498 3.03027c-5.83008 0 -11.0098 -0.379883 -15.54 -1.16016
c-43.5996 -4.41992 -72.1396 -33.7002 -72.25 -96.8604v-25.2598h113.55v-81.71h-113.55v-419.29h-106.84z" />
    <glyph glyph-name="g" unicode="g" horiz-adv-x="499" 
d="M39.46 175.02v159.809c0 127.68 97.9902 173.979 191.25 173.979c46.7197 0 94.0801 -11.3496 129.98 -33.8594l2.59961 26h82.3799v-515.95c0 -120 -77.3701 -177 -176.99 -177c-62.8701 0 -125.71 19 -180.82 55l41.6396 60c37.1504 -23 76.9805 -36 118.101 -36
c54.6904 0 88.7305 24 91.2305 89v47.4902c-31.5 -14.8896 -75.4404 -23.4893 -117.41 -23.4893c-93.2598 0.570312 -181.96 45.3008 -181.96 175.021zM338.84 96.3682l-0.0117188 310.18c-26.5596 12.21 -58.8496 19.0703 -91.8193 19.0703
c-64.7305 0 -100.15 -31.4502 -100.71 -89.9199v-155.68c0 -73.2803 32.9805 -101.4 96.3008 -101.4c35.7002 0 71.7305 7.91992 96.2402 17.75z" />
    <glyph glyph-name="gbreve" unicode="&#x11f;" horiz-adv-x="499" 
d="M348.03 702.46h49.3711c0 -81.2998 -63.9502 -138.43 -147.61 -138.43c-83.6699 0 -147.61 57.1299 -147.61 138.43h49.3701c3.96973 -50.9102 48.4795 -80.9805 98.2393 -80.9805c49.3203 0 94.2705 30.0703 98.2402 80.9805zM39.4717 175.02l0.00195312 159.802
c0 127.68 97.9805 173.989 191.25 173.989c46.71 0 94.0703 -11.3604 129.971 -33.8701l2.59961 26h82.3896v-515.94c0 -120 -77.3799 -177 -176.99 -177c-62.8799 0 -125.72 19 -180.819 55l41.6396 60c37.1396 -23 76.9795 -36 118.1 -36c54.6797 0 88.7295 24 91.2295 89
v47.4902c-31.5 -14.9004 -75.4404 -23.4902 -117.421 -23.4902c-93.2598 0.55957 -181.95 45.2998 -181.95 175.02zM338.844 96.3613v310.189c-26.5703 12.2002 -58.8506 19.0605 -91.8203 19.0605c-64.7402 0 -100.15 -31.4502 -100.721 -89.9102v-155.68
c0 -73.29 32.9902 -101.4 96.3105 -101.4c35.7002 0 71.7305 7.91016 96.2305 17.7402z" />
    <glyph glyph-name="gcommaaccent" unicode="&#x123;" horiz-adv-x="499" 
d="M304.5 716.1l-20.0703 -60.0977c9.23047 -7.54004 15.3105 -18.7803 15.3105 -31.0205c0 -21.6104 -18.1602 -39.9707 -39.9502 -39.9707c-21.7803 0 -39.96 18.3496 -39.96 39.9697c0 6.54004 1.70996 12.5098 4.7002 18.4795l34.2197 72.6396h45.75zM39.46 175.021
l0.00195312 159.809c0 127.68 97.9805 173.979 191.25 173.979c46.71 0 94.0703 -11.3496 129.971 -33.8594l2.59961 26h82.3896v-515.95c0 -120 -77.3799 -177 -176.99 -177c-62.8799 0 -125.72 19 -180.819 55l41.6396 60c37.1396 -23 76.9795 -36 118.1 -36
c54.6797 0 88.7295 24 91.2295 89v47.4902c-31.5 -14.8896 -75.4404 -23.4893 -117.421 -23.4893c-93.2598 0.570312 -181.95 45.3008 -181.95 175.021zM338.832 96.3701v310.18c-26.5703 12.21 -58.8506 19.0703 -91.8203 19.0703
c-64.7402 0 -100.15 -31.4502 -100.721 -89.9199v-155.68c0 -73.2803 32.9902 -101.4 96.3105 -101.4c35.7002 0 71.7305 7.91992 96.2305 17.75z" />
    <glyph glyph-name="gdotaccent" unicode="&#x121;" horiz-adv-x="499" 
d="M251.2 683.47c27.8604 0 49.6104 -21.75 49.6104 -51.3096c0 -28.4199 -21.75 -51.3096 -50.1699 -51.3096c-29 0 -51.8799 22.8896 -51.8799 51.3096c0 29.5596 22.8799 51.3096 52.4395 51.3096zM39.46 175.02v159.802c0 127.68 97.9902 173.989 191.25 173.989
c46.7197 0 94.0801 -11.3604 129.98 -33.8701l2.59961 26h82.3799v-515.94c0 -120 -77.3701 -177 -176.99 -177c-62.8701 0 -125.71 19 -180.82 55l41.6396 60c37.1504 -23 76.9805 -36 118.101 -36c54.6904 0 88.7305 24 91.2305 89v47.4902
c-31.5 -14.9004 -75.4404 -23.4902 -117.41 -23.4902c-93.2598 0.55957 -181.96 45.2998 -181.96 175.02zM338.84 96.3613l-0.0117188 310.189c-26.5596 12.2002 -58.8496 19.0605 -91.8193 19.0605c-64.7305 0 -100.15 -31.4502 -100.71 -89.9102v-155.68
c0 -73.29 32.9805 -101.4 96.3008 -101.4c35.7002 0 71.7305 7.91016 96.2402 17.7402z" />
    <glyph glyph-name="h" unicode="h" horiz-adv-x="513" 
d="M165.63 700l0.00976562 -215.739c33.4805 16.2803 74.1406 24.5 113.751 24.5c91.0195 0 185.619 -43.8203 185.619 -175.351v-333.41h-106.84v326.54c0 69.8301 -32.9902 100.11 -97.1699 100.11c-33.9697 0 -67.8398 -7.48047 -95.3701 -19.4805v-407.17h-106.84v700
h106.84z" />
    <glyph glyph-name="hbar" unicode="&#x127;" horiz-adv-x="546" 
d="M197.67 629.46l149.561 0.000976562v-56.5195h-149.56v-88.3799c33.4902 16.2803 74.1406 24.5 113.74 24.5c91.04 0 185.64 -43.8203 185.64 -175.351v-333.41h-106.84v326.54c0 69.8301 -32.9805 100.11 -97.1709 100.11
c-33.9697 0 -67.8398 -7.48047 -95.3701 -19.4707v-407.18h-106.84v572.64h-77.3701v56.5195h77.3701v70.8398h106.84v-70.8398z" />
    <glyph glyph-name="i" unicode="i" horiz-adv-x="226" 
d="M116.18 709.14c32.5703 0 56.5098 -23.9404 56.5098 -56.5107c0 -29.7998 -21.0195 -57.3896 -56.5098 -57.3896c-32.5596 0 -57.3896 24.8203 -57.3896 57.3906c0 35.4902 27.5996 56.5098 57.3896 56.5098zM169.159 0.0595703h-106.84v500.88h106.84v-500.88z" />
    <glyph glyph-name="dotlessi" unicode="&#x131;" horiz-adv-x="188" 
d="M150.13 0.0595703h-106.84v500.88h106.84v-500.88z" />
    <glyph glyph-name="iacute" unicode="&#xed;" horiz-adv-x="192" 
d="M113.36 578.44h-71.7705l56.7002 121.56h99.8203zM150.13 0.0605469h-106.84v500.88h106.84v-500.88z" />
    <glyph glyph-name="icaron" unicode="&#x1d0;" horiz-adv-x="188" 
d="M149.06 574.78h-98.9199l-123.14 141.86h86.3398l85.96 -95.9004l84.1504 95.9004h86.8896zM150.13 0.0605469h-106.84v500.88h106.84v-500.88z" />
    <glyph glyph-name="icircumflex" unicode="&#xee;" horiz-adv-x="188" 
d="M271.4 573.05h-86.8896l-84.1504 95.9004l-85.96 -95.9004h-86.4004l123.2 141.86h98.9199zM150.131 0.0595703h-106.84v500.88h106.84v-500.88z" />
    <glyph glyph-name="idieresis" unicode="&#xef;" horiz-adv-x="188" 
d="M4.53027 683.47c27.8604 0 49.6094 -21.75 49.6094 -51.3096c0 -28.4199 -21.75 -51.3096 -50.1797 -51.3096c-28.96 0 -51.96 22.8896 -51.96 51.3096c0 29.5596 23 51.3096 52.5303 51.3096zM199.56 683.47c27.8604 0 49.6104 -21.75 49.6104 -51.3096
c0 -28.4199 -21.75 -51.3096 -50.1699 -51.3096c-29 0 -51.8799 22.8896 -51.8799 51.3096c0 29.5596 22.8799 51.3096 52.4395 51.3096zM150.119 0.0498047h-106.83v500.89h106.83v-500.89z" />
    <glyph glyph-name="igrave" unicode="&#xec;" horiz-adv-x="188" 
d="M158.88 578.44h-71.7695l-84.5703 121.56h99.6396zM150.13 0.0605469h-106.84v500.88h106.84v-500.88z" />
    <glyph glyph-name="ij" unicode="&#x133;" horiz-adv-x="451" 
d="M340.96 709.2c32.5596 0 56.5107 -23.9512 56.5107 -56.5107c0 -29.7998 -21.0195 -57.3994 -56.5098 -57.3994c-32.5703 0 -57.3906 24.8301 -57.3906 57.4004c0 35.4902 27.5898 56.5098 57.3896 56.5098zM116.19 709.13c32.5703 0 56.5107 -23.9395 56.5107 -56.5098
c0 -29.79 -21.0195 -57.3896 -56.5098 -57.3896c-32.5703 0 -57.3906 24.8301 -57.3906 57.3896c0 35.4902 27.5898 56.5098 57.3896 56.5098zM393.95 500.991l-0.00976562 -538c0 -93 -62.4902 -137 -135.19 -150c-15.04 -3 -30.8604 -4 -48.0801 -4l-1.2998 86
c16.3496 0 29.1299 3 39.6201 7c33.79 14 38.1201 47 38.1201 80v519h106.84zM169.16 0.0507812h-106.84v500.89h106.84v-500.89z" />
    <glyph glyph-name="imacron" unicode="&#x12b;" horiz-adv-x="188" 
d="M219.24 599h-250.24v57.0195h250.24v-57.0195zM150.13 0.0498047h-106.84v500.89h106.84v-500.89z" />
    <glyph glyph-name="iogonek" unicode="&#x12f;" horiz-adv-x="188" 
d="M98.8496 683.47c27.8604 0 49.6104 -21.75 49.6104 -51.3096c0 -28.4199 -21.75 -51.3096 -50.1699 -51.3096c-29 0 -51.8799 22.8896 -51.8799 51.3096c0 29.5596 22.8799 51.3096 52.4395 51.3096zM150.13 500.069v-500.068
c-58.0195 -49 -66.7393 -81.7002 -66.7393 -105.021c0 -30.9004 20.4697 -44.0205 45.5996 -44.0205c27.4502 0 47.1201 17.7305 65.6904 43.04l42.5195 -17c-29.1396 -50 -72.8096 -80 -130.35 -80c-38.3203 0 -96.3008 19 -96.3008 88c0 25 12.2402 66 72.6299 112
l-39.8896 3.05957v500.01h106.84z" />
    <glyph glyph-name="j" unicode="j" horiz-adv-x="225" 
d="M114.57 709.2c32.5703 0 56.5107 -23.9512 56.5107 -56.5107c0 -29.7998 -21.0195 -57.3994 -56.5098 -57.3994c-32.5703 0 -57.4004 24.8301 -57.4004 57.4004c0 35.4902 27.5996 56.5098 57.3994 56.5098zM167.551 500.989v-538c0 -93 -62.4902 -137 -135.19 -150
c-15.04 -3 -30.8604 -4 -49.3604 -4v86c16 0 29.1104 3 39.5908 7c33.7998 14 38.1201 47 38.1201 80v519h106.84z" />
    <glyph glyph-name="k" unicode="k" horiz-adv-x="515" 
d="M165.63 317.41l175.989 190.529h127.5l-186.09 -209.55l218.12 -298.39h-119.46l-160.26 225.1l-55.7998 -54.3398v-170.76h-106.84v700h106.84v-382.59z" />
    <glyph glyph-name="kcommaaccent" unicode="&#x137;" horiz-adv-x="515" 
d="M165.63 317.41l175.989 190.529h127.5l-186.09 -209.55l218.12 -298.39h-119.46l-160.26 225.1l-55.7998 -54.3398v-170.76h-106.84v700h106.84v-382.59zM210.429 -214.001l20.0605 60c-9.23047 7 -15.3105 18 -15.3105 31c0 21 18.1797 40 39.96 40s39.96 -19 39.96 -40
c0 -7 -1.70996 -13 -4.7002 -19l-34.2197 -72h-45.75z" />
    <glyph glyph-name="l" unicode="l" horiz-adv-x="214" 
d="M165.63 0h-106.84v700h106.84v-700z" />
    <glyph glyph-name="lacute" unicode="&#x13a;" horiz-adv-x="214" 
d="M151.05 777.99h-71.7705l56.6904 121.55h99.8203zM165.629 0h-106.84v700h106.84v-700z" />
    <glyph glyph-name="lcaron" unicode="&#x13e;" horiz-adv-x="352" 
d="M225.15 602.47l28.8311 87.9805c-13.4805 10.9502 -22.2705 27.7305 -22.2705 46.25c0 32.96 27.4199 60.3896 60.3896 60.3896c32.96 0 60.3896 -27.4297 60.3896 -60.3896c0 -10.1602 -2.61035 -19.7803 -7.16992 -28.2402l-49.9199 -105.99h-70.25z
M165.632 -0.00976562h-106.84v700h106.84v-700z" />
    <glyph glyph-name="lcommaaccent" unicode="&#x13c;" horiz-adv-x="214" 
d="M165.63 0h-106.84v700h106.84v-700zM69.4502 -214l20.0596 60c-9.21973 7 -15.3096 18 -15.3096 31c0 21 18.1797 40 39.96 40s39.96 -19 39.96 -40c0 -7 -1.70996 -13 -4.7002 -19l-34.2197 -72h-45.75z" />
    <glyph glyph-name="ldot" unicode="&#x140;" horiz-adv-x="365" 
d="M165.63 0h-106.84v700h106.84v-700zM285.91 404.55c32.96 0 60.3896 -27.4297 60.3896 -60.3896c0 -32.9697 -27.4297 -60.3799 -60.3896 -60.3799c-32.9697 0 -60.5098 27.4102 -60.5098 60.3799c0 32.96 27.54 60.3896 60.5098 60.3896z" />
    <glyph glyph-name="lslash" unicode="&#x142;" horiz-adv-x="412" 
d="M243.33 434.01l122.5 55.1201l41.1201 -87.3896l-163.63 -73.6602v-328.08h-111.34v278.36l-89.7197 -40.2402l-36.5898 88.8701l126.31 56.7002v316.31h111.35v-265.99z" />
    <glyph glyph-name="m" unicode="m" horiz-adv-x="763" 
d="M135.44 501l2.57031 -25.5596c39.1104 22.1104 84.3203 33.3301 127.66 33.3301c53.1699 0 102.57 -16.75 132.5 -49.5898c54.1797 33.7002 94.6602 49.5898 146.79 49.5898c89.6396 0 169.409 -57.1299 169.409 -175.36v-333.41h-105.86v325.25
c0 68.0996 -23.4902 100.54 -80.5 100.54c-28.54 0 -46.1299 -3.63965 -96.8203 -26.1094c6.44043 -16.3604 7.34082 -48.9707 7.34082 -71.8906v-327.79h-105.86v339.09c0 60.7402 -26.0898 86.6904 -82.6699 86.6904c-33.0098 0 -66.3594 -7.91016 -90.3496 -18.6104
v-407.17h-105.86v501h81.6504z" />
    <glyph glyph-name="n" unicode="n" horiz-adv-x="508" 
d="M136.17 501l2.6084 -25.999c38.8604 22.5498 86.4902 33.7695 132.36 33.7695c95.9502 0 188.87 -49.2305 188.87 -175.36v-333.41h-106.84v326.55c0 69.3896 -33.8496 99.6699 -98.4697 99.6699c-33.54 0 -66.9697 -7.0498 -94.0693 -19.0498v-407.17h-106.84v501
h82.3799z" />
    <glyph glyph-name="nacute" unicode="&#x144;" horiz-adv-x="508" 
d="M281.94 578.44h-71.7705l56.7002 121.56h99.8203zM136.17 501l2.6084 -25.999c38.8604 22.5498 86.4902 33.7695 132.36 33.7695c95.9502 0 188.87 -49.2305 188.87 -175.36v-333.41h-106.84v326.55c0 69.3896 -33.8496 99.6699 -98.4697 99.6699
c-33.54 0 -66.9697 -7.0498 -94.0693 -19.0498v-407.17h-106.84v501h82.3799z" />
    <glyph glyph-name="ncaron" unicode="&#x148;" horiz-adv-x="508" 
d="M310.42 574.78h-98.9199l-123.67 141.86h86.6797l86.1396 -95.9004l84.1602 95.9004h86.8799zM136.18 501l2.59961 -25.999c38.8604 22.5498 86.4902 33.7695 132.36 33.7695c95.9502 0 188.87 -49.2305 188.87 -175.36v-333.41h-106.84v326.55
c0 69.3896 -33.8496 99.6699 -98.46 99.6699c-33.54 0 -66.9805 -7.0498 -94.0801 -19.0498v-407.17h-106.84v501h82.3896z" />
    <glyph glyph-name="ncommaaccent" unicode="&#x146;" horiz-adv-x="508" 
d="M136.17 501l2.6084 -25.999c38.8604 22.5498 86.4902 33.7695 132.36 33.7695c95.9502 0 188.87 -49.2305 188.87 -175.36v-333.41h-106.84v326.55c0 69.3896 -33.8496 99.6699 -98.4697 99.6699c-33.54 0 -66.9697 -7.0498 -94.0693 -19.0498v-407.17h-106.84v501
h82.3799zM208.788 -213.999l20.0703 60c-9.23047 7 -15.3105 18 -15.3105 31c0 21 18.1699 40 39.9502 40s39.96 -19 39.96 -40c0 -7 -1.70996 -13 -4.7002 -19l-34.2197 -72h-45.75z" />
    <glyph glyph-name="eng" unicode="&#x14b;" horiz-adv-x="511" 
d="M136.17 501l2.59863 -25.9893c38.8701 22.5498 86.5 33.7598 132.36 33.7598c95.9502 0 188.87 -49.2305 188.87 -175.351v-386.41c0 -92 -62.1201 -136 -133.13 -148c-15.4102 -4 -31.8906 -6 -50.1406 -6l-1.2998 86c16.8701 0 29.9805 3 40.6504 8
c32.9502 14 37.0801 46 37.0801 79v360.54c0 69.4004 -33.8496 99.6699 -98.46 99.6699c-33.54 0 -66.9697 -7.0498 -94.0693 -19.04v-407.18h-106.84v501h82.3799z" />
    <glyph glyph-name="ntilde" unicode="&#xf1;" horiz-adv-x="508" 
d="M130 592.03l-38.1807 51.0205c15.1396 16.0098 61.5498 58.8994 108.95 58.8994c48.9697 0 78.1895 -39.6602 119.22 -39.6602c30.8701 0 58.6006 30.4902 68.5508 40.8701l38.1201 -51.46c-12.1201 -11.25 -57.5898 -52.4102 -102.83 -52.4102
c-48.9697 0 -80.5996 38.7998 -123.93 38.7998c-29.7402 0 -57.3506 -31.79 -69.9004 -46.0596zM136.18 501.001l2.6084 -25.999c38.8604 22.5498 86.4902 33.7695 132.36 33.7695c95.9502 0 188.87 -49.2305 188.87 -175.36v-333.41h-106.84v326.55
c0 69.3896 -33.8496 99.6699 -98.4697 99.6699c-33.54 0 -66.9697 -7.0498 -94.0693 -19.0498v-407.17h-106.84v501h82.3799z" />
    <glyph glyph-name="o" unicode="o" horiz-adv-x="487" 
d="M39.46 191.84l0.000976562 116.549c0 125.95 70.3096 202.32 206.449 202.32c132.79 0 201.6 -81.5996 201.6 -202.319v-116.55c0 -97 -51.7998 -200.84 -202.7 -200.84c-150.09 0 -205.35 102.53 -205.35 200.84zM340.671 191.839l0.00195312 116.538
c0 73.04 -32.8701 115.66 -95.8604 115.66c-67.5303 0 -98.5107 -37.8799 -98.5107 -115.649v-116.55c0 -61.0801 27.7002 -113.89 98.5098 -113.89c70.0898 0 95.8594 52.5303 95.8594 113.891z" />
    <glyph glyph-name="oacute" unicode="&#xf3;" horiz-adv-x="487" 
d="M267 578.44h-71.7607l56.6904 121.56h99.8203zM39.4697 191.841l0.000976562 116.549c0 125.95 70.3096 202.32 206.449 202.32c132.79 0 201.59 -81.5996 201.59 -202.319v-116.55c0 -97 -51.79 -200.84 -202.7 -200.84c-150.08 0 -205.34 102.53 -205.34 200.84z
M340.671 191.84l0.00976562 116.538c0 73.04 -32.8701 115.66 -95.8604 115.66c-67.54 0 -98.5098 -37.8799 -98.5098 -115.649v-116.55c0 -61.0801 27.6904 -113.89 98.5107 -113.89c70.0898 0 95.8496 52.5303 95.8496 113.891z" />
    <glyph glyph-name="ocaron" unicode="&#x1d2;" horiz-adv-x="487" 
d="M295.12 574.78h-98.9189l-123.66 141.86h86.6797l86.1396 -95.9004l84.1504 95.9004h86.8896zM39.4707 191.84l0.000976562 116.549c0 125.95 70.3096 202.32 206.449 202.32c132.79 0 201.59 -81.5996 201.59 -202.319v-116.55c0 -97 -51.79 -200.84 -202.7 -200.84
c-150.08 0 -205.34 102.53 -205.34 200.84zM340.672 191.839l0.00976562 116.538c0 73.04 -32.8701 115.66 -95.8604 115.66c-67.54 0 -98.5098 -37.8799 -98.5098 -115.649v-116.55c0 -61.0801 27.6904 -113.89 98.5107 -113.89c70.0898 0 95.8496 52.5303 95.8496 113.891
z" />
    <glyph glyph-name="ocircumflex" unicode="&#xf4;" horiz-adv-x="487" 
d="M417.46 573.05h-86.8906l-84.1504 95.9004l-86.1396 -95.9004h-86.6797l123.66 141.86h98.9199zM39.459 191.84l0.000976562 116.549c0 125.95 70.3096 202.32 206.449 202.32c132.79 0 201.6 -81.5996 201.6 -202.319v-116.55c0 -97 -51.7998 -200.84 -202.7 -200.84
c-150.09 0 -205.35 102.53 -205.35 200.84zM340.67 191.839l0.00195312 116.538c0 73.04 -32.8701 115.66 -95.8604 115.66c-67.5303 0 -98.5107 -37.8799 -98.5107 -115.649v-116.55c0 -61.0801 27.7002 -113.89 98.5098 -113.89
c70.0898 0 95.8594 52.5303 95.8594 113.891z" />
    <glyph glyph-name="odieresis" unicode="&#xf6;" horiz-adv-x="487" 
d="M150.81 683.47c27.8604 0 49.6104 -21.75 49.6104 -51.3096c0 -28.4199 -21.75 -51.3096 -50.1699 -51.3096c-29 0 -51.8799 22.8896 -51.8799 51.3096c0 29.5596 22.8799 51.3096 52.4395 51.3096zM345.63 683.47c27.8604 0 49.6104 -21.75 49.6104 -51.3096
c0 -28.4199 -21.75 -51.3096 -50.1797 -51.3096c-28.9902 0 -51.8799 22.8896 -51.8799 51.3096c0 29.5596 22.8896 51.3096 52.4492 51.3096zM39.46 191.84l0.000976562 116.549c0 125.95 70.3096 202.32 206.449 202.32c132.79 0 201.6 -81.5996 201.6 -202.319v-116.55
c0 -97 -51.7998 -200.84 -202.7 -200.84c-150.09 0 -205.35 102.53 -205.35 200.84zM340.671 191.839l0.00195312 116.538c0 73.04 -32.8701 115.66 -95.8604 115.66c-67.5303 0 -98.5107 -37.8799 -98.5107 -115.649v-116.55c0 -61.0801 27.7002 -113.89 98.5098 -113.89
c70.0898 0 95.8594 52.5303 95.8594 113.891z" />
    <glyph glyph-name="ograve" unicode="&#xf2;" horiz-adv-x="487" 
d="M317.93 578.44h-71.7695l-84.6504 121.56h99.7197zM39.46 191.841l0.000976562 116.549c0 125.95 70.3096 202.32 206.449 202.32c132.79 0 201.6 -81.5996 201.6 -202.319v-116.55c0 -97 -51.7998 -200.84 -202.7 -200.84c-150.09 0 -205.35 102.53 -205.35 200.84z
M340.671 191.84l0.00195312 116.538c0 73.04 -32.8701 115.66 -95.8604 115.66c-67.5303 0 -98.5107 -37.8799 -98.5107 -115.649v-116.55c0 -61.0801 27.7002 -113.89 98.5098 -113.89c70.0898 0 95.8594 52.5303 95.8594 113.891z" />
    <glyph glyph-name="ohungarumlaut" unicode="&#x151;" horiz-adv-x="487" 
d="M194.5 577.31h-67.3896l51.5596 122.69h92.79zM342.19 577.31h-67.3799l51.5596 122.69h92.79zM39.4609 191.84l0.000976562 116.549c0 125.95 70.3096 202.32 206.449 202.32c132.79 0 201.6 -81.5996 201.6 -202.319v-116.55c0 -97 -51.7998 -200.84 -202.7 -200.84
c-150.09 0 -205.35 102.53 -205.35 200.84zM340.672 191.839l0.00195312 116.538c0 73.04 -32.8701 115.66 -95.8604 115.66c-67.5303 0 -98.5107 -37.8799 -98.5107 -115.649v-116.55c0 -61.0801 27.7002 -113.89 98.5098 -113.89
c70.0898 0 95.8594 52.5303 95.8594 113.891z" />
    <glyph glyph-name="omacron" unicode="&#x14d;" horiz-adv-x="487" 
d="M368.61 599h-249.82v57.0195h249.82v-57.0195zM39.46 191.84l0.000976562 116.549c0 125.95 70.3096 202.32 206.449 202.32c132.79 0 201.6 -81.5996 201.6 -202.319v-116.55c0 -97 -51.7998 -200.84 -202.7 -200.84c-150.09 0 -205.35 102.53 -205.35 200.84z
M340.671 191.839l0.00195312 116.538c0 73.04 -32.8701 115.66 -95.8604 115.66c-67.5303 0 -98.5107 -37.8799 -98.5107 -115.649v-116.55c0 -61.0801 27.7002 -113.89 98.5098 -113.89c70.0898 0 95.8594 52.5303 95.8594 113.891z" />
    <glyph glyph-name="oslash" unicode="&#xf8;" horiz-adv-x="487" 
d="M383.8 551l-23.4883 -67.6895c57.6797 -33.5703 87.1895 -95.8506 87.1895 -174.921v-116.54c0 -97.0098 -51.79 -200.85 -202.7 -200.85c-19.4404 0 -37.29 1.71973 -53.6396 4.92969l-15.9404 -45.9297h-72.0596l24.2002 69.71
c-62.6699 37.3496 -87.9004 105.71 -87.9004 172.13v116.55c0 125.95 70.3096 202.32 206.449 202.32c17.9502 0 34.7305 -1.49023 50.3301 -4.37012l15.5 44.6602h72.0596zM146.302 308.391l0.000976562 -116.55c0 -26.1201 5.05957 -50.7197 16.3896 -70.3301
l104.31 300.56c-6.91992 1.30957 -14.3203 1.96973 -22.1904 1.96973c-67.54 0 -98.5098 -37.8799 -98.5098 -115.649zM340.673 191.841v116.54c0 29.4404 -5.33984 53.9307 -15.8398 72.6904l-104.38 -300.78c7.48047 -1.53027 15.5908 -2.33984 24.3604 -2.33984
c70.0898 0 95.8594 52.5195 95.8594 113.89z" />
    <glyph glyph-name="otilde" unicode="&#xf5;" horiz-adv-x="487" 
d="M114.71 592.03l-38.1904 51.0205c15.1396 16.0098 61.5498 58.8994 108.95 58.8994c48.9697 0 78.2002 -39.6602 119.22 -39.6602c30.8701 0 58.6104 30.4902 68.5605 40.8701l38.1104 -51.46c-12.1104 -11.25 -57.5801 -52.4102 -102.82 -52.4102
c-48.9697 0 -80.6094 38.7998 -123.93 38.7998c-29.75 0 -57.3604 -31.79 -69.9004 -46.0596zM39.4697 191.841l0.000976562 116.549c0 125.95 70.3096 202.32 206.449 202.32c132.79 0 201.6 -81.5996 201.6 -202.319v-116.55c0 -97 -51.7998 -200.84 -202.7 -200.84
c-150.09 0 -205.35 102.53 -205.35 200.84zM340.681 191.84l0.00195312 116.538c0 73.04 -32.8701 115.66 -95.8604 115.66c-67.5303 0 -98.5107 -37.8799 -98.5107 -115.649v-116.55c0 -61.0801 27.7002 -113.89 98.5098 -113.89
c70.0898 0 95.8594 52.5303 95.8594 113.891z" />
    <glyph glyph-name="oe" unicode="&#x153;" horiz-adv-x="770" 
d="M39.46 190.71l0.00195312 116.539c0 125.01 69.2695 202.319 205.34 202.319c93.5898 0 137.99 -42.0801 148.37 -74.0996c9.51953 32.4502 55.8096 73.2305 151.109 73.2305c131.35 0 191.989 -76.0703 191.989 -190.2v-107.82h-291.8v-53.7197
c0 -59.9102 43.7998 -87.4297 98.5801 -87.4297c37.2998 0 79.3994 13.4902 112.51 37.2998l58.7695 -47.6699c-38.7998 -41.3203 -96.2002 -69.1602 -180 -70.1602c-90.1504 0 -136.21 38.6602 -142.7 71.1006c-10.3799 -26.3896 -52.0703 -70.0996 -146.82 -70.0996
c-150.09 0 -205.35 102.4 -205.35 200.71zM636.242 279.049l-0.000976562 42.7305c0 76.0596 -43.25 103.109 -92.3896 103.109c-54.1299 0 -96.3496 -27.5098 -96.3496 -104.42v-41.4199h188.74zM340.661 187.689l0.0107422 119.569
c0 73.04 -32.8701 115.66 -95.8604 115.66c-67.54 0 -98.5098 -37.8799 -98.5098 -115.66v-116.54c0 -61.0898 27.7002 -113.899 98.5098 -113.899c68.79 0 95.8496 52.5303 95.8496 110.87z" />
    <glyph glyph-name="p" unicode="p" horiz-adv-x="504" 
d="M141.17 500.56l2.60059 -25.999c35.9004 22.5098 83.2607 33.8701 129.971 33.8701c94.9297 0 191.26 -47.1904 191.26 -173.99v-165.99c0 -132.53 -92.5303 -176.45 -182.82 -176.45c-41.1104 0 -84.1904 9.58984 -116.551 23.4297v-216.43h-106.84v701.56h82.3799z
M358.16 175.74l-0.0117188 159.58c-0.55957 58.4697 -35.9795 89.9199 -100.71 89.9199c-32.9697 0 -65.2598 -6.86035 -91.8193 -19.0703v-314.08c24.5 -9.83008 60.5303 -17.75 96.2305 -17.75c63.3203 0 96.3105 28.1201 96.3105 101.4z" />
    <glyph glyph-name="thorn" unicode="&#xfe;" horiz-adv-x="529" 
d="M167.79 698.9v-215.068c32.3701 14.0303 75.4502 23.9307 116.561 23.9307c90.29 -0.570312 182.82 -44.2207 182.82 -176.751v-163.42c0 -131.44 -94.8604 -174.591 -184.98 -175.591c-39.8203 0 -80.7305 8.2998 -114.4 24.7295v-200.73h-106.84v882.9h106.84z
M360.33 174.262l0.0117188 149.26c0 73.29 -32.9902 101.4 -96.3105 101.4c-35.7002 0 -71.7305 -7.91016 -96.2305 -17.7402v-313.55c27.0996 -12 60.5293 -19.04 94.0693 -19.04c64.6104 0 98.46 30.2695 98.46 99.6699z" />
    <glyph glyph-name="q" unicode="q" horiz-adv-x="499" 
d="M39.46 168.45l0.000976562 166.19c0 127.68 97.9902 173.979 191.25 173.979c46.7197 0 94.0801 -11.3604 129.98 -33.8701l2.59961 26h82.3799v-701.75h-106.84v216.62c-32.3604 -14.0303 -75.4404 -23.6201 -116.551 -23.6201c-90.29 0 -182.82 43.9199 -182.82 176.45
zM338.841 92.291l-0.0117188 314.08c-26.5596 12.2002 -58.8496 19.0605 -91.8193 19.0605c-64.7305 0 -100.15 -31.4502 -100.71 -89.9102v-159.58c0 -73.2803 32.9805 -101.4 96.3008 -101.4c35.7002 0 71.7305 7.91992 96.2402 17.75z" />
    <glyph glyph-name="r" unicode="r" horiz-adv-x="342" 
d="M136.17 507.24l4.41895 -61.3701c32.6299 47 76.3203 63.7598 136.53 63.7598c18.1201 0 35.54 -1.71973 51.79 -5.92969l-2.16992 -86.6504c-20.8701 4.73047 -39.3398 7.62012 -55.4395 7.62012c-6.84961 0 -13.2695 -0.519531 -19.2598 -1.64941
c-59.8701 -4.37988 -91.4902 -42.9502 -91.4902 -115.91v-307.11h-106.76v507.24h82.3799z" />
    <glyph glyph-name="racute" unicode="&#x155;" horiz-adv-x="342" 
d="M194.07 578.44h-71.7705l56.7002 121.56h99.8203zM136.17 507.24l4.41895 -61.3701c32.6299 47 76.3203 63.7598 136.53 63.7598c18.1201 0 35.54 -1.71973 51.79 -5.92969l-2.16992 -86.6504c-20.8701 4.73047 -39.3398 7.62012 -55.4395 7.62012
c-6.84961 0 -13.2695 -0.519531 -19.2598 -1.64941c-59.8701 -4.37988 -91.4902 -42.9502 -91.4902 -115.91v-307.11h-106.76v507.24h82.3799z" />
    <glyph glyph-name="rcaron" unicode="&#x159;" horiz-adv-x="342" 
d="M222.55 574.78h-98.9297l-123.62 141.86h86.6396l86.1396 -95.9004l84.1602 95.9004h86.8799zM136.17 507.24l4.41895 -61.3701c32.6299 47 76.3203 63.7598 136.53 63.7598c18.1201 0 35.54 -1.71973 51.79 -5.92969l-2.16992 -86.6504
c-20.8701 4.73047 -39.3398 7.62012 -55.4395 7.62012c-6.84961 0 -13.2695 -0.519531 -19.2598 -1.64941c-59.8701 -4.37988 -91.4902 -42.9502 -91.4902 -115.91v-307.11h-106.76v507.24h82.3799z" />
    <glyph glyph-name="rcommaaccent" unicode="&#x157;" horiz-adv-x="342" 
d="M136.17 507.24l4.41895 -61.3701c32.6299 47 76.3203 63.7598 136.53 63.7598c18.1201 0 35.54 -1.71973 51.79 -5.92969l-2.16992 -86.6504c-20.8701 4.73047 -39.3398 7.62012 -55.4395 7.62012c-6.84961 0 -13.2695 -0.519531 -19.2598 -1.64941
c-59.8701 -4.37988 -91.4902 -42.9502 -91.4902 -115.91v-307.11h-106.76v507.24h82.3799zM60.5391 -214l20.0596 60c-9.21973 7 -15.3096 18 -15.3096 31c0 21 18.1797 40 39.96 40s39.96 -19 39.96 -40c0 -7 -1.70996 -13 -4.7002 -19l-34.2197 -72h-45.75z" />
    <glyph glyph-name="s" unicode="s" horiz-adv-x="447" 
d="M30.1396 141.62l104.052 -0.000976562c3.95996 -35.4102 28.96 -66.4902 88.3799 -66.4902c52.4697 0 84.5596 28.2695 84.5596 66.3594c0 48.5703 -45.5098 60.3799 -104.729 75.2998c-85.0303 19.3604 -161.761 45.8701 -161.761 145.86
c0 82.75 53.1602 148.49 183.03 148.49c127.5 0 182.07 -64.5596 182.07 -148.899h-102.62c0.0800781 28.5996 -20.9199 62.1797 -78.9004 62.1797c-57.8203 0 -78.8906 -33.3896 -78.8906 -61.9395c0 -35.5898 33.4102 -52.2402 97.21 -67.2998
c102.09 -21.9004 172.39 -58.3203 172.39 -154c0 -78.0596 -53.7305 -152.18 -184.33 -152.18c-130.29 0 -198.3 62.4199 -200.46 152.62z" />
    <glyph glyph-name="sacute" unicode="&#x15b;" horiz-adv-x="447" 
d="M246.73 578.44h-71.7705l56.6904 121.56h99.8203zM30.1299 141.62l104.062 -0.000976562c3.9502 -35.4102 28.9502 -66.4902 88.3701 -66.4902c52.4697 0 84.5596 28.2695 84.5596 66.3594c0 48.5703 -45.5 60.3799 -104.72 75.2998
c-85.04 19.3604 -161.771 45.8701 -161.771 145.86c0 82.75 53.1602 148.49 183.04 148.49c127.5 0 182.07 -64.5596 182.07 -148.899h-102.63c0.0898438 28.5996 -20.9102 62.1797 -78.8906 62.1797c-57.8203 0 -78.9004 -33.3896 -78.9004 -61.9395
c0 -35.5898 33.4199 -52.2402 97.21 -67.2998c102.09 -21.9004 172.399 -58.3203 172.399 -154c0 -78.0596 -53.7305 -152.18 -184.33 -152.18c-130.3 0 -198.3 62.4199 -200.47 152.62z" />
    <glyph glyph-name="scaron" unicode="&#x161;" horiz-adv-x="447" 
d="M275.2 574.78h-98.9189l-123.66 141.86h86.6797l86.1396 -95.9004l84.1504 95.9004h86.8896zM30.1416 141.62l104.052 -0.000976562c3.95996 -35.4102 28.96 -66.4902 88.3799 -66.4902c52.4697 0 84.5596 28.2695 84.5596 66.3594
c0 48.5703 -45.5098 60.3799 -104.729 75.2998c-85.0303 19.3604 -161.761 45.8701 -161.761 145.86c0 82.75 53.1602 148.49 183.03 148.49c127.5 0 182.07 -64.5596 182.07 -148.899h-102.62c0.0800781 28.5996 -20.9199 62.1797 -78.9004 62.1797
c-57.8203 0 -78.8906 -33.3896 -78.8906 -61.9395c0 -35.5898 33.4102 -52.2402 97.21 -67.2998c102.09 -21.9004 172.39 -58.3203 172.39 -154c0 -78.0596 -53.7305 -152.18 -184.33 -152.18c-130.29 0 -198.3 62.4199 -200.46 152.62z" />
    <glyph glyph-name="scedilla" unicode="&#x15f;" horiz-adv-x="447" 
d="M30.1396 141.62l104.054 0.487305c3.95996 -35.4004 28.96 -66.4805 88.3799 -66.4805c52.4697 0 84.5596 28.2695 84.5596 66.3496c0 48.5801 -45.5098 60.3799 -104.729 75.2998c-85.0303 19.3701 -161.761 45.8701 -161.761 145.86
c0 82.7598 53.1602 148.49 183.03 148.49c127.5 0 182.07 -64.5498 182.07 -148.89h-102.62c0.0800781 28.5996 -20.9199 62.1797 -78.9004 62.1797c-57.8203 0 -78.9004 -33.3896 -78.9004 -61.9395c0 -35.5898 33.4199 -52.25 97.21 -67.3096
c102.09 -21.8896 172.399 -58.3193 172.399 -153.989c0 -59.75 -33.21 -115.61 -103.95 -138.69c-19.1104 -8 -41.8105 -12 -69.3701 -13l-22.2695 -32c11.5303 3.32031 24 5.26074 36.3701 5.26074c47.8896 0 90.4795 -26.04 90.4795 -85.2598
c0 -75 -66.7695 -99 -131.939 -99c-42.75 0 -84.9199 17 -114 29l19.1201 44c29.1299 -14 60.0703 -20 86.2705 -22c35.3096 -1 67.6494 14 67.6494 46c0 25.1904 -17.4902 40.0508 -45.4004 40.0508c-16.75 0 -36.4502 -2.34961 -64.4307 -15.04l-20.9502 20l47.7695 70
c-104.58 11.2002 -158.11 70.9102 -160.141 150.62z" />
    <glyph glyph-name="scommaaccent" unicode="&#x219;" horiz-adv-x="447" 
d="M30.1396 141.62l104.052 -0.0107422c3.95996 -35.4102 28.96 -66.4902 88.3799 -66.4902c52.4697 0 84.5596 28.2695 84.5596 66.3691c0 48.3896 -45.1299 60.2598 -104.16 75.1201c-85.2197 19.4297 -162.33 45.8701 -162.33 146.04
c0 82.75 53.1602 148.49 183.03 148.49c127.5 0 182.07 -64.5596 182.07 -148.899h-102.62c0.0800781 28.5996 -20.9199 62.1797 -78.9004 62.1797c-57.8203 0 -78.8906 -33.3896 -78.8906 -61.9395c0 -35.5898 33.4102 -52.2402 97.21 -67.2998
c102.09 -21.9004 172.39 -58.3203 172.39 -154c0 -78.0596 -53.7305 -152.18 -184.33 -152.18c-130.29 0 -198.3 62.4199 -200.46 152.62zM176.951 -214.011l20.0703 60c-9.23047 7 -15.3105 18 -15.3105 31c0 21 18.1699 40 39.9502 40s39.96 -19 39.96 -40
c0 -7 -1.70996 -13 -4.7002 -19l-34.2197 -72h-45.75z" />
    <glyph glyph-name="germandbls" unicode="&#xdf;" horiz-adv-x="567" 
d="M71.6299 0l-0.0117188 513.064c0 114.91 73.6299 196.351 213.07 196.351c141.29 0 208.94 -81.6797 208.94 -185.939c0 -80.6602 -49.1602 -117.96 -75.1104 -127.91c35.04 -10.8096 108.19 -61.1094 108.19 -171.459c0 -116.39 -88.71 -224.12 -226.67 -224.12
h-70.2803v98.9902h70.2803c68.2305 0 115.381 46.9805 115.381 124.671c0 75.5703 -51.9297 121.391 -113.12 122.601l-15.0098 0.0302734v98.0703l14.7803 0.0302734c39.3301 1.03027 80.2598 30.9102 80.2598 85.5c0 58.8203 -35.6699 80.5508 -98.4902 80.5508
c-66.1699 0 -100.92 -40.0098 -100.92 -91.46v-518.97h-111.29z" />
    <glyph glyph-name="t" unicode="t" horiz-adv-x="331" 
d="M162.79 501h113.561v-86.6699h-113.55v-215.42c0 -62.2197 19.5898 -103.18 69.5498 -117.479c11.8799 -3.37988 25.8701 -5.13965 42.3896 -5.13965c7.38965 0 15.2998 0.349609 23.7402 1.06934v-85.3604c-12.3896 -1 -24.9199 -1.75 -37.4102 -1.75
s-24.9502 0.75 -37.1904 2.75c-88.7598 11.2803 -167.93 63.8398 -167.93 187.28v442.22h106.84v-121.5z" />
    <glyph glyph-name="tbar" unicode="&#x167;" horiz-adv-x="331" 
d="M162.79 501l113.54 0.00195312v-86.6602h-113.54v-74.3604h113.54v-71.9102h-113.54v-69.1602c0 -60.9404 18.4297 -101.62 66.6895 -116.59c12.7803 -3.91016 27.96 -5.95996 45.9502 -5.95996c7.21973 0 14.8896 0.330078 23.04 1v-85.3604
c-10.8398 -0.830078 -21.7295 -1.32031 -32.5693 -1.32031c-15.3301 0 -30.5703 0.969727 -45.4102 3.31934c-86.75 12.1104 -164.54 64.3506 -164.54 186.28v441.93h106.84v-121.21z" />
    <glyph glyph-name="tcaron" unicode="&#x165;" horiz-adv-x="331" 
d="M222.31 602.47l28.8311 87.9805c-13.4805 10.9502 -22.2705 27.7305 -22.2705 46.25c0 32.96 27.4199 60.3896 60.3896 60.3896c32.96 0 60.3896 -27.4297 60.3896 -60.3896c0 -10.1602 -2.61035 -19.7803 -7.16992 -28.2402l-49.9199 -105.99h-70.25zM162.791 500.99
l113.551 -0.00195312v-86.6602h-113.54v-215.43c0 -62.2197 19.5898 -103.17 69.5498 -117.479c11.8799 -3.37012 25.8701 -5.13965 42.3799 -5.13965c7.40039 0 15.3008 0.360352 23.751 1.08008v-85.3701c-12.4004 -1 -24.9307 -1.75 -37.4209 -1.75
s-24.9404 0.75 -37.1904 2.75c-88.75 11.2803 -167.92 63.8398 -167.92 187.28v442.23h106.84v-121.51z" />
    <glyph glyph-name="tcedilla" unicode="&#x163;" horiz-adv-x="331" 
d="M162.79 501l113.551 0.000976562v-86.6699h-113.55v-215.42c0 -62.2197 19.5996 -103.18 69.5596 -117.479c11.8799 -3.37988 25.8701 -5.13965 42.3896 -5.13965c7.38965 0 15.29 0.349609 23.7402 1.06934v-85.3604c-12.4004 -1 -24.9307 -1.75 -37.4209 -1.75
s-24.9404 0.75 -37.1904 2.75c-13.2197 2 -26.0996 5 -38.4492 8.58008l-23.0596 -31.5801c13.9805 4 29.29 5 44.1602 5c44.75 -3 82.6904 -30 82.6904 -85c0 -75 -66.7695 -99 -131.939 -99c-42.75 0 -84.9199 17 -114 28l19.1201 44c29.1299 -13 60.0703 -20 86.2705 -22
c35.3096 -1 67.6494 14 67.6494 46c0 27 -18.6504 41 -48.1406 41c-16.1797 0 -35.2393 -4 -61.6992 -15l-20.9404 20l56.7998 83.0195c-51.4004 28.5098 -86.3809 80.7793 -86.3809 164.26v442.22h106.84v-121.5z" />
    <glyph glyph-name="uni021B" unicode="&#x21b;" horiz-adv-x="331" 
d="M162.79 501h113.56v-86.6699h-113.55v-215.42c0 -62.2197 19.5898 -103.18 69.5498 -117.479c11.8799 -3.37988 25.8701 -5.13965 42.3896 -5.13965c7.40039 0 15.3008 0.349609 23.7412 1.06934v-85.3604c-12.3896 -1 -24.9199 -1.75 -37.4102 -1.75
s-24.9502 0.75 -37.1904 2.75c-88.7598 11.2803 -167.93 63.8398 -167.93 187.28v442.22h106.84v-121.5zM131.359 -214l20.0713 60c-9.23047 7 -15.3105 18 -15.3105 31c0 21 18.1699 40 39.9502 40s39.96 -19 39.96 -40c0 -7 -1.7002 -13 -4.69043 -19l-34.2305 -72h-45.75
z" />
    <glyph glyph-name="u" unicode="u" 
d="M455.01 0l-82.3896 -0.00976562l-2.59961 26c-38.5703 -22.3799 -85.7803 -34 -131.391 -34c-96.29 0 -189.84 49.0498 -189.84 175.59v333.41h106.84v-326.54c0 -69.4004 33.8496 -99.6699 98.4697 -99.6699c33.5303 0 66.9707 7.0498 94.0703 19.04v407.18h106.84v-501
z" />
    <glyph glyph-name="uacute" unicode="&#xfa;" 
d="M277.11 578.44h-71.7705l56.6904 121.56h99.8203zM455 0l-82.3789 -0.00976562l-2.59961 26c-38.5703 -22.3799 -85.7803 -34 -131.4 -34c-96.29 0 -189.83 49.0498 -189.83 175.59v333.41h106.84v-326.54c0 -69.4004 33.8496 -99.6699 98.46 -99.6699
c33.54 0 66.9697 7.0498 94.0693 19.04v407.18h106.84v-501z" />
    <glyph glyph-name="ucaron" unicode="&#x1d4;" 
d="M305.58 574.78h-98.9189l-123.66 141.86h86.6797l86.1396 -95.9004l84.1504 95.9004h86.8896zM455.011 0l-82.3789 -0.00976562l-2.59961 26c-38.5703 -22.3799 -85.7803 -34 -131.4 -34c-96.29 0 -189.83 49.0498 -189.83 175.59v333.41h106.84v-326.54
c0 -69.4004 33.8496 -99.6699 98.46 -99.6699c33.54 0 66.9697 7.0498 94.0693 19.04v407.18h106.84v-501z" />
    <glyph glyph-name="ucircumflex" unicode="&#xfb;" 
d="M427.92 573.05h-86.8906l-84.1504 95.9004l-86.1396 -95.9004h-86.6797l123.66 141.86h98.9199zM455.01 -0l-82.3896 -0.00976562l-2.59961 26c-38.5703 -22.3799 -85.7803 -34 -131.391 -34c-96.29 0 -189.84 49.0498 -189.84 175.59v333.41h106.84v-326.54
c0 -69.4004 33.8496 -99.6699 98.4697 -99.6699c33.5303 0 66.9707 7.0498 94.0703 19.04v407.18h106.84v-501z" />
    <glyph glyph-name="udieresis" unicode="&#xfc;" 
d="M161.27 683.47c27.8604 0 49.6104 -21.75 49.6104 -51.3096c0 -28.4199 -21.75 -51.3096 -50.1797 -51.3096c-28.9902 0 -51.8799 22.8896 -51.8799 51.3096c0 29.5596 22.8896 51.3096 52.4492 51.3096zM356.079 683.47c27.8604 0 49.6104 -21.75 49.6104 -51.3096
c0 -28.4199 -21.75 -51.3096 -50.1699 -51.3096c-29 0 -51.8799 22.8896 -51.8799 51.3096c0 29.5596 22.8799 51.3096 52.4395 51.3096zM454.999 -0l-82.3789 -0.00976562l-2.59961 26c-38.5703 -22.3799 -85.7803 -34 -131.4 -34c-96.29 0 -189.83 49.0498 -189.83 175.59
v333.41h106.84v-326.54c0 -69.4004 33.8496 -99.6699 98.46 -99.6699c33.54 0 66.9697 7.0498 94.0693 19.04v407.18h106.84v-501z" />
    <glyph glyph-name="udieresisacute" unicode="&#x1d8;" 
d="M283.59 734.76h-71.7705l56.7002 121.55h99.8203zM161.26 683.47c27.8604 0 49.6104 -21.75 49.6104 -51.3096c0 -28.4199 -21.75 -51.3096 -50.1699 -51.3096c-29 0 -51.8799 22.8896 -51.8799 51.3096c0 29.5596 22.8799 51.3096 52.4395 51.3096zM356.08 683.47
c27.8604 0 49.6104 -21.75 49.6104 -51.3096c0 -28.4199 -21.75 -51.3096 -50.1797 -51.3096c-28.9902 0 -51.8799 22.8896 -51.8799 51.3096c0 29.5596 22.8896 51.3096 52.4492 51.3096zM455 -0l-82.3896 -0.00976562l-2.59961 26
c-38.5703 -22.3799 -85.7803 -34 -131.391 -34c-96.29 0 -189.84 49.0498 -189.84 175.59v333.41h106.84v-326.54c0 -69.4004 33.8496 -99.6699 98.4697 -99.6699c33.5303 0 66.9707 7.0498 94.0703 19.04v407.18h106.84v-501z" />
    <glyph glyph-name="udieresiscaron" unicode="&#x1da;" 
d="M305.58 720.99h-98.9189l-123.66 141.86h86.6797l86.1396 -95.9004l84.1504 95.9004h86.8896zM356.091 683.471c27.8604 0 49.6104 -21.75 49.6104 -51.3096c0 -28.4199 -21.75 -51.3096 -50.1699 -51.3096c-29 0 -51.8799 22.8896 -51.8799 51.3096
c0 29.5596 22.8799 51.3096 52.4395 51.3096zM161.281 683.471c27.8604 0 49.6104 -21.75 49.6104 -51.3096c0 -28.4199 -21.75 -51.3096 -50.1797 -51.3096c-28.9902 0 -51.8799 22.8896 -51.8799 51.3096c0 29.5596 22.8896 51.3096 52.4492 51.3096zM455.021 0.000976562
l-82.3896 -0.00976562l-2.59961 26c-38.5703 -22.3799 -85.7803 -34 -131.391 -34c-96.29 0 -189.84 49.0498 -189.84 175.59v333.41h106.84v-326.54c0 -69.4004 33.8496 -99.6699 98.4697 -99.6699c33.5303 0 66.9707 7.0498 94.0703 19.04v407.18h106.84v-501z" />
    <glyph glyph-name="udieresisgrave" unicode="&#x1dc;" 
d="M314.44 735.36h-71.7705l-84.75 121.56h99.8203zM155.02 685.74c27.8604 0 49.6201 -21.75 49.6201 -51.3096c0 -28.4199 -21.7598 -51.3096 -50.1797 -51.3096c-29 0 -51.8799 22.8896 -51.8799 51.3096c0 29.5596 22.8799 51.3096 52.4395 51.3096zM349.84 685.74
c27.8604 0 49.6104 -21.75 49.6104 -51.3096c0 -28.4199 -21.75 -51.3096 -50.1797 -51.3096c-28.9902 0 -51.8799 22.8896 -51.8799 51.3096c0 29.5596 22.8896 51.3096 52.4492 51.3096zM455 0l-82.3789 -0.00976562l-2.59961 26
c-38.5703 -22.3799 -85.7803 -34 -131.4 -34c-96.29 0 -189.83 49.0498 -189.83 175.59v333.41h106.84v-326.54c0 -69.4004 33.8496 -99.6699 98.46 -99.6699c33.54 0 66.9697 7.0498 94.0693 19.04v407.18h106.84v-501z" />
    <glyph glyph-name="udieresismacron" unicode="&#x1d6;" 
d="M378.39 734.85h-249.83v57.0098h249.83v-57.0098zM155.02 685.739c27.8604 0 49.6201 -21.75 49.6201 -51.3096c0 -28.4199 -21.7598 -51.3096 -50.1797 -51.3096c-29 0 -51.8799 22.8896 -51.8799 51.3096c0 29.5596 22.8799 51.3096 52.4395 51.3096zM349.84 685.739
c27.8604 0 49.6104 -21.75 49.6104 -51.3096c0 -28.4199 -21.75 -51.3096 -50.1797 -51.3096c-28.9902 0 -51.8799 22.8896 -51.8799 51.3096c0 29.5596 22.8896 51.3096 52.4492 51.3096zM455 -0.000976562l-82.3789 -0.00976562l-2.59961 26
c-38.5703 -22.3799 -85.7803 -34 -131.4 -34c-96.29 0 -189.83 49.0498 -189.83 175.59v333.41h106.84v-326.54c0 -69.4004 33.8496 -99.6699 98.46 -99.6699c33.54 0 66.9697 7.0498 94.0693 19.04v407.18h106.84v-501z" />
    <glyph glyph-name="ugrave" unicode="&#xf9;" 
d="M328.38 578.44h-71.7705l-84.6504 121.56h99.7305zM454.999 0l-82.3789 -0.00976562l-2.59961 26c-38.5703 -22.3799 -85.7803 -34 -131.4 -34c-96.29 0 -189.83 49.0498 -189.83 175.59v333.41h106.84v-326.54c0 -69.4004 33.8496 -99.6699 98.46 -99.6699
c33.54 0 66.9697 7.0498 94.0693 19.04v407.18h106.84v-501z" />
    <glyph glyph-name="uhungarumlaut" unicode="&#x171;" 
d="M201.42 577.31h-67.3896l51.5596 122.69h92.79zM349.12 577.31h-67.3896l51.5596 122.69h92.79zM455 -0l-82.3789 -0.00976562l-2.59961 26c-38.5703 -22.3799 -85.7803 -34 -131.4 -34c-96.29 0 -189.83 49.0498 -189.83 175.59v333.41h106.84v-326.54
c0 -69.4004 33.8496 -99.6699 98.46 -99.6699c33.54 0 66.9697 7.0498 94.0693 19.04v407.18h106.84v-501z" />
    <glyph glyph-name="umacron" unicode="&#x16b;" 
d="M377.03 599h-249.83v57.0195h249.83v-57.0195zM455.01 0l-82.3896 -0.00976562l-2.59961 26c-38.5703 -22.3799 -85.7803 -34 -131.391 -34c-96.29 0 -189.84 49.0498 -189.84 175.59v333.41h106.84v-326.54c0 -69.4004 33.8496 -99.6699 98.4697 -99.6699
c33.5303 0 66.9707 7.0498 94.0703 19.04v407.18h106.84v-501z" />
    <glyph glyph-name="uogonek" unicode="&#x173;" 
d="M455.01 -1l-23.3203 -3.01074c-51.2998 -46.0898 -59.7803 -79.0098 -59.7803 -101.029c0 -30.9502 20.4102 -45.0098 45.54 -45.0098c27.46 0 47.1299 17.7598 65.7002 44.04l42.5195 -17c-29.1602 -50 -72.8398 -80 -130.359 -80c-38.3096 0 -96.2393 18 -96.2393 87
c0 26 10.4697 66 73.5498 115l-2.59961 27c-38.5703 -22.3799 -85.7803 -34 -131.391 -34c-96.29 0 -189.84 49.0498 -189.84 175.59v333.41h106.84v-326.54c0 -69.4004 33.8496 -99.6699 98.4697 -99.6699c33.5303 0 66.9707 7.0498 94.0703 19.04v407.18h106.84v-502z" />
    <glyph glyph-name="uring" unicode="&#x16f;" 
d="M254.37 757.21c63.5996 0 118.85 -53.9092 118.85 -118.56c0 -63.3604 -54.54 -118.57 -118.85 -118.57c-64.3496 0 -118.859 55.8398 -118.859 118.57c0 64.0195 55.2197 118.56 118.859 118.56zM254.37 703.871c-36.3496 0 -65.3691 -28.5703 -65.3691 -65.2305
c0 -36.0195 29.1699 -65.6494 65.3701 -65.6494c35.7695 0 64.9395 29.6299 64.9395 65.6494c0 36.6602 -29.0303 65.2305 -64.9404 65.2305zM455.01 0.000976562l-82.3789 -0.00976562l-2.59961 26c-38.5703 -22.3799 -85.7803 -34 -131.4 -34
c-96.29 0 -189.83 49.0498 -189.83 175.59v333.41h106.84v-326.54c0 -69.4004 33.8496 -99.6699 98.46 -99.6699c33.54 0 66.9697 7.0498 94.0693 19.04v407.18h106.84v-501z" />
    <glyph glyph-name="v" unicode="v" horiz-adv-x="483" 
d="M302.18 0.0595703h-121.3l-167.23 500.88h108.74l118.93 -383.32l119.36 383.32h108.45z" />
    <glyph glyph-name="w" unicode="w" horiz-adv-x="724" 
d="M553.93 0.0595703h-112.8l-78.96 295.02l-78.5303 -295.02h-112.38l-157.61 500.88h111.76l101.53 -362.45l87.9199 362.45h94.1797l88.3604 -362.02l101.95 362.02h111.85z" />
    <glyph glyph-name="wacute" unicode="&#x1e83;" horiz-adv-x="724" 
d="M395.32 578.44h-71.7705l56.6904 121.56h99.8203zM553.93 0.0605469h-112.798l-78.9697 295.02l-78.5303 -295.02h-112.37l-157.62 500.88h111.77l101.52 -362.45l87.9297 362.45h94.1797l88.3496 -362.02l101.96 362.02h111.84z" />
    <glyph glyph-name="wcircumflex" unicode="&#x175;" horiz-adv-x="724" 
d="M536.23 573.05h-86.8906l-84.1602 95.9004l-86.1396 -95.9004h-86.6797l123.67 141.86h98.9199zM553.93 0.0595703h-112.8l-78.96 295.02l-78.5303 -295.02h-112.38l-157.61 500.88h111.76l101.53 -362.45l87.9199 362.45h94.1797l88.3604 -362.02l101.95 362.02h111.85z
" />
    <glyph glyph-name="wdieresis" unicode="&#x1e85;" horiz-adv-x="724" 
d="M269.58 683.47c27.8604 0 49.6104 -21.75 49.6104 -51.3096c0 -28.4199 -21.75 -51.3096 -50.1797 -51.3096c-28.9902 0 -51.8799 22.8896 -51.8799 51.3096c0 29.5596 22.8896 51.3096 52.4492 51.3096zM464.4 683.47c27.8604 0 49.6104 -21.75 49.6104 -51.3096
c0 -28.4199 -21.75 -51.3096 -50.1797 -51.3096c-28.9902 0 -51.8799 22.8896 -51.8799 51.3096c0 29.5596 22.8896 51.3096 52.4492 51.3096zM553.94 0.0498047h-112.798l-78.9697 295.02l-78.5303 -295.02h-112.37l-157.62 500.89h111.77l101.52 -362.46l87.9297 362.46
h94.1797l88.3496 -362.02l101.96 362.02h111.84z" />
    <glyph glyph-name="wgrave" unicode="&#x1e81;" horiz-adv-x="724" 
d="M412.82 578.44h-71.7695l-84.6504 121.56h99.7197zM553.931 0.0605469h-112.8l-78.96 295.02l-78.5303 -295.02h-112.38l-157.61 500.88h111.76l101.53 -362.45l87.9199 362.45h94.1797l88.3604 -362.02l101.95 362.02h111.85z" />
    <glyph glyph-name="x" unicode="x" horiz-adv-x="452" 
d="M296.21 249.98l141.439 -249.92h-113.79l-95.3301 174.93l-99.3896 -174.93h-115.5l149.72 251.04l-143.15 249.84h116.2l93.4404 -180.47l90.21 180.47h114.92z" />
    <glyph glyph-name="y" unicode="y" horiz-adv-x="508" 
d="M455.01 501l-0.00976562 -515.999c0 -120 -77.3701 -177 -177.01 -177c-62.0195 0 -126.409 19 -180.799 55l41.6396 60c36.4297 -22 77.8193 -36 118.079 -36c53.0898 0 89.3203 25 91.25 88v48.4902c-31.5 -14.9004 -75.4404 -23.4902 -117.421 -23.4902
c-93.2598 0.55957 -181.95 45.2998 -181.95 175.02v325.97h106.84v-321.35c0 -73.29 32.9805 -101.4 96.3008 -101.4c35.7002 0 71.7305 7.91016 96.2402 17.7402v405.02h106.84z" />
    <glyph glyph-name="yacute" unicode="&#xfd;" horiz-adv-x="508" 
d="M280.81 578.44h-71.7705l56.6904 121.56h99.8203zM454.999 501l-0.000976562 -515.999c0 -120 -77.3799 -177 -177.02 -177c-62.0098 0 -126.399 19 -180.8 55l41.6396 60c36.4404 -22 77.8203 -36 118.08 -36c53.0996 0 89.3301 25 91.25 88v48.4902
c-31.5 -14.9004 -75.4404 -23.4902 -117.41 -23.4902c-93.2598 0.55957 -181.96 45.2998 -181.96 175.02v325.97h106.84v-321.35c0 -73.29 32.9902 -101.4 96.3105 -101.4c35.7002 0 71.7305 7.91016 96.2305 17.7402v405.02h106.84z" />
    <glyph glyph-name="ycircumflex" unicode="&#x177;" horiz-adv-x="508" 
d="M431.62 573.05h-86.8906l-84.1504 95.9004l-86.1396 -95.9004h-86.6797l123.66 141.86h98.9199zM455.01 501l-0.00976562 -515.999c0 -120 -77.3701 -177 -177.01 -177c-62.0195 0 -126.409 19 -180.799 55l41.6396 60c36.4297 -22 77.8193 -36 118.079 -36
c53.0898 0 89.3203 25 91.25 88v48.4902c-31.5 -14.9004 -75.4404 -23.4902 -117.421 -23.4902c-93.2598 0.55957 -181.95 45.2998 -181.95 175.02v325.97h106.84v-321.35c0 -73.29 32.9805 -101.4 96.3008 -101.4c35.7002 0 71.7305 7.91016 96.2402 17.7402v405.02h106.84
z" />
    <glyph glyph-name="ydieresis" unicode="&#xff;" horiz-adv-x="508" 
d="M164.97 683.47c27.8604 0 49.6104 -21.75 49.6104 -51.3096c0 -28.4199 -21.75 -51.3096 -50.1797 -51.3096c-28.9902 0 -51.8799 22.8896 -51.8799 51.3096c0 29.5596 22.8896 51.3096 52.4492 51.3096zM359.779 683.47c27.8604 0 49.6104 -21.75 49.6104 -51.3096
c0 -28.4199 -21.75 -51.3096 -50.1699 -51.3096c-29 0 -51.8799 22.8896 -51.8799 51.3096c0 29.5596 22.8799 51.3096 52.4395 51.3096zM454.999 501l-0.000976562 -515.999c0 -120 -77.3799 -177 -177.02 -177c-62.0098 0 -126.399 19 -180.8 55l41.6396 60
c36.4404 -22 77.8203 -36 118.08 -36c53.0996 0 89.3301 25 91.25 88v48.4902c-31.5 -14.9004 -75.4404 -23.4902 -117.41 -23.4902c-93.2598 0.55957 -181.96 45.2998 -181.96 175.02v325.97h106.84v-321.35c0 -73.29 32.9902 -101.4 96.3105 -101.4
c35.7002 0 71.7305 7.91016 96.2305 17.7402v405.02h106.84z" />
    <glyph glyph-name="ygrave" unicode="&#x1ef3;" horiz-adv-x="508" 
d="M332.09 578.44h-71.7695l-84.6504 121.56h99.7197zM455 501l-0.000976562 -515.999c0 -120 -77.3799 -177 -177.02 -177c-62.0098 0 -126.399 19 -180.8 55l41.6396 60c36.4404 -22 77.8203 -36 118.08 -36c53.0996 0 89.3301 25 91.25 88v48.4902
c-31.5 -14.9004 -75.4404 -23.4902 -117.41 -23.4902c-93.2598 0.55957 -181.96 45.2998 -181.96 175.02v325.97h106.84v-321.35c0 -73.29 32.9902 -101.4 96.3105 -101.4c35.7002 0 71.7305 7.91016 96.2305 17.7402v405.02h106.84z" />
    <glyph glyph-name="z" unicode="z" horiz-adv-x="428" 
d="M389.37 437.71l-226.2 -351.05h232.57v-86.5996h-365.6v63.5801l226.08 350.7h-210.74v86.5996h343.89v-63.2305z" />
    <glyph glyph-name="zacute" unicode="&#x17a;" horiz-adv-x="428" 
d="M236.09 578.44h-71.7607l56.6904 121.56h99.8203zM389.369 437.71l-226.2 -351.05h232.57v-86.5996h-365.6v63.5801l226.08 350.7h-210.74v86.5996h343.89v-63.2305z" />
    <glyph glyph-name="zcaron" unicode="&#x17e;" horiz-adv-x="428" 
d="M272.94 574.78h-98.9199l-123.67 141.86h86.6797l86.1396 -95.9004l84.1602 95.9004h86.8799zM389.37 437.71l-226.2 -351.05h232.57v-86.5996h-365.6v63.5801l226.08 350.7h-210.74v86.5996h343.89v-63.2305z" />
    <glyph glyph-name="zdotaccent" unicode="&#x17c;" horiz-adv-x="428" 
d="M212.24 688.08c27.8604 0 49.6201 -21.75 49.6201 -51.3096c0 -28.4297 -21.7598 -51.3096 -50.1797 -51.3096c-29 0 -51.8799 22.8799 -51.8799 51.3096c0 29.5596 22.8799 51.3096 52.4395 51.3096zM389.37 437.71l-226.2 -351.05h232.57v-86.6104h-365.6v63.5801
l226.08 350.7h-210.74v86.6104h343.89v-63.2305z" />
    <glyph glyph-name="T_h" horiz-adv-x="1013" 
d="M665.42 700l0.00976562 -215.739c33.4805 16.2695 74.1309 24.4893 113.73 24.4893c91.04 0 185.64 -43.8096 185.64 -175.35v-333.41h-106.84v326.55c0 69.8301 -32.9805 100.1 -97.1709 100.1c-33.9697 0 -67.8398 -7.46973 -95.3701 -19.46v-407.18h-106.84v601.27
h-243.17v-601.27h-111.34v601.27h-173.93v98.7305h635.28z" />
    <glyph glyph-name="c_h" horiz-adv-x="959" 
d="M39.4697 196.05l0.000976562 108.861c0 128.06 72.4199 186.64 157.479 198.55c14.8398 2.58984 30 3.78027 45.0898 3.78027c18.5303 0 36.96 -1.79004 54.5596 -5.00977c-7.70996 15.2305 -12.0195 32.4502 -12.0195 50.8799c0 32.75 13.5996 69.3096 45.8301 105.279
c35.25 39.2002 85.8701 61.1201 140 61.1201c61.7598 0 110.09 -29.3398 140.87 -64.1602v-171.09c33.4902 16.2695 74.1406 24.4893 113.74 24.4893c91.04 0 185.64 -43.8096 185.64 -175.35v-333.41h-106.84v326.55c0 69.8301 -32.9805 100.1 -97.1709 100.1
c-33.9697 0 -67.8398 -7.46973 -95.3701 -19.46v-407.18h-106.84v624.43c-11.7803 4.7998 -24.6006 7.14941 -37.4307 7.14941c-25.9502 0 -51.9502 -9.61035 -69.5205 -27.9502c-20.6797 -19.2803 -32.1094 -46.5205 -32.1094 -75.9209
c0 -41.6104 27.4004 -70.1299 44.9404 -109.93l-85.4004 -33.6699c-21.0801 25.9502 -48.9004 39.0703 -80.9707 39.0703c-60.1797 0 -97.6396 -36.1602 -97.6396 -118.26v-108.88c0 -82.0996 37.46 -118.25 97.6396 -118.25c32.0703 0 59.8906 13.1104 80.9707 39.0605
l85.4004 -33.6699c-30.0195 -55.5303 -82.1191 -92.1904 -166.369 -92.1904c-128.29 0 -204.48 75.2803 -204.48 205.061z" />
    <glyph glyph-name="c_t" horiz-adv-x="776" 
d="M36.6299 196.39l-0.00878906 108.777c0 123.53 66.3203 192.851 180.94 202.461c24.0195 1.4502 49.6191 -0.30957 76.1787 -5.14941c-8.0498 15.6201 -12.3799 33.1299 -12.3799 51.6201c0 35.6299 16.0801 74.8994 52.5498 111.31
c34.9199 35.2598 82.8496 54.3496 133.659 54.3496c84.3896 0 120.83 -42.9902 140.87 -64.3799v-154.49h113.54v-86.6602h-113.54v-215.43c0 -63.8496 21.1201 -105.119 73.2998 -118.499c10.6904 -2.76953 23.1904 -4.22949 37.8604 -4.22949
c7.58008 0 15.7305 0.389648 24.5205 1.18945v-85.2598c-14.1797 -1.24023 -28.6699 -2.08984 -43.1602 -2.08984c-8.9502 0 -17.9004 0.320312 -26.7803 1.08984c-91.5 10.8896 -172.59 63.6992 -172.59 189.169v444.5c-12.1201 4.66992 -24.7305 6.90039 -37.1602 6.90039
c-25.7803 0 -50.7998 -9.58008 -69.2197 -26.8896c-20.6504 -19.3604 -33.1006 -46.7705 -33.1006 -76.6504c0 -41.6299 29.5801 -67.6895 45.3701 -109.899l-85.4004 -33.6699c-21.0801 25.9502 -48.9004 39.0703 -80.9707 39.0703
c-60.1797 0 -97.6396 -36.1602 -97.6396 -118.26v-108.88c0 -82.0996 37.46 -118.25 97.6396 -118.25c32.0703 0 59.8906 13.1104 80.9707 39.0605l85.4004 -33.6699c-30.0195 -55.5303 -82.1191 -91.54 -166.369 -91.54c-128.29 0 -204.48 74.6299 -204.48 204.399z" />
    <glyph glyph-name="f_b" horiz-adv-x="799" 
d="M55.9502 0l-0.000976562 540.401c0 118.52 81.4502 171.35 187.82 171.35c134.55 0 216.49 -55.9404 216.49 -55.9404v-170.68c32.2305 13.7002 75.0605 23.6299 116.001 23.6299c89.46 0 183.38 -43.1299 183.38 -176.66v-165.99
c0 -127.68 -97.9902 -174.12 -191.25 -174.12c-46.7197 0 -94.0801 11.4902 -129.98 34l-2.59961 -26h-82.3896v604.4c-34.2998 12.8896 -66.7197 19.9297 -103.3 19.9297c-43.8203 0 -87.1406 -21.1602 -87.3311 -95.7803v-27.54h113.54v-81.71h-113.54v-419.29h-106.84z
M652.799 165.241l-0.000976562 159.57c0 73.29 -32.9902 101.4 -96.3105 101.4c-35.7002 0 -71.7305 -7.91016 -96.2305 -17.7402v-314.09c26.5703 -12.2002 58.8506 -19.0605 91.8311 -19.0605c64.7305 0 100.141 31.46 100.711 89.9199z" />
    <glyph glyph-name="f_h" horiz-adv-x="808" 
d="M55.9502 0l-0.00292969 540.379c0 118.53 81.4502 171.36 187.82 171.36c134.55 0 216.49 -55.9404 216.49 -55.9404v-171.55c33.4805 16.2695 74.1309 24.5 113.741 24.5c91.0303 0 185.641 -43.8203 185.641 -175.351v-333.41h-106.84v326.54
c0 69.8301 -32.9805 100.11 -97.1709 100.11c-33.9697 0 -67.8398 -7.48047 -95.3701 -19.4707v-407.18h-106.84v604.4c-34.2998 12.9004 -66.7197 19.9307 -103.3 19.9307c-43.6396 0 -87.1094 -20.9697 -87.3291 -95.4893v-27.8301h113.54v-81.71h-113.54v-419.29h-106.84
z" />
    <glyph glyph-name="f_i" horiz-adv-x="514" 
d="M55.9502 0l0.0078125 540.39c0 118.53 81.4502 171.36 187.811 171.36c77.4502 0 138.34 -22.4902 163.07 -31.4307v-76.8096s-58.6797 20.8096 -139.609 20.8096c-58.0996 0 -103.88 -18.21 -104.439 -97.1797v-26.1396h297.47v-501h-106.84v419.29h-190.63v-419.29
h-106.84z" />
    <glyph glyph-name="f_j" horiz-adv-x="514" 
d="M55.9502 0l0.0078125 540.389c0 118.53 81.4502 171.36 187.811 171.36c77.4404 0 138.341 -22.4902 163.061 -31.4199v-76.8096s-58.6797 20.8096 -139.6 20.8096c-55.21 0 -103.08 -16.5195 -104.44 -93.1592v-30.1699h297.47v-538c0 -92 -62.2695 -136 -133.92 -149
c-15.2803 -3 -31.5 -5 -49.3496 -5l-1.2998 86c17.04 0 30.25 3 40.9805 8c32.6797 14 36.75 46 36.75 79v437.29h-190.63v-419.29h-106.84z" />
    <glyph glyph-name="f_k" horiz-adv-x="812" 
d="M58.79 0l0.00683594 540.389c0 118.53 81.4502 171.36 187.811 171.36c134.55 0 216.5 -55.9502 216.5 -55.9502v-338.39l175.99 190.53h127.5l-186.09 -209.56l218.12 -298.39h-119.46l-160.25 225.1l-55.8096 -54.3301v-170.76h-106.84v604.39
c-34.2998 12.9004 -66.7197 19.9404 -103.31 19.9404c-43.0195 0 -86.9893 -20.3301 -87.3291 -94.4805v-28.8496h113.54v-81.71h-113.54v-419.29h-106.84z" />
    <glyph glyph-name="f_l" horiz-adv-x="512" 
d="M55.9502 0l-0.000976562 540.39c0 118.53 81.4502 171.36 187.82 171.36c134.55 0 216.49 -55.9502 216.49 -55.9502v-655.81h-106.84v604.4c-34.2998 12.9004 -66.7197 19.9307 -103.3 19.9307c-43.5801 0 -87.0996 -20.9004 -87.3301 -95.3809v-27.9404h113.54v-81.71
h-113.54v-419.29h-106.84z" />
    <glyph glyph-name="s_p" horiz-adv-x="952" 
d="M27.8701 141.62l104.051 -0.0078125c3.95996 -35.4004 28.96 -66.4805 88.3799 -66.4805c52.4697 0 84.5596 28.2695 84.5596 66.3594c0 48.3799 -45.1201 60.25 -104.14 75.1104c-85.2305 19.4297 -162.351 45.8701 -162.351 146.05
c0 75.2695 44.7002 138.819 154.59 146.669c21.6104 1.2002 41.9404 -0.00976562 64.8301 -3.17969c-5.91016 15.3604 -8.98047 31.8799 -8.98047 48.8701c0 84.71 74.25 154.77 166.58 154.77c98.25 0 176.71 -80.8398 177.02 -176.41v-57.8398
c35.9004 22.5098 82.4307 32.8994 129.141 32.8994c94.9404 0 191.261 -47.1797 191.261 -173.989v-165.99c0 -132.53 -92.5303 -176.45 -182.82 -176.45c-41.1104 0 -84.1904 9.58984 -116.561 23.4297v-216.43h-106.85v734.37
c-0.349609 50.3799 -43.3193 89.75 -91.1895 89.75c-49.8203 0 -90.3604 -40.54 -90.3604 -90.3604c0 -21.2803 8.03027 -39.9707 20.7607 -53.3506c39.54 -26.7402 57.6904 -68.4404 57.6904 -117.16h-102.63c0.0898438 28.5996 -20.9102 62.1797 -78.8906 62.1797
c-57.8203 0 -78.9004 -33.4004 -78.9004 -61.9404c0 -35.5898 33.4102 -52.25 97.21 -67.3096c102.09 -21.8896 172.39 -58.3193 172.39 -153.989c0 -78.0596 -53.7305 -152.189 -184.33 -152.189c-130.29 0 -198.3 62.4199 -200.46 152.62zM805.98 175.742
l-0.000976562 159.57c-0.570312 58.4697 -35.9902 89.9199 -100.721 89.9199c-32.9697 0 -65.2598 -6.86035 -91.8193 -19.0605v-314.09c24.5 -9.83008 60.5303 -17.7402 96.2305 -17.7402c63.3203 0 96.3105 28.1104 96.3105 101.4z" />
    <glyph glyph-name="s_t" horiz-adv-x="757" 
d="M33.4004 141.82l104.032 -0.0195312c3.95996 -35.4102 28.96 -66.4902 88.3799 -66.4902c52.4697 0 84.5596 28.2695 84.5596 66.3594c0 48.5303 -45.4199 60.3506 -104.6 75.2607c-85.0703 19.3799 -161.891 45.8701 -161.891 145.91
c0 71.8896 41.2803 134.199 143.19 144.689c10.54 1.09961 20.46 1.61914 30.9697 1.61914c15.4004 0 32.0605 -1.11035 53.7109 -3.11035c-6.40039 14.1797 -9.98047 30.21 -9.98047 47.3096c0 34.3604 14.46 73.0605 49.4795 109.811
c35.1699 36.9199 84.2803 57.1699 136.53 57.1699c83.2598 0 130.359 -56.4697 140.739 -64.3896v-154.48h113.54v-86.6602h-113.54v-215.43c0 -65.3203 22.54 -106.82 76.7705 -119.301c9.62012 -2.30957 20.7998 -3.5293 33.8799 -3.5293
c7.66992 0 15.9902 0.419922 25.04 1.29004v-85.8496c-13.3604 -1.23047 -27.0801 -2.09082 -40.8701 -2.09082c-103.15 0 -201.65 52.1699 -201.65 190.85v444.51c-12.1699 5.28027 -25.2002 7.9502 -38.1904 7.9502c-21.6396 0 -43.1494 -7.42969 -60.2393 -22.6396
c-25.4199 -18.7402 -40.9297 -48.8701 -40.9297 -81.9502c0 -23.8799 7.2998 -44.0596 22.9199 -59.8994c29.0898 -27.8604 43.75 -64.6904 43.75 -106.271h-102.62c0.0800781 28.5996 -20.9199 62.1797 -78.9004 62.1797c-57.8203 0 -78.9004 -33.3896 -78.9004 -61.9297
c0 -35.5898 33.4199 -52.25 97.21 -67.3096c102.09 -21.8896 172.399 -58.3193 172.399 -153.989c0 -78.0596 -53.7305 -152.39 -184.33 -152.39c-130.29 0 -198.3 62.6201 -200.46 152.82z" />
    <glyph glyph-name="ordfeminine" unicode="&#xaa;" horiz-adv-x="336" 
d="M93.6602 577.89l-38.8389 40.8477c22.8896 25.4004 61.96 40.9707 107.45 40.9707c108.59 0 135.29 -63.5098 135.29 -138.1v-172.64h-57.0098l-1.48047 14.2402c-22.3301 -11.9502 -50.7803 -19.2002 -79.0801 -19.2002
c-63.3799 0.870117 -121.34 27.1797 -121.34 101.449c0 77.1602 65.9297 96.2402 128.26 96.2402c18.0898 0 42.3994 -2.76953 62.2695 -5.67969c-3.08984 39.7305 -16.5898 62.5508 -68.9697 62.5508c-22.3301 0 -46.9404 -4.34961 -66.5508 -20.6797zM230.491 416.047
l-0.00976562 73.0205c-11.6797 1.2998 -35.3301 6.79004 -52.9404 6.79004c-35.3496 0 -71.3799 -8.26953 -71.3799 -46.6699c0 -37.1104 29.9805 -47.1104 65.9609 -47.1104c22.5596 0 47.1191 8.34961 58.3691 13.9697z" />
    <glyph glyph-name="ordmasculine" unicode="&#xba;" horiz-adv-x="329" 
d="M38.6504 469.27v65.2109c0 68.6201 38.7002 125.51 126.47 125.51c87.2998 0 125.21 -58.9902 125.21 -125.721v-65.21c0 -61.6602 -34.8496 -125.09 -126.05 -125.09c-90.3301 0 -125.63 63.7598 -125.63 125.3zM218.44 466v71.3506
c0 32.8799 -17.25 58.9297 -53.3604 58.9297c-36.9697 0 -54.0996 -24.4199 -54.0996 -58.75v-71.3496c0 -28.9902 14.2197 -58.5 53.3496 -58.5c39.5703 0 54.1104 29.1797 54.1104 58.3193z" />
    <glyph glyph-name="uni0419" unicode="&#x419;" horiz-adv-x="638" 
d="M416.5 918.73h49.3711c0 -81.29 -63.9404 -138.43 -147.61 -138.43c-83.6602 0 -147.61 57.1396 -147.61 138.43h49.3701c3.96973 -50.9004 48.4795 -80.9805 98.2393 -80.9805c49.3301 0 94.2705 30.0801 98.2402 80.9805zM568.861 0h-111.32v476.96l-272.32 -476.96
h-116.43v700h111.34v-488l277.94 488h110.79v-700z" />
    <glyph glyph-name="uni0410" unicode="&#x410;" horiz-adv-x="622" 
d="M599.68 0h-116.21l-62.6201 200.13h-219.38l-63.0498 -200.13h-115.44l233.65 700h109.05zM227.8 298.86h166.721l-83.3604 266.14z" />
    <glyph glyph-name="uni0411" unicode="&#x411;" horiz-adv-x="600" 
d="M508.76 600.78l-323.49 -0.000976562v-195.59h185.12c117.52 0 185.329 -66.5801 185.329 -202.6c0 -136.01 -67.8096 -202.59 -185.329 -202.59h-296.54v700.05h434.91v-99.2695zM185.189 306.77v-208.37h159.6c64.6396 0 99.79 35.7803 99.79 104.19
s-35.1504 104.18 -99.79 104.18h-159.6z" />
    <glyph glyph-name="uni0412" unicode="&#x412;" horiz-adv-x="600" 
d="M73.79 700.05l280.892 0.000976562c117.81 0 184.51 -84.9297 184.51 -182.42c0 -79.3604 -28.0801 -135.4 -80.1201 -164.801c62.9297 -28.2998 96.9893 -90.6201 96.9893 -159.851c0 -123.67 -68.2002 -192.979 -185.73 -192.979h-296.54v700.05zM185.252 601.211
l-0.000976562 -201.459h142.79c64.6504 0 99.79 35.7695 99.79 104.18c0 53.3496 -34.5195 97.2793 -98.5293 97.2793h-144.05zM185.141 299.872v-201.459h159.6c64.6504 0 99.79 35.7695 99.79 104.18c0 53.3496 -34.5195 97.2793 -98.5293 97.2793h-160.86z" />
    <glyph glyph-name="uni0413" unicode="&#x413;" horiz-adv-x="527" 
d="M508.7 600.78h-323.49v-600.78h-111.42v700.05h434.91v-99.2695z" />
    <glyph glyph-name="uni0414" unicode="&#x414;" horiz-adv-x="716" 
d="M601.81 97.0596h80.7803v-246.06h-103.54v149.32h-441.43v-149.32h-103.54v246.06h70.5996c30.6201 25.1504 48.8896 64.1201 48.8896 115.26v488h448.24v-603.26zM264.91 601.529v-387.54c0 -48.0898 -11.4697 -87.0195 -31.9502 -116.93h257.4v504.47h-225.45z" />
    <glyph glyph-name="uni0415" unicode="&#x415;" horiz-adv-x="562" 
d="M519.13 601.27l-334 0.000976562v-202.35h308.4v-98.7305h-308.4v-201.46h339.3v-98.7305h-450.64v700h445.34v-98.7305z" />
    <glyph glyph-name="uni0416" unicode="&#x416;" horiz-adv-x="980" 
d="M661.72 370.32l295.29 -370.32h-129.95l-281.36 364.78v-364.78h-111.42v364.78l-281.36 -364.78h-129.95l295.29 370.32l-254.83 329.68h126.45l244.4 -332.63v332.63h111.42v-332.63l244.41 332.63h126.44z" />
    <glyph glyph-name="uni0417" unicode="&#x417;" horiz-adv-x="518" 
d="M147.19 549.24l-94.2734 38.7012c20.3896 49.8896 84.0996 123.319 186.909 123.319c111.19 0 203.881 -74.7002 203.881 -194.13c0 -75.7002 -47.5596 -124.32 -87.6992 -146.19c50.3604 -23.2998 108.12 -79.5693 108.12 -169.869
c0 -135.02 -98.9199 -212.079 -224.729 -212.079c-107.74 0 -174.681 60.9805 -203.57 105.79l82.8604 53.8896c23.2305 -35.8896 68.9209 -61.2998 120.711 -61.2998c66.3604 0 116.83 50.04 116.83 115.97c0 64.6396 -57.5703 119.33 -127.34 119.33h-47.6602v89.0596
h47.6602c60.4004 0 109.141 44.5596 109.141 100.869c0 57.1699 -41.9004 100.36 -98.21 100.36c-54.0303 0 -83.1104 -40.3604 -92.6299 -63.7207z" />
    <glyph glyph-name="uni0418" unicode="&#x418;" horiz-adv-x="638" 
d="M568.86 0h-111.32v476.96l-272.32 -476.96h-116.43v700h111.34v-488l277.94 488h110.79v-700z" />
    <glyph glyph-name="uni041A" unicode="&#x41a;" horiz-adv-x="626" 
d="M301.23 370.32l295.29 -370.32h-129.95l-281.36 364.78v-364.78h-111.43v700h111.43v-332.63l244.4 332.63h126.45z" />
    <glyph glyph-name="uni041B" unicode="&#x41b;" horiz-adv-x="658" 
d="M596.14 0h-111.451v601.21h-225.46v-399.65c0 -146.43 -95.2695 -211.56 -230.819 -211.56v97.1299c61.5303 0 119.471 27.7402 119.471 112.76v500.11h448.26v-700z" />
    <glyph glyph-name="uni041C" unicode="&#x41c;" horiz-adv-x="750" 
d="M678.64 0h-110.459v445.73l-153.32 -392.95h-80.9805l-152.46 392.95v-445.73h-110.46v700h112.85l190.99 -483.28l190.99 483.28h112.85v-700z" />
    <glyph glyph-name="uni041D" unicode="&#x41d;" horiz-adv-x="646" 
d="M572.73 0h-111.34v300.19h-276.26v-300.19h-111.34v700h111.34v-301.08h276.26v301.08h111.34v-700z" />
    <glyph glyph-name="uni041E" unicode="&#x41e;" horiz-adv-x="618" 
d="M59.46 219.71l0.000976562 252.51c0 160.21 103.6 242.29 251.229 242.29c159.08 0 247.71 -98.1104 247.71 -243.17v-251.63c0 -172.36 -135.23 -230.71 -248.591 -230.71c-112.22 0 -250.35 58.0596 -250.35 230.71zM447.061 219.71l-0.000976562 251.63
c0 94.0098 -45.9805 144.439 -136.36 144.439c-88.6396 0 -139.899 -42.6797 -139.899 -143.56v-252.51c0 -99.5098 67.7803 -132.08 139.011 -132.08c71.8496 0 137.25 32.2598 137.25 132.08z" />
    <glyph glyph-name="uni041F" unicode="&#x41f;" horiz-adv-x="646" 
d="M572.73 0h-111.45v601.21h-276.07v-601.21h-111.42v700h498.94v-700z" />
    <glyph glyph-name="uni0420" unicode="&#x420;" horiz-adv-x="598" 
d="M73.79 700h260.01c141.26 0 218.38 -99.9102 218.38 -209.41c0 -137.77 -80.5996 -219.75 -220.149 -219.68h-146.9v-270.91h-111.34v700zM185.13 601.28l-0.00195312 -231.35h145.62c74.2305 0 114.591 41.0801 114.591 119.64
c0 61.2598 -39.6396 111.71 -113.149 111.71h-147.06z" />
    <glyph glyph-name="uni0421" unicode="&#x421;" horiz-adv-x="563" 
d="M59.46 231.85v241.153c0 160.21 105.48 242.28 248.95 242.28c109.73 0 184.561 -51.1201 217.33 -131.86l-81.4297 -37.75c-22.5498 46.25 -70.6797 70.8896 -127.279 70.8896c-83.1904 0 -146.221 -47.3301 -146.221 -143.561v-241.15
c0 -96.2305 63.0303 -143.561 146.221 -143.561c56.5996 0 104.729 24.6396 127.279 70.8896l81.4297 -37.75c-32.7695 -80.7402 -107.6 -131.431 -217.33 -131.431c-143.47 0 -248.95 81.6396 -248.95 241.85z" />
    <glyph glyph-name="uni0422" unicode="&#x422;" horiz-adv-x="530" 
d="M495.53 601.27h-180.109v-601.27h-111.34v601.27h-173.94v98.7305h465.39v-98.7305z" />
    <glyph glyph-name="uni0423" unicode="&#x423;" horiz-adv-x="629" 
d="M588.17 700l-253.311 -592.98c-28.04 -65.7197 -75.5703 -120.02 -158.2 -120.02h-78.4004v98.2998h58.54c51.4004 0 79.2607 31.5703 97.251 77.2705l18.5801 44.8896l-227.35 492.54h115.72l163.22 -368.64l150.04 368.64h113.91z" />
    <glyph glyph-name="uni0424" unicode="&#x424;" horiz-adv-x="771" 
d="M441.06 632.91h24.46c141.4 0 248.631 -69.4502 248.631 -282.91c0 -213.96 -107.29 -282.979 -249.67 -283.069h-23.4199v-66.9297h-111.41v67.0195h-23.4004c-144.05 0 -249.62 69.8799 -249.62 282.979c0 214.07 107.89 282.96 249.96 283.06h23.1299v66.9404h111.34
v-67.0898zM441.14 165.95l23.4004 -0.000976562c91.9199 1.87012 138.27 42.5205 138.27 184.051c0 141.57 -45.8301 182.311 -138.26 184.33h-23.4102v-368.38zM329.65 534.339l-22.8301 0.000976562c-92.9004 -1.83008 -138.851 -42.46 -138.851 -184.34
c0 -141.86 46.4805 -182.391 138.9 -184.221h22.7803v368.56z" />
    <glyph glyph-name="uni0425" unicode="&#x425;" horiz-adv-x="641" 
d="M397.33 362.33l220.47 -362.33h-130.05l-167.54 275.64l-166.01 -275.64h-131.22l221.49 362.37l-204.66 337.63h128.35l151.87 -266.37l151.87 266.37h130.12z" />
    <glyph glyph-name="uni0427" unicode="&#x427;" horiz-adv-x="613" 
d="M163.01 700.56v-254.16c0 -61.5498 34.04 -89.0596 93.5303 -89.0596c43.4102 0 149.91 17.3096 171.57 21.2998v321.35h111.05v-700h-111.05v280.13c-52.0195 -7.37012 -147.27 -24.6201 -206.189 -24.6201c-98.9404 0 -170.971 61.3701 -170.971 163.11v281.95h112.06z
" />
    <glyph glyph-name="uni0426" unicode="&#x426;" horiz-adv-x="689" 
d="M572.25 96.4805h83.1895v-246.48h-103.54v150h-478.59v699.74h111.45v-601.22h276.07v601.22h111.42v-603.26z" />
    <glyph glyph-name="uni0428" unicode="&#x428;" horiz-adv-x="946" 
d="M872.34 0h-798.41v699.84h111.45v-601.21h232.04v601.21h111.45v-601.21h232.05v601.21h111.42v-699.84z" />
    <glyph glyph-name="uni0429" unicode="&#x429;" horiz-adv-x="989" 
d="M872.34 96.5898h83.2002v-246.59h-103.54v150h-778.07v699.84h111.45v-601.21h232.04v601.21h111.45v-601.21h232.05v601.21h111.42v-603.25z" />
    <glyph glyph-name="uni042F" unicode="&#x42f;" horiz-adv-x="603" 
d="M530.12 0l-111.351 0.000976562v277.97h-90.8701l-165.55 -277.97h-129.43l182.41 293.93l-23.5801 2.37988c-90.2197 22.1904 -140.029 91.1104 -140.029 197.62c0 107.8 77.1201 206.069 218.39 206.069h260.01v-700zM418.77 601.271h-147.062
c-73.5195 0.0703125 -113.159 -48.7998 -113.159 -108.14c0 -76.1104 40.3701 -116.15 114.601 -116.15h145.62v224.29z" />
    <glyph glyph-name="uni042C" unicode="&#x42c;" horiz-adv-x="594" 
d="M185.3 405.19h185.09c117.52 0 185.329 -66.5801 185.329 -202.6s-67.8096 -202.59 -185.329 -202.59h-296.54v700.02h111.45v-294.83zM185.189 306.771v-208.37h159.59c64.6504 0 99.8008 35.7803 99.8008 104.19s-35.1504 104.18 -99.8008 104.18h-159.59z" />
    <glyph glyph-name="uni042A" unicode="&#x42a;" horiz-adv-x="669" 
d="M261 405.19l185.09 -0.000976562c117.52 0 185.329 -66.5801 185.329 -202.6s-67.8096 -202.59 -185.329 -202.59h-296.54v603.29h-143.88v96.7305h255.33v-294.83zM260.89 306.77v-208.37h159.6c64.6396 0 99.79 35.7803 99.79 104.19s-35.1504 104.18 -99.79 104.18
h-159.6z" />
    <glyph glyph-name="uni042B" unicode="&#x42b;" horiz-adv-x="841" 
d="M185.24 405.19h185.09c117.53 0 185.33 -66.5801 185.33 -202.6s-67.7998 -202.59 -185.33 -202.59h-296.54v700.01h111.45v-294.82zM767.73 0h-111.07v700.01h111.07v-700.01zM185.141 306.77v-208.37h159.59c64.6504 0 99.8008 35.7803 99.8008 104.19
s-35.1504 104.18 -99.8008 104.18h-159.59z" />
    <glyph glyph-name="uni042D" unicode="&#x42d;" horiz-adv-x="563" 
d="M119.4 544.74l-81.4209 37.748c32.7598 80.7305 107.59 131.851 217.32 131.851c143.46 0 248.94 -82.0703 248.94 -242.28v-241.15c0 -160.2 -105.48 -242.91 -248.94 -242.91c-109.73 0 -184.561 51.7598 -217.32 132.49l81.4199 37.7402
c22.5498 -46.2402 70.6699 -70.8799 127.28 -70.8799c83.1904 0 146.221 47.3301 146.221 143.561v76.4902h-225.03v88.1699h225.03v76.4902c0 96.2305 -63.0303 143.561 -146.23 143.561c-56.5996 0 -104.72 -24.6396 -127.27 -70.8799z" />
    <glyph glyph-name="uni042E" unicode="&#x42e;" horiz-adv-x="872" 
d="M313.86 399.14v71.4814c0 160.2 103.61 242.28 251.24 242.28c159.08 0 247.71 -98.1104 247.71 -243.17v-251.63c0 -172.36 -135.24 -231.101 -248.601 -231.101c-112.22 0 -250.35 58.46 -250.35 231.1v82.3096h-129.1v-300.41h-110.97v700h110.97v-300.86h129.1z
M701.46 218.102l0.00976562 251.64c0 94.0098 -45.9805 144.439 -136.36 144.439c-88.6396 0 -139.899 -42.6797 -139.899 -143.56v-252.52c0 -99.5 67.7695 -132.07 139.01 -132.07c71.8398 0 137.24 32.25 137.24 132.07z" />
    <glyph glyph-name="uni0430" unicode="&#x430;" horiz-adv-x="490" 
d="M114.91 392.35l-53.75 51.8701c34.4805 35.04 87.0908 65.2002 167.61 65.2002c171.95 0 212.42 -97.5498 212.42 -208.81v-301.6h-82.3896l-2.59961 25.7002c-35.9004 -22.5098 -83.2607 -33.71 -129.971 -33.71c-99.9297 1 -191.1 46.5098 -191.1 172.68
c0 132.27 103.6 164.369 202.159 164.369c31.2402 0 65.4102 -3.61035 97.0703 -8.25c-0.889648 56.3203 -21.1201 103.12 -115.49 103.12c-38.7598 0 -74.2197 -11.2305 -103.96 -30.5703zM334.351 95.4297l-0.00976562 151.541
c-26.5996 3.46973 -54.3594 6.35938 -80.3896 6.35938c-65.3496 0 -120.3 -17.9297 -120.3 -89.6494c0 -68.25 49.7402 -89.6504 111.05 -89.6504c31.8096 0 64.7793 8.09961 89.6494 21.3994z" />
    <glyph glyph-name="uni0431" unicode="&#x431;" horiz-adv-x="529" 
d="M410.77 699.99l0.000976562 -88.3291c-75.3701 -3.94043 -158.99 -6.86035 -210.971 -39.25c-43.46 -25.2998 -70.1797 -58.25 -74.71 -137.64c28.0498 40.8203 73.1797 63.6699 136.75 63.6699c119.61 0 185.67 -84.3701 185.67 -202.32v-106.97
c0 -96.9902 -51.8301 -201.15 -202.7 -201.15c-150.08 0 -205.34 102.84 -205.33 201.149v118.46c0.240234 188.68 6.4502 270.27 90.4004 333.02c63.8896 50.6904 196.02 54.9902 280.89 59.3604zM340.671 189.151l0.00976562 106.97
c0 73.04 -32.8701 115.66 -95.8604 115.66c-67.5898 0 -98.5098 -37.8398 -98.5098 -115.66v-106.97c0 -61.0898 27.6904 -113.899 98.5 -113.899c70.1299 0 95.8604 52.5098 95.8604 113.899z" />
    <glyph glyph-name="uni0432" unicode="&#x432;" horiz-adv-x="493" 
d="M55.9502 500.42h223.66c79.6602 0 157.2 -42.1904 157.2 -130.631c0 -89 -68.3496 -113.67 -68.3496 -113.67s79.46 -25 79.46 -117.31c0 -100.06 -77.8604 -138.81 -151.94 -138.81h-240.03v500.42zM162.57 289.39l101.05 0.0107422
c43.3799 0 70.6299 21.7695 70.6299 64.9395c0 40.5498 -27.1201 63.6699 -70.4102 63.6699h-101.27v-128.62zM162.561 82.96h109.511c28.0098 0 72.4697 12.8496 72.4697 69.1396c0 53.5 -44.4102 68.3701 -72.2402 68.3701h-109.74v-137.51z" />
    <glyph glyph-name="uni0433" unicode="&#x433;" horiz-adv-x="410" 
d="M382.52 417.76h-219.73v-417.76h-106.84v500.88h326.57v-83.1201z" />
    <glyph glyph-name="uni0434" unicode="&#x434;" horiz-adv-x="607" 
d="M507.85 83.6299h73.041v-199.63h-97.7803v116.33h-358.85v-116.33h-97.7803v200.87c35.8301 0 57.4297 2.38965 76.46 17.0996c16.9297 12.9102 26.0996 33.2002 26.0996 62.1904v336.79h378.81v-417.32zM235.881 417.83v-248.32
c0 -39.04 -10.3701 -66.0996 -24.4805 -85.8799h189.62v334.2h-165.14z" />
    <glyph glyph-name="uni0435" unicode="&#x435;" horiz-adv-x="469" 
d="M39.46 170.21l0.00976562 148.117c0 118.98 73.8203 191.511 204.771 191.511c130.55 0 190.84 -76.4102 190.84 -190.21v-107.81h-291.81v-53.7197c0 -59.9199 43.7998 -87.4297 98.5801 -87.4297c37.29 0 79.3896 13.4805 112.5 37.3008l58.7695 -47.6699
c-38.79 -41.3301 -96.1904 -69.2998 -179.99 -70.2998c-134.51 0 -193.67 81.9004 -193.67 180.21zM335.05 280.177v42.7197c0 76.0703 -43.25 103.12 -92.4004 103.12c-54.1299 0 -96.3496 -27.5098 -96.3496 -104.42v-41.4199h188.75z" />
    <glyph glyph-name="uni0436" unicode="&#x436;" horiz-adv-x="812" 
d="M456.94 263.52l199.263 237.36h118.56l-209.98 -236.24l225.09 -264.17h-121.16l-211.78 259.51v-259.68h-101.84v259.68l-211.77 -259.51h-121.16l225.09 264.17l-209.98 236.24h118.56l199.27 -237.36v238.31h101.84v-238.31z" />
    <glyph glyph-name="uni0437" unicode="&#x437;" horiz-adv-x="464" 
d="M127.19 385.11l-85.3867 33.6182c30.0098 55.5303 80.6797 92.0605 177.97 92.0605c108.88 0 196.939 -41.0996 196.939 -134.449c0 -68.2197 -53.1504 -101.72 -74.71 -114.01c24.96 -11.7598 84.6602 -44.7402 84.6602 -120.67
c0 -100.04 -107.23 -150.67 -214.601 -150.67c-93.2402 0 -150.09 29.9502 -177.59 85.3906l84.0996 34.1104c19.3496 -21.1904 56.6592 -32.5605 87.4492 -32.6006c43.2197 0 113.8 14.71 113.8 71.9004c0 54.6699 -46.7598 71.8799 -90.54 71.8799h-60.7803v69.1504
h59.7197c48.7803 0 81.6504 25.0996 81.6504 68.1592c0 43.0703 -36.2402 65.2002 -96.9199 65.2002c-35.1104 0 -64.6807 -13.1201 -85.7607 -39.0703z" />
    <glyph glyph-name="uni0438" unicode="&#x438;" horiz-adv-x="511" 
d="M455.58 0h-101.09v310.07l-191.3 -310.07h-107.24v500.88h101.09v-308.52l191.74 308.52h106.8v-500.88z" />
    <glyph glyph-name="uni0439" unicode="&#x439;" horiz-adv-x="511" 
d="M357.18 708.13h49.3711c0 -81.29 -63.9404 -138.43 -147.61 -138.43s-147.61 57.1396 -147.61 138.43h49.3701c3.96973 -50.9004 48.4795 -80.9805 98.2393 -80.9805c49.3203 0 94.2705 30.0801 98.2402 80.9805zM455.581 -0h-101.08v310.07l-191.3 -310.07h-107.24
v500.88h101.08v-308.52l191.74 308.52h106.8v-500.88z" />
    <glyph glyph-name="uni043A" unicode="&#x43a;" horiz-adv-x="513" 
d="M157.79 263.22l199.261 237.369h118.56l-209.98 -236.24l225.09 -264.18h-121.16l-211.77 259.51v-259.68h-101.84v501.53h101.84v-238.31z" />
    <glyph glyph-name="uni043B" unicode="&#x43b;" horiz-adv-x="562" 
d="M506.25 0l-106.819 0.000976562v417.76h-165.14v-253.26c0 -68.8701 -25.3701 -113.9 -65.4102 -141.49c-33.8799 -22.6904 -80.7803 -35.0205 -133.73 -35.0205v91.8604c23.1104 0 46.9004 3.33984 64.6406 16.2197c17.8896 12.8096 27.6494 33.2998 27.6494 63.0693
v341.74h378.81v-500.88z" />
    <glyph glyph-name="uni043C" unicode="&#x43c;" horiz-adv-x="636" 
d="M580.9 0h-101.08v304.04l-118.8 -304.04h-85.1699l-118.8 304.04v-304.04h-101.09v502.18h107.13l155.34 -396.03l155.34 396.03h107.13v-502.18z" />
    <glyph glyph-name="uni043D" unicode="&#x43d;" horiz-adv-x="511" 
d="M455.58 0h-106.84v209.53h-185.95v-209.53h-106.84v502.18h106.84v-209.53h185.95v209.53h106.84v-502.18z" />
    <glyph glyph-name="uni043E" unicode="&#x43e;" horiz-adv-x="487" 
d="M39.46 191.84l0.000976562 116.549c0 125.95 70.3096 202.32 206.449 202.32c132.79 0 201.6 -81.5996 201.6 -202.319v-116.55c0 -97 -51.7998 -200.84 -202.7 -200.84c-150.09 0 -205.35 102.53 -205.35 200.84zM340.671 191.839l0.00195312 116.538
c0 73.04 -32.8701 115.66 -95.8604 115.66c-67.5303 0 -98.5107 -37.8799 -98.5107 -115.649v-116.55c0 -61.0801 27.7002 -113.89 98.5098 -113.89c70.0898 0 95.8594 52.5303 95.8594 113.891z" />
    <glyph glyph-name="uni043F" unicode="&#x43f;" horiz-adv-x="511" 
d="M455.58 0h-106.84v417.76h-185.95v-417.76h-106.84v500.88h399.63v-500.88z" />
    <glyph glyph-name="uni0440" unicode="&#x440;" horiz-adv-x="504" 
d="M141.17 500.56l2.60059 -25.999c35.9004 22.5098 83.2607 33.8701 129.971 33.8701c94.9297 0 191.26 -47.1904 191.26 -173.99v-165.99c0 -132.53 -92.5303 -176.45 -182.82 -176.45c-41.1104 0 -84.1904 9.58984 -116.551 23.4297v-216.43h-106.84v701.56h82.3799z
M358.16 175.74l-0.0117188 159.58c-0.55957 58.4697 -35.9795 89.9199 -100.71 89.9199c-32.9697 0 -65.2598 -6.86035 -91.8193 -19.0703v-314.08c24.5 -9.83008 60.5303 -17.75 96.2305 -17.75c63.3203 0 96.3105 28.1201 96.3105 101.4z" />
    <glyph glyph-name="uni0441" unicode="&#x441;" horiz-adv-x="445" 
d="M39.46 196.05v108.88c0 129.77 76.1904 204.92 204.48 204.92c84.2598 0 136.35 -36.5303 166.369 -92.0605l-85.4004 -33.6699c-21.0801 25.9404 -48.9004 39.0605 -80.9707 39.0605c-60.1797 0 -97.6396 -36.1504 -97.6396 -118.25v-108.88
c0 -82.0996 37.46 -118.26 97.6396 -118.26c32.0703 0 59.8906 13.1201 80.9707 39.0703l85.4004 -33.6699c-30.0195 -55.5303 -82.1094 -92.1904 -166.369 -92.1904c-128.29 0 -204.48 75.2803 -204.48 205.05z" />
    <glyph glyph-name="uni0442" unicode="&#x442;" horiz-adv-x="467" 
d="M430.68 417.44h-143.681v-417.44h-106.84v417.44h-143.67v83.4502h394.19v-83.4502z" />
    <glyph glyph-name="uni0443" unicode="&#x443;" horiz-adv-x="508" 
d="M455.01 501l-0.0214844 -515.999c0 -118 -76.5 -177 -176.1 -177c-63.7598 0 -126.6 19 -181.699 55l41.21 60c39.46 -22.2305 80.2803 -36.0508 114.95 -36.0508c53.9502 0 92.9102 25.6504 94.8105 89.0508v47.4902
c-31.5 -14.9004 -75.4404 -23.4902 -117.421 -23.4902c-93.2598 0.55957 -181.95 45.2998 -181.95 175.02v325.97h106.84v-321.35c0 -73.29 32.9805 -101.4 96.3008 -101.4c35.7002 0 71.7305 7.91016 96.2402 17.7402v405.02h106.84z" />
    <glyph glyph-name="uni0444" unicode="&#x444;" horiz-adv-x="675" 
d="M390.77 504.45l14.6719 -0.0419922c149.29 -0.150391 229.8 -67.5 229.8 -252.26c0 -181.97 -58.9902 -258.149 -228.021 -259.149h-16.4502v-194h-106.84v194h-17.2402c-173.91 0 -227.23 84.5898 -227.23 259.12c0 184.66 79.2998 252.271 228.399 252.271
l16.0703 0.0703125v196.41h106.84v-196.42zM283.932 417.698l-15.0996 -0.0693359c-71.3604 -0.660156 -122.53 -26.1406 -122.53 -165.511c0 -132.04 34.5098 -171.72 122.12 -171.72l15.5098 -0.0498047v337.35zM390.772 80.3486l13.8398 0.0410156
c84.5498 0.969727 123.8 33.8594 123.8 171.669c0 139.3 -52.0195 164.78 -123.09 165.57l-14.5498 0.0595703v-337.34z" />
    <glyph glyph-name="uni0445" unicode="&#x445;" horiz-adv-x="452" 
d="M296.21 249.98l141.439 -249.92h-113.79l-95.3301 174.93l-99.3896 -174.93h-115.5l149.72 251.04l-143.15 249.84h116.2l93.4404 -180.47l90.21 180.47h114.92z" />
    <glyph glyph-name="uni0447" unicode="&#x447;" horiz-adv-x="504" 
d="M149.14 502.18l-0.00976562 -163.51c0 -48.5498 25.5801 -71.6094 73.6904 -71.6094c36.4297 0 94.4199 10.5996 118.41 15.1191v220h106.84v-502.18h-106.84v189.32c-27.2402 -5.2998 -96.4307 -17.75 -155.291 -17.75c-78.0195 0 -143.64 48.0098 -143.64 139.3v191.31
h106.84z" />
    <glyph glyph-name="uni0446" unicode="&#x446;" horiz-adv-x="554" 
d="M455.61 83.8496h73.0391v-198.85h-97.7695v115.56h-374.92v500.45h106.86v-417.33h185.95v417.33h106.84v-417.16z" />
    <glyph glyph-name="uni0448" unicode="&#x448;" horiz-adv-x="754" 
d="M698.73 0h-642.779v500.88h106.84v-417.96h161.14v417.96h106.84v-417.96h161.12v417.96h106.84v-500.88z" />
    <glyph glyph-name="uni0449" unicode="&#x449;" horiz-adv-x="798" 
d="M698.73 83.29l73.0293 0.00976562v-199.3h-97.7695v116h-618.04v500.89h106.84v-417.97h161.12v417.97h106.86v-417.77h161.12v417.77h106.84v-417.6z" />
    <glyph glyph-name="uni044C" unicode="&#x44c;" horiz-adv-x="483" 
d="M162.63 316.87l117.85 0.000976562c80.5098 0 167.45 -50.96 167.45 -158.44s-87.5098 -158.431 -162.05 -158.431h-229.92v500.41h106.67v-183.54zM162.63 232.981v-150.039h100.31c32.2197 0 81.5693 16.7998 81.5693 75.0195s-49.3496 75.0195 -81.5693 75.0195
h-100.31z" />
    <glyph glyph-name="uni044A" unicode="&#x44a;" horiz-adv-x="549" 
d="M229.27 316.87l117.85 0.00195312c80.5098 0 167.45 -50.96 167.45 -158.44s-87.5098 -158.431 -162.05 -158.431h-230.09v409.35h-113.92v91.0596h220.76v-183.54zM229.27 232.982v-150.039h100.31c32.2197 0 81.5693 16.7998 81.5693 75.0195
s-49.3496 75.0195 -81.5693 75.0195h-100.31z" />
    <glyph glyph-name="uni044B" unicode="&#x44b;" horiz-adv-x="673" 
d="M617.87 0h-106.67v500.41h106.67v-500.41zM162.63 316.87l117.85 0.000976562c80.5098 0 167.45 -50.96 167.45 -158.44s-87.5098 -158.431 -162.05 -158.431h-229.92v500.41h106.67v-183.54zM162.63 232.981v-150.029h100.31c32.2197 0 81.5693 16.7998 81.5693 75.0195
c0 58.21 -49.3496 75.0098 -81.5693 75.0098h-100.31z" />
    <glyph glyph-name="uni044D" unicode="&#x44d;" horiz-adv-x="456" 
d="M126.26 393.74l-85.2734 33.6299c31.2305 52.6602 83.3203 86.8105 165.07 86.8105c128.29 0 204.48 -75.1504 204.48 -204.92v-114.07c0 -135.97 -78.2598 -200.189 -211.399 -200.189c-80.0195 0 -129.939 32.4502 -158.999 80.3398l83.96 34.0596
c20.2402 -17.6797 45.8203 -27.2793 75.0508 -27.2793c65.9297 0 103.859 24.1602 104.56 107.95v31.3203h-142.48v66.8496h142.36v27.6797c-0.830078 77.21 -39.0498 111.59 -97.5303 111.59c-30.5195 0 -57.8291 -11.3301 -79.7988 -33.7705z" />
    <glyph glyph-name="uni044E" unicode="&#x44e;" horiz-adv-x="697" 
d="M250.51 292.25v28.7383c4.75977 118.79 75.0596 189.48 205.97 189.48c132.79 0 201.59 -81.5996 201.59 -202.319v-116.54c0 -97.0098 -51.79 -200.62 -202.69 -200.62c-142.77 0 -200.159 92.96 -205.159 187.67v30.46h-87.4297v-209.09h-106.84v501.32h106.84v-209.1
h87.7197zM551.229 191.608l0.000976562 116.539c0 73.04 -32.8701 115.66 -95.8604 115.66c-67.5303 0 -98.5 -37.8799 -98.5 -115.66v-116.54c0 -61.0898 27.6904 -113.899 98.5 -113.899c70.0996 0 95.8594 52.5303 95.8594 113.9z" />
    <glyph glyph-name="uni044F" unicode="&#x44f;" horiz-adv-x="511" 
d="M455.62 0l-106.67 -0.000976562v183.53h-87.9297l-109.63 -183.53h-109.52l126.3 203.7l-7.24023 3.4502c-40.2305 17.9404 -97.2803 53.8906 -97.2803 134.82c0 107.48 87.5 158.44 162.05 158.44h229.92v-500.41zM348.95 417.459l-100.32 -0.000976562
c-32.21 0 -81.5703 -16.7998 -81.5703 -75.0098c0 -58.2197 49.3604 -75.0293 81.5703 -75.0293h100.32v150.04z" />
    <glyph glyph-name="Delta" unicode="&#x394;" horiz-adv-x="833" 
 />
    <glyph glyph-name="Omega" unicode="&#x3a9;" horiz-adv-x="833" 
 />
    <glyph glyph-name="mu" unicode="&#x3bc;" horiz-adv-x="833" 
 />
    <glyph glyph-name="pi" unicode="&#x3c0;" horiz-adv-x="127" 
 />
    <glyph glyph-name="zero" unicode="0" horiz-adv-x="570" 
d="M57.2998 200l-0.000976562 293.11c0 146.27 94.4805 221.3 229.58 221.3c145.4 0 226.2 -89.7402 226.2 -222.141v-292.26c0 -157.18 -122.35 -210.01 -227.05 -210.01c-102.51 0 -228.729 52.5703 -228.729 210zM406.249 203.41v286.09
c0 81.6699 -40.2598 126.189 -119.47 126.189c-77.6504 0 -122.66 -37.5996 -122.66 -125.39v-286.89c0 -86.7197 59.8301 -115 121.86 -115c62.5596 0 120.27 28.04 120.27 115z" />
    <glyph glyph-name="one" unicode="1" horiz-adv-x="363" 
d="M289.24 0l-100.719 0.000976562v540.59c-14.0996 -16.3701 -31.8896 -28.3105 -51.4092 -37.3408c-27.2305 -11.6699 -57.6904 -17.21 -82.9102 -19.2295l-25.5498 101.4c36.3496 3.95996 70.6895 15.5996 99.209 32.9893c33.8096 20.29 59.4795 48.4297 72.7793 81.5898
h88.5996v-700z" />
    <glyph glyph-name="two" unicode="2" horiz-adv-x="497" 
d="M145.81 515.6l-104.38 29.4297c35.2803 105.65 100.431 165.881 218.911 165.881c118.04 0 200.95 -86.6201 200.95 -199c0 -60.5801 -23.1104 -117.49 -63.4805 -163.76l-199.22 -250.95h262.7v-97.2002h-420.12v73.6797l258.22 320.88
c39.9297 48.9902 54.9795 87.0098 54.9795 121.16c0 56.9404 -40.7002 96.46 -94.0205 96.46c-71.2998 0 -96.9102 -38.0498 -114.54 -96.5801z" />
    <glyph glyph-name="three" unicode="3" horiz-adv-x="518" 
d="M147.19 549.24l-94.2617 38.7012c20.3896 49.8896 84.0996 123.319 186.909 123.319c111.18 0 203.88 -74.7002 203.88 -194.13c0 -75.7002 -47.5703 -124.32 -87.71 -146.19c50.3604 -23.2998 108.12 -79.5693 108.12 -169.869
c0 -135.02 -98.9199 -212.079 -224.729 -212.079c-107.74 0 -174.681 60.9805 -203.57 105.79l82.8604 53.8896c23.2305 -35.8896 68.9209 -61.2998 120.711 -61.2998c66.3604 0 116.83 50.04 116.83 115.97c0 64.6396 -57.5703 119.33 -127.34 119.33h-47.6602v89.0596
h47.6602c60.4004 0 109.141 44.5596 109.141 100.869c0 57.1699 -41.9004 100.36 -98.21 100.36c-54.0303 0 -83.1104 -40.3604 -92.6299 -63.7207z" />
    <glyph glyph-name="four" unicode="4" horiz-adv-x="523" 
d="M426 264.21h55.2314v-94.0703h-55.2305v-170.14h-106.83v170.14h-287.69v94.0703l281.26 436.07h113.26v-436.07zM138.251 264.21h180.92v273.26z" />
    <glyph glyph-name="five" unicode="5" horiz-adv-x="529" 
d="M424.8 601.27h-218.451l-17.25 -153.41h63.7197c112 -3.55957 228.69 -85.4297 228.69 -224.699c0 -140.14 -103.23 -234.159 -241.25 -234.159c-102.79 0 -174.43 61.8398 -202.89 107.51l82.8604 53.4697c22.3604 -36.3301 73.2402 -62.5801 120.021 -62.5801
c80.9805 0 133.45 60.4502 134.37 131.22c-0.870117 68.7598 -51.1797 130.56 -133.5 130.56h-155.53l41.4697 351.16h297.74v-99.0703z" />
    <glyph glyph-name="six" unicode="6" horiz-adv-x="584" 
d="M62.9805 217.75l0.000976562 238.93c0 134.59 92.5498 254.13 259.18 254.13c93.3301 0 160.96 -45.7197 188.979 -70.1094l-64.5801 -73.9102c-23.2305 20.0098 -70.0508 45.29 -127.241 45.29c-112.2 0 -155.66 -80.6299 -155.66 -148.26v-85.75
c36.7598 51.2695 93.25 68.4395 138.44 68.4395c129.33 0 228.21 -100.92 228.21 -228.76s-103.03 -228.75 -233.88 -228.75s-233.449 100.92 -233.449 228.75zM296.432 347.68c-77.5801 0 -125.35 -56.7109 -126.619 -129.931c0 -72.3701 50.6104 -130.36 126.62 -130.36
c76 0 127.05 57.1699 127.05 130.36c0 73.2002 -50.3203 129.931 -127.051 129.931z" />
    <glyph glyph-name="seven" unicode="7" horiz-adv-x="489" 
d="M452.22 628.82l-310.28 -628.82h-104.83l296.49 600.83h-301.53v99.1699h420.15v-71.1797z" />
    <glyph glyph-name="eight" unicode="8" horiz-adv-x="559" 
d="M280.49 711.27c111.19 0 203.879 -74.7012 203.879 -194.131c0 -75.7002 -47.5703 -124.32 -87.71 -146.19c50.3604 -23.2998 108.12 -79.5693 108.12 -169.869c0 -135.02 -98.9102 -212.079 -224.72 -212.079c-125.38 0 -225.59 77.0596 -225.59 212.079
c0 90.7305 56.8896 147.44 108.979 170.301c-39.2695 22.2998 -87.2695 70.9199 -87.2695 145.76c0 119.42 92.6904 194.13 204.311 194.13zM280.488 612.969c-56.7305 0 -98.6309 -43.1895 -98.6309 -100.359c0 -55.8701 47.9502 -96.9102 98.2002 -96.9102
c51.9805 0 98.6406 40.5996 98.6406 96.9092c0 57.1699 -41.9004 100.36 -98.21 100.36zM280.059 318.45c-64.6396 0 -117.699 -50.46 -117.699 -115.1c0 -65.9297 51.7695 -115.97 117.699 -115.97c66.3701 0 116.83 50.04 116.83 115.97
c0 64.6396 -55.2197 115.1 -116.83 115.1z" />
    <glyph glyph-name="nine" unicode="9" horiz-adv-x="584" 
d="M420.97 235.55v85.7607c-36.7598 -51.2695 -93.2402 -68.4395 -138.44 -68.4395c-129.32 0 -228.2 100.92 -228.2 228.76s103.03 229.18 233.88 229.18s233.449 -101.36 233.449 -229.19v-238.92c0 -134.59 -92.5596 -253.7 -259.189 -253.7
c-93.3203 0 -160.96 45.29 -188.97 69.6797l64.5801 73.9102c23.2305 -20.0098 70.04 -45.29 127.23 -45.29c112.21 0 155.66 80.6299 155.66 148.25zM288.21 611.99c-76.0098 0 -127.061 -57.1592 -127.061 -130.359c0 -73.1904 50.3203 -129.931 127.051 -129.931
c77.5898 0 125.35 56.71 126.63 129.93c0 72.3701 -50.6201 130.36 -126.62 130.36z" />
    <glyph glyph-name="zero.lf" horiz-adv-x="570" 
d="M57.2998 200l-0.000976562 293.11c0 146.27 94.4805 221.3 229.58 221.3c145.4 0 226.2 -89.7402 226.2 -222.141v-292.26c0 -157.18 -122.35 -210.01 -227.05 -210.01c-102.51 0 -228.729 52.5703 -228.729 210zM406.249 203.41v286.09
c0 81.6699 -40.2598 126.189 -119.47 126.189c-77.6504 0 -122.66 -37.5996 -122.66 -125.39v-286.89c0 -86.7197 59.8301 -115 121.86 -115c62.5596 0 120.27 28.04 120.27 115z" />
    <glyph glyph-name="one.lf" horiz-adv-x="363" 
d="M289.24 0h-100.729v540.59c-14.4102 -16.75 -32.7803 -28.8301 -52.9404 -37.8896c-26.9102 -11.25 -56.6797 -16.6797 -81.3799 -18.6699l-25.54 101.39c37.5098 4.04004 72.7295 16.3203 101.609 34.5205c32.5 20.1396 57.2695 47.5996 70.3799 80.0596h88.5996v-700z
" />
    <glyph glyph-name="two.lf" horiz-adv-x="497" 
d="M145.81 515.6l-104.38 29.4297c35.2803 105.65 100.431 165.881 218.911 165.881c118.04 0 200.95 -86.6201 200.95 -199c0 -60.5801 -23.1104 -117.49 -63.4805 -163.76l-199.22 -250.95h262.7v-97.2002h-420.12v73.6797l258.22 320.88
c39.9297 48.9902 54.9795 87.0098 54.9795 121.16c0 56.9404 -40.7002 96.46 -94.0205 96.46c-71.2998 0 -96.9102 -38.0498 -114.54 -96.5801z" />
    <glyph glyph-name="three.lf" horiz-adv-x="518" 
d="M147.19 549.24l-94.2617 38.7012c20.3896 49.8896 84.0996 123.319 186.909 123.319c111.18 0 203.88 -74.7002 203.88 -194.13c0 -75.7002 -47.5703 -124.32 -87.71 -146.19c50.3604 -23.2998 108.12 -79.5693 108.12 -169.869
c0 -135.02 -98.9199 -212.079 -224.729 -212.079c-107.74 0 -174.681 60.9805 -203.57 105.79l82.8604 53.8896c23.2305 -35.8896 68.9209 -61.2998 120.711 -61.2998c66.3604 0 116.83 50.04 116.83 115.97c0 64.6396 -57.5703 119.33 -127.34 119.33h-47.6602v89.0596
h47.6602c60.4004 0 109.141 44.5596 109.141 100.869c0 57.1699 -41.9004 100.36 -98.21 100.36c-54.0303 0 -83.1104 -40.3604 -92.6299 -63.7207z" />
    <glyph glyph-name="four.lf" horiz-adv-x="523" 
d="M426 264.21h55.2314v-94.0703h-55.2305v-170.14h-106.83v170.14h-287.69v94.0703l281.26 436.07h113.26v-436.07zM138.251 264.21h180.92v273.26z" />
    <glyph glyph-name="five.lf" horiz-adv-x="529" 
d="M424.8 601.27h-218.451l-17.25 -153.41h63.7197c112 -3.55957 228.69 -85.4297 228.69 -224.699c0 -140.14 -103.23 -234.159 -241.25 -234.159c-102.79 0 -174.43 61.8398 -202.89 107.51l82.8604 53.4697c22.3604 -36.3301 73.2402 -62.5801 120.021 -62.5801
c80.9805 0 133.45 60.4502 134.37 131.22c-0.870117 68.7598 -51.1797 130.56 -133.5 130.56h-155.53l41.4697 351.16h297.74v-99.0703z" />
    <glyph glyph-name="six.lf" horiz-adv-x="599" 
d="M62.9805 217.75l0.000976562 238.93c0 134.59 92.5498 254.13 259.18 254.13c93.3301 0 160.96 -45.7197 188.979 -70.1094l-64.5801 -73.9102c-23.2305 20.0098 -70.0508 45.29 -127.241 45.29c-112.2 0 -155.66 -80.6299 -155.66 -148.26v-85.75
c36.7598 51.2695 93.25 68.4395 138.44 68.4395c129.33 0 228.21 -100.92 228.21 -228.76s-103.03 -228.75 -233.88 -228.75s-233.449 100.92 -233.449 228.75zM296.432 347.68c-77.5801 0 -125.35 -56.7109 -126.619 -129.931c0 -72.3701 50.6104 -130.36 126.62 -130.36
c76 0 127.05 57.1699 127.05 130.36c0 73.2002 -50.3203 129.931 -127.051 129.931z" />
    <glyph glyph-name="seven.lf" horiz-adv-x="502" 
d="M452.22 628.82l-310.28 -628.82h-104.83l296.49 600.83h-301.53v99.1699h420.15v-71.1797z" />
    <glyph glyph-name="eight.lf" horiz-adv-x="559" 
d="M280.49 711.27c111.19 0 203.879 -74.7012 203.879 -194.131c0 -75.7002 -47.5703 -124.32 -87.71 -146.19c50.3604 -23.2998 108.12 -79.5693 108.12 -169.869c0 -135.02 -98.9102 -212.079 -224.72 -212.079c-125.38 0 -225.59 77.0596 -225.59 212.079
c0 90.7305 56.8896 147.44 108.979 170.301c-39.2695 22.2998 -87.2695 70.9199 -87.2695 145.76c0 119.42 92.6904 194.13 204.311 194.13zM280.488 612.969c-56.7305 0 -98.6309 -43.1895 -98.6309 -100.359c0 -55.8701 47.9502 -96.9102 98.2002 -96.9102
c51.9805 0 98.6406 40.5996 98.6406 96.9092c0 57.1699 -41.9004 100.36 -98.21 100.36zM280.059 318.45c-64.6396 0 -117.699 -50.46 -117.699 -115.1c0 -65.9297 51.7695 -115.97 117.699 -115.97c66.3701 0 116.83 50.04 116.83 115.97
c0 64.6396 -55.2197 115.1 -116.83 115.1z" />
    <glyph glyph-name="nine.lf" horiz-adv-x="584" 
d="M420.97 235.55v85.7607c-36.7598 -51.2695 -93.2402 -68.4395 -138.44 -68.4395c-129.32 0 -228.2 100.92 -228.2 228.76s103.03 229.18 233.88 229.18s233.449 -101.36 233.449 -229.19v-238.92c0 -134.59 -92.5596 -253.7 -259.189 -253.7
c-93.3203 0 -160.96 45.29 -188.97 69.6797l64.5801 73.9102c23.2305 -20.0098 70.04 -45.29 127.23 -45.29c112.21 0 155.66 80.6299 155.66 148.25zM288.21 611.99c-76.0098 0 -127.061 -57.1592 -127.061 -130.359c0 -73.1904 50.3203 -129.931 127.051 -129.931
c77.5898 0 125.35 56.71 126.63 129.93c0 72.3701 -50.6201 130.36 -126.62 130.36z" />
    <glyph glyph-name="zero.osf" horiz-adv-x="570" 
d="M57.2998 200.01l-0.000976562 88.1094c0 146.27 94.4805 221.3 229.58 221.3c145.41 0 226.2 -89.75 226.2 -222.15v-87.2598c0 -157.18 -122.35 -210.01 -227.05 -210.01c-102.51 0 -228.729 52.5703 -228.729 210.011zM406.259 203.419v81.0811
c0 81.6699 -40.2598 126.189 -119.47 126.189c-77.6504 0 -122.66 -37.5898 -122.66 -125.39v-81.8799c0 -86.7305 59.8301 -115.011 121.86 -115.011c62.5596 0 120.27 28.0498 120.27 115.01z" />
    <glyph glyph-name="one.osf" horiz-adv-x="456" 
d="M296.63 93.6104l106.78 0.000976562v-93.6104h-323.23v93.6104h119.42v260.77c-14.2305 -14.3496 -31.5107 -24.8896 -50.1006 -32.9395c-22.6904 -9.20996 -46.75 -14.4004 -67.0596 -16.5205l-22.1602 87.8701c30.7803 4.51953 60.3398 14.8291 85.4297 29.959
c32.0801 19.0303 56.5703 45.5898 69.4307 77.1602h81.4902v-406.3z" />
    <glyph glyph-name="two.osf" horiz-adv-x="493" 
d="M145.19 330.62l-103.741 28.0605c35.5596 94.3799 103.149 150.229 214.89 150.229c105.69 0 200.94 -65.0195 200.94 -180.329c0 -64.9902 -43.3398 -116.86 -116.09 -160.431l-109.76 -74.1104h224.96v-94.04h-419.22v72.8203l194.71 117.53
c61.6201 37.4004 118.49 89.21 118.49 134.53c0 54.2998 -36.8203 89.4297 -92.5898 89.4297c-68.25 0 -99.25 -43.8301 -112.59 -83.6904z" />
    <glyph glyph-name="three.osf" horiz-adv-x="518" 
d="M147.19 347.51l-94.2734 38.3125c20.3896 49.8896 84.0996 123.319 186.909 123.319c111.19 0 203.881 -74.7002 203.881 -194.12c0 -75.7002 -47.5596 -124.33 -87.6992 -146.19c50.3604 -23.2998 108.12 -79.5801 108.12 -169.83c0 -135 -98.9199 -212 -224.729 -212
c-107.74 0 -174.681 62 -203.57 106l82.8604 54c23.2305 -36 68.9209 -61 120.711 -61c66.3604 0 116.83 50 116.83 115.82c0 64.4297 -57.5703 119.12 -127.34 119.12h-47.6602v89.0596h47.6602c60.4004 0 109.141 44.5596 109.141 100.869
c0 57.1699 -41.9004 100.36 -98.21 100.36c-54.0303 0 -83.1104 -40.3604 -92.6299 -63.7207z" />
    <glyph glyph-name="four.osf" horiz-adv-x="523" 
d="M426 64.4805h55.2314v-94.4805h-55.2305v-170h-106.83v170h-287.69v94.4805l281.26 436.07h113.26v-436.07zM138.251 64.4805h180.92v273.26z" />
    <glyph glyph-name="five.osf" horiz-adv-x="529" 
d="M424.8 402.11l-218.451 0.00976562l-17.25 -153.42h63.7197c112 -3.55957 228.69 -85.4297 228.69 -224.699c0 -140 -103.23 -235 -241.25 -235c-102.79 0 -174.43 63 -202.89 108l82.8604 54c22.3604 -37 73.2402 -63 120.021 -63c80.9805 0 133.45 61 134.37 131.53
c-0.870117 68.7598 -51.1797 130.569 -133.5 130.569h-155.53l41.4697 351.33h297.74v-99.3203z" />
    <glyph glyph-name="six.osf" horiz-adv-x="600" 
d="M62.9805 217.75l0.000976562 238.93c0 134.59 92.5498 254.13 259.18 254.13c93.3301 0 160.96 -45.7197 188.979 -70.1094l-64.5801 -73.9102c-23.2305 20.0098 -70.0508 45.29 -127.241 45.29c-112.2 0 -155.66 -80.6299 -155.66 -148.26v-85.75
c36.7598 51.2695 93.25 68.4395 138.44 68.4395c129.33 0 228.21 -100.92 228.21 -228.76s-103.03 -228.75 -233.88 -228.75s-233.449 100.92 -233.449 228.75zM296.432 347.68c-77.5801 0 -125.35 -56.7109 -126.619 -129.931c0 -72.3701 50.6104 -130.36 126.62 -130.36
c76 0 127.05 57.1699 127.05 130.36c0 73.2002 -50.3203 129.931 -127.051 129.931z" />
    <glyph glyph-name="seven.osf" horiz-adv-x="502" 
d="M452.22 429.82l-310.28 -628.82h-104.83l296.49 600.83h-301.53v99.1699h420.15v-71.1797z" />
    <glyph glyph-name="eight.osf" horiz-adv-x="559" 
d="M280.49 711.27c111.19 0 203.879 -74.7012 203.879 -194.131c0 -75.7002 -47.5703 -124.32 -87.71 -146.19c50.3604 -23.2998 108.12 -79.5693 108.12 -169.869c0 -135.02 -98.9102 -212.079 -224.72 -212.079c-125.38 0 -225.59 77.0596 -225.59 212.079
c0 90.7305 56.8896 147.44 108.979 170.301c-39.2695 22.2998 -87.2695 70.9199 -87.2695 145.76c0 119.42 92.6904 194.13 204.311 194.13zM280.488 612.969c-56.7305 0 -98.6309 -43.1895 -98.6309 -100.359c0 -55.8701 47.9502 -96.9102 98.2002 -96.9102
c51.9805 0 98.6406 40.5996 98.6406 96.9092c0 57.1699 -41.9004 100.36 -98.21 100.36zM280.059 318.45c-64.6396 0 -117.699 -50.46 -117.699 -115.1c0 -65.9297 51.7695 -115.97 117.699 -115.97c66.3701 0 116.83 50.04 116.83 115.97
c0 64.6396 -55.2197 115.1 -116.83 115.1z" />
    <glyph glyph-name="nine.osf" horiz-adv-x="585" 
d="M420.97 33.5596l-0.000976562 86.0508c-36.7598 -51.2803 -93.2402 -68.4404 -138.44 -68.4404c-129.32 0 -228.2 100.91 -228.2 228.75s103.03 229.189 233.88 229.189c130.73 0 233.45 -101.34 233.45 -229.189v-238.92c0 -135 -92.5596 -255 -259.189 -255
c-93.3203 0 -160.96 46 -188.97 71l64.5801 74c23.2305 -20 70.04 -46 127.23 -46c112.21 0 155.66 81 155.66 148.56zM288.209 410.29c-76.0098 0 -127.061 -57.1689 -127.061 -130.359c0 -73.2002 50.3203 -129.931 127.051 -129.931
c77.5898 0 125.35 56.71 126.63 129.93c0 72.3799 -50.7305 130.36 -126.62 130.36z" />
    <glyph glyph-name="zero.tf" horiz-adv-x="570" 
d="M57.2998 200l-0.000976562 293.11c0 146.27 94.4805 221.3 229.58 221.3c145.4 0 226.2 -89.7402 226.2 -222.141v-292.26c0 -157.18 -122.35 -210.01 -227.05 -210.01c-102.51 0 -228.729 52.5703 -228.729 210zM406.249 203.41v286.09
c0 81.6699 -40.2598 126.189 -119.47 126.189c-77.6504 0 -122.66 -37.5996 -122.66 -125.39v-286.89c0 -86.7197 59.8301 -115 121.86 -115c62.5596 0 120.27 28.04 120.27 115z" />
    <glyph glyph-name="one.tf" horiz-adv-x="542" 
d="M336.92 96.5303h118.77v-96.5303h-350.06v96.5303h130.56v448.82c-14.75 -17.1699 -33.79 -29.4102 -54.6602 -38.4805c-26.5303 -10.7998 -55.54 -16.1201 -79.6504 -18.0898l-25.5498 101.4c35.4404 3.90039 69.0908 15.0605 97.291 31.8203
c34.8496 20.3896 61.25 49.0498 74.71 82.7598h88.5898v-608.23z" />
    <glyph glyph-name="two.tf" horiz-adv-x="553" 
d="M145.81 515.6l-104.38 29.4297c35.2803 105.65 100.431 165.881 218.911 165.881c118.04 0 200.95 -86.6201 200.95 -199c0 -60.5801 -23.1104 -117.49 -63.4805 -163.76l-199.22 -250.95h262.7v-97.2002h-420.12v73.6797l258.22 320.88
c39.9297 48.9902 54.9795 87.0098 54.9795 121.16c0 56.9404 -40.7002 96.46 -94.0205 96.46c-71.2998 0 -96.9102 -38.0498 -114.54 -96.5801z" />
    <glyph glyph-name="three.tf" horiz-adv-x="548" 
d="M147.19 549.24l-94.2617 38.7012c20.3896 49.8896 84.0996 123.319 186.909 123.319c111.18 0 203.88 -74.7002 203.88 -194.13c0 -75.7002 -47.5703 -124.32 -87.71 -146.19c50.3604 -23.2998 108.12 -79.5693 108.12 -169.869
c0 -135.02 -98.9199 -212.079 -224.729 -212.079c-107.74 0 -174.681 60.9805 -203.57 105.79l82.8604 53.8896c23.2305 -35.8896 68.9209 -61.2998 120.711 -61.2998c66.3604 0 116.83 50.04 116.83 115.97c0 64.6396 -57.5703 119.33 -127.34 119.33h-47.6602v89.0596
h47.6602c60.4004 0 109.141 44.5596 109.141 100.869c0 57.1699 -41.9004 100.36 -98.21 100.36c-54.0303 0 -83.1104 -40.3604 -92.6299 -63.7207z" />
    <glyph glyph-name="four.tf" horiz-adv-x="559" 
d="M426 264.21h55.2314v-94.0703h-55.2305v-170.14h-106.83v170.14h-287.69v94.0703l281.26 436.07h113.26v-436.07zM138.251 264.21h180.92v273.26z" />
    <glyph glyph-name="five.tf" horiz-adv-x="559" 
d="M424.8 601.27h-218.451l-17.25 -153.41h63.7197c112 -3.55957 228.69 -85.4297 228.69 -224.699c0 -140.14 -103.23 -234.159 -241.25 -234.159c-102.79 0 -174.43 61.8398 -202.89 107.51l82.8604 53.4697c22.3604 -36.3301 73.2402 -62.5801 120.021 -62.5801
c80.9805 0 133.45 60.4502 134.37 131.22c-0.870117 68.7598 -51.1797 130.56 -133.5 130.56h-155.53l41.4697 351.16h297.74v-99.0703z" />
    <glyph glyph-name="six.tf" horiz-adv-x="591" 
d="M62.9805 217.75l0.000976562 238.93c0 134.59 92.5498 254.13 259.18 254.13c93.3301 0 160.96 -45.7197 188.979 -70.1094l-64.5801 -73.9102c-23.2305 20.0098 -70.0508 45.29 -127.241 45.29c-112.2 0 -155.66 -80.6299 -155.66 -148.26v-85.75
c36.7598 51.2695 93.25 68.4395 138.44 68.4395c129.33 0 228.21 -100.92 228.21 -228.76s-103.03 -228.75 -233.88 -228.75s-233.449 100.92 -233.449 228.75zM296.432 347.68c-77.5801 0 -125.35 -56.7109 -126.619 -129.931c0 -72.3701 50.6104 -130.36 126.62 -130.36
c76 0 127.05 57.1699 127.05 130.36c0 73.2002 -50.3203 129.931 -127.051 129.931z" />
    <glyph glyph-name="seven.tf" horiz-adv-x="535" 
d="M452.22 628.82l-310.28 -628.82h-104.83l296.49 600.83h-301.53v99.1699h420.15v-71.1797z" />
    <glyph glyph-name="eight.tf" horiz-adv-x="562" 
d="M280.49 711.27c111.19 0 203.879 -74.7012 203.879 -194.131c0 -75.7002 -47.5703 -124.32 -87.71 -146.19c50.3604 -23.2998 108.12 -79.5693 108.12 -169.869c0 -135.02 -98.9102 -212.079 -224.72 -212.079c-125.38 0 -225.59 77.0596 -225.59 212.079
c0 90.7305 56.8896 147.44 108.979 170.301c-39.2695 22.2998 -87.2695 70.9199 -87.2695 145.76c0 119.42 92.6904 194.13 204.311 194.13zM280.488 612.969c-56.7305 0 -98.6309 -43.1895 -98.6309 -100.359c0 -55.8701 47.9502 -96.9102 98.2002 -96.9102
c51.9805 0 98.6406 40.5996 98.6406 96.9092c0 57.1699 -41.9004 100.36 -98.21 100.36zM280.059 318.45c-64.6396 0 -117.699 -50.46 -117.699 -115.1c0 -65.9297 51.7695 -115.97 117.699 -115.97c66.3701 0 116.83 50.04 116.83 115.97
c0 64.6396 -55.2197 115.1 -116.83 115.1z" />
    <glyph glyph-name="nine.tf" horiz-adv-x="591" 
d="M420.97 235.55v85.7607c-36.7598 -51.2695 -93.2402 -68.4395 -138.44 -68.4395c-129.32 0 -228.2 100.92 -228.2 228.76s103.03 229.18 233.88 229.18s233.449 -101.36 233.449 -229.19v-238.92c0 -134.59 -92.5596 -253.7 -259.189 -253.7
c-93.3203 0 -160.96 45.29 -188.97 69.6797l64.5801 73.9102c23.2305 -20.0098 70.04 -45.29 127.23 -45.29c112.21 0 155.66 80.6299 155.66 148.25zM288.21 611.99c-76.0098 0 -127.061 -57.1592 -127.061 -130.359c0 -73.1904 50.3203 -129.931 127.051 -129.931
c77.5898 0 125.35 56.71 126.63 129.93c0 72.3701 -50.6201 130.36 -126.62 130.36z" />
    <glyph glyph-name="zero.tosf" horiz-adv-x="570" 
d="M57.3701 200.01l-0.000976562 88.1094c0 146.27 94.4805 221.3 229.58 221.3c145.41 0 226.2 -89.75 226.2 -222.15v-87.2598c0 -157.18 -122.35 -210.01 -227.04 -210.01c-102.52 0 -228.739 52.5703 -228.739 210.011zM406.329 203.419l0.000976562 81.0811
c0 81.6699 -40.25 126.189 -119.46 126.189c-77.6602 0 -122.66 -37.5898 -122.66 -125.39v-81.8799c0 -86.7305 59.8301 -115.011 121.85 -115.011c62.5596 0 120.27 28.0498 120.27 115.01z" />
    <glyph glyph-name="one.tosf" horiz-adv-x="511" 
d="M320.69 93.6104h106.771v-93.6104h-323.22v93.6104h119.42v260.78c-14.1396 -14.2695 -31.2598 -24.7695 -49.6797 -32.8193c-22.7998 -9.29004 -47.0303 -14.5205 -67.4805 -16.6504l-22.1602 87.8701c30.1904 4.45996 59.29 14.46 84.1396 29.1797
c32.7695 19.0898 57.75 46.0098 70.71 77.9395h81.5v-406.3z" />
    <glyph glyph-name="two.tosf" horiz-adv-x="591" 
d="M173.25 330.62l-103.76 28.0605c35.5596 94.3701 103.159 150.23 214.899 150.23c105.68 0 200.939 -65.0195 200.939 -180.34c0 -64.9805 -43.3398 -116.851 -116.09 -160.421l-109.76 -74.1104h224.96v-94.04h-419.22v72.8203l194.71 117.53
c61.6299 37.4004 118.49 89.21 118.49 134.53c0 54.2998 -36.8203 89.4297 -92.5801 89.4297c-68.2598 0 -99.25 -43.8301 -112.59 -83.6904z" />
    <glyph glyph-name="three.tosf" horiz-adv-x="548" 
d="M167.03 347.35l-94.2734 38.5195c20.3896 49.9004 84.0996 123.33 186.909 123.33c111.19 0 203.881 -74.7002 203.881 -194.13c0 -75.7002 -47.5596 -124.32 -87.6992 -146.19c50.3604 -23.2998 108.12 -79.5693 108.12 -169.879c0 -135 -98.9199 -212 -224.729 -212
c-107.74 0 -174.681 62 -203.57 106l82.8604 54c23.2305 -36 68.9209 -61 120.711 -61c66.3604 0 116.83 50 116.83 115.82c0 64.2803 -57.5703 118.96 -127.34 118.96h-47.6602v89.0596h47.6602c60.4004 0 109.141 44.5703 109.141 100.87
c0 57.1699 -41.9004 100.37 -98.21 100.37c-54.0303 0 -83.1104 -40.3701 -92.6299 -63.7305z" />
    <glyph glyph-name="four.tosf" horiz-adv-x="559" 
d="M446.33 64.4805h55.2305v-94.4805h-55.2305v-170h-106.83v170h-287.68v94.4805l281.25 436.07h113.26v-436.07zM158.58 64.4805h180.92v273.26z" />
    <glyph glyph-name="five.tosf" horiz-adv-x="559" 
d="M442.54 402.11l-218.46 0.00976562l-17.25 -153.42h63.7197c112.01 -3.55957 228.689 -85.4297 228.689 -224.699c0 -140 -103.23 -235 -241.25 -235c-102.78 0 -174.431 63 -202.891 108l82.8701 54c22.3604 -37 73.2402 -63 120.021 -63
c80.9805 0 133.44 61 134.36 131.53c-0.870117 68.7598 -51.1699 130.569 -133.5 130.569h-155.52l41.4697 351.33h297.74v-99.3203z" />
    <glyph glyph-name="six.tosf" horiz-adv-x="591" 
d="M67.2998 217.75v238.93c0 134.59 92.5596 254.13 259.189 254.13c93.3203 0 160.96 -45.7197 188.97 -70.1094l-64.5801 -73.9102c-23.2305 20.0098 -70.04 45.29 -127.23 45.29c-112.21 0 -155.66 -80.6299 -155.66 -148.26v-85.75
c36.7598 51.2695 93.2402 68.4395 138.44 68.4395c129.32 0 228.2 -100.92 228.2 -228.76s-103.03 -228.75 -233.88 -228.75s-233.449 100.92 -233.449 228.75zM300.75 347.68c-77.5801 0 -125.339 -56.7109 -126.619 -129.931c0 -72.3701 50.6201 -130.36 126.62 -130.36
c76.0098 0 127.06 57.1699 127.06 130.36c0 73.2002 -50.3203 129.931 -127.061 129.931z" />
    <glyph glyph-name="seven.tosf" horiz-adv-x="535" 
d="M482.5 429.82l-310.28 -628.82h-104.83l296.49 600.83h-301.53v99.1699h420.15v-71.1797z" />
    <glyph glyph-name="eight.tosf" horiz-adv-x="562" 
d="M279.62 711.27c111.18 0 203.879 -74.7012 203.879 -194.131c0 -75.7002 -47.5703 -124.32 -87.71 -146.19c50.3604 -23.2998 108.12 -79.5693 108.12 -169.869c0 -135.02 -98.9102 -212.079 -224.72 -212.079c-125.38 0 -225.59 77.0596 -225.59 212.079
c0 90.7305 56.8896 147.44 108.979 170.301c-39.2695 22.2998 -87.2695 70.9199 -87.2695 145.76c0 119.42 92.6904 194.13 204.311 194.13zM279.619 612.969c-56.7305 0 -98.6299 -43.1895 -98.6299 -100.359c0 -55.8701 47.9502 -96.9102 98.2002 -96.9102
c51.9697 0 98.6299 40.5996 98.6299 96.9092c0 57.1699 -41.9004 100.36 -98.2002 100.36zM279.19 318.45c-64.6299 0 -117.7 -50.46 -117.7 -115.1c0 -65.9297 51.7598 -115.97 117.7 -115.97c66.3604 0 116.83 50.04 116.83 115.97
c0 64.6396 -55.2305 115.1 -116.83 115.1z" />
    <glyph glyph-name="nine.tosf" horiz-adv-x="591" 
d="M428.32 33.5596l-0.000976562 86.0508c-36.7598 -51.2803 -93.2402 -68.4404 -138.44 -68.4404c-129.32 0 -228.2 100.91 -228.2 228.75s103.03 229.189 233.88 229.189c130.73 0 233.45 -101.34 233.45 -229.189v-238.92c0 -135 -92.5498 -255 -259.18 -255
c-93.3301 0 -160.96 46 -188.979 71l64.5801 74c23.2305 -20 70.04 -46 127.23 -46c112.21 0 155.66 81 155.66 148.56zM295.56 410.29c-76.0098 0 -127.061 -57.1689 -127.061 -130.359c0 -73.2002 50.3301 -129.931 127.061 -129.931
c77.5801 0 125.34 56.71 126.62 129.93c0 72.3799 -50.7305 130.36 -126.62 130.36z" />
    <glyph glyph-name="fraction" unicode="&#x2044;" horiz-adv-x="418" 
d="M134.99 0h-94.9902l243 700h94.9902z" />
    <glyph glyph-name="onehalf" unicode="&#xbd;" horiz-adv-x="815" 
d="M212.66 279h-76.7305v302.22c-8.84961 -8.08008 -21.3398 -14.6201 -34.8203 -19.21c-14.96 -4.75 -30.5596 -7.37988 -43.0791 -7.54004l-19.3701 76.25c16.1699 0.839844 37.1201 6.28027 56.2002 15.8506c22.8301 10.9297 43.0801 28.8994 50.7803 53.4297h67.0195
v-421zM306.939 0h-94.9902l243 700h94.9902zM593.31 303.06l-75.5 20.96c21.0098 62.7695 58.8701 103.079 134.67 103.079c73.75 0 123.86 -53.8896 123.86 -122.89c0 -35.0498 -12.5703 -70.3896 -38.5605 -99.5898l-108.53 -133.94h147.1v-70.6797h-258.43v53.3203
l151.63 188.16c24.6699 29.7197 29.6299 49.8799 29.6299 64.8896c0 25.9404 -17.4297 49.2002 -46.6895 49.2002c-34.8701 0 -49.0801 -18.6602 -59.1797 -52.5098z" />
    <glyph glyph-name="onequarter" unicode="&#xbc;" horiz-adv-x="773" 
d="M212.66 279l-76.7295 0.000976562v302.22c-8.33008 -7.59961 -19.5898 -13.8896 -31.96 -18.4697c-15.7197 -5.28027 -32.6699 -8.16016 -45.9395 -8.28027l-19.3701 76.25c16.8398 0.80957 38.8496 6.62988 58.5 16.9697
c21.8398 11.0195 40.9395 28.6191 48.4795 52.3096h67.0195v-421zM300.121 0.000976562h-94.9902l243 700h94.9902zM703.541 169.581l31.71 0.000976562v-71.46h-31.71v-98.1201h-78.6699v98.1201h-166.12v64.6396l166.54 258.3h78.25v-251.48zM536.541 169.582h91.9502
v145.68z" />
    <glyph glyph-name="threequarters" unicode="&#xbe;" horiz-adv-x="825" 
d="M117.94 602.74l-70.2021 28.0918c18.5498 45.8301 64.7998 77.7705 116.34 77.7705c62.4805 0 118.24 -44.4697 118.24 -117.18c0 -38.3301 -17.7998 -62.0605 -41.0498 -78.3008c44.8496 -24.5596 63.8799 -62.9395 63.8799 -106.229
c0 -78.0303 -62.6699 -132.271 -141.51 -132.271c-55.6904 0 -99.6602 27.8799 -125 66.5703l61.8799 39.8896c11.6602 -18.7305 35.9004 -32.25 62.1602 -32.25c37.3604 0 64.1807 26.4297 64.1807 64.4697c0 37.5898 -27.6699 65.2295 -63.2197 65.2295h-33.8301v64.5195
h30.7803c26.0303 0 45.5703 20.9102 45.5703 45.6299c0 25.9199 -19.3096 45.7695 -44.3193 45.7695c-21.2803 0 -36.9502 -12.9502 -43.9004 -31.71zM351.398 -0.0078125h-94.9902l243 700h94.9902zM754.809 169.572l31.71 0.000976562v-71.4502h-31.7002v-98.1299
h-78.6699v98.1299h-166.13v64.6396l166.55 258.3h78.2402v-251.49zM587.809 169.573h91.96v145.68z" />
    <glyph glyph-name="oneeighth" unicode="&#x215b;" horiz-adv-x="811" 
d="M212.66 279l-76.7285 -0.00976562v302.23c-8.2002 -7.48047 -19.1602 -13.7002 -31.25 -18.2705c-15.9004 -5.41992 -33.2002 -8.36035 -46.6602 -8.48047l-19.3701 76.25c16.3799 0.830078 37.6494 6.37988 56.8994 16.1797
c22.54 10.96 42.4297 28.8203 50.0898 53.1006h67.0195v-421zM306.932 -0.00976562h-94.9902l243 700h94.9902zM637.581 427.71c67.5498 0 123.29 -45.792 123.29 -117.472c0 -51.9004 -34.3604 -76.6309 -49.3506 -86.9707
c18.21 -11.0801 61.4502 -40.3799 61.4502 -101.35c0 -81.0498 -61.3496 -127.93 -135.64 -127.93c-74.2998 0 -136.16 45.8604 -136.16 127.94c0 61.9902 43.3301 90.7705 61.96 101.721c-14.8203 10.4404 -49.1104 36.3008 -49.1104 86.6006
c0 70.0498 55.9102 117.46 123.561 117.46zM637.571 357.438c-29.3398 0 -49.6094 -24.3203 -49.6094 -50.8906s23.71 -48.8604 49.3604 -48.8604c25.6396 0 49.6094 20.4199 49.6094 48.8604c0 28.4004 -19.9404 50.8906 -49.3604 50.8906zM637.321 187.269
c-37.9502 0 -62.6396 -31.7607 -62.6396 -61.1904c0 -29.4404 23.2998 -61.7002 62.6396 -61.7002c39.3301 0 62.1299 31.3301 62.1299 61.7002s-26.5 61.1904 -62.1299 61.1904z" />
    <glyph glyph-name="threeeighths" unicode="&#x215c;" horiz-adv-x="841" 
d="M117.94 602.74l-70.2021 28.0918c18.5498 45.8301 64.7998 77.7705 116.34 77.7705c62.4805 0 118.24 -44.4697 118.24 -117.18c0 -38.3301 -17.7998 -62.0605 -41.0498 -78.3008c44.8496 -24.5596 63.8799 -62.9395 63.8799 -106.229
c0 -78.0303 -62.6699 -132.271 -141.51 -132.271c-55.6904 0 -99.6602 27.8799 -125 66.5703l61.8799 39.8896c11.6602 -18.7305 35.9004 -32.25 62.1602 -32.25c37.3604 0 64.1807 26.4297 64.1807 64.4697c0 37.5898 -27.6699 65.2295 -63.2197 65.2295h-33.8301v64.5195
h30.7803c26.0303 0 45.5703 20.9102 45.5703 45.6299c0 25.9199 -19.3096 45.7695 -44.3193 45.7695c-21.2803 0 -36.9502 -12.9502 -43.9004 -31.71zM354.278 -0.0078125h-94.9902l243 700h94.9902zM667.498 427.712c67.6504 0 123.302 -45.8213 123.302 -117.472
c0 -51.9004 -34.3604 -76.6309 -49.3604 -86.9707c18.2197 -11.0801 61.46 -40.3799 61.46 -101.35c0 -81.0498 -61.3604 -127.93 -135.65 -127.93s-136.16 45.8604 -136.16 127.94c0 61.9902 43.3301 90.7705 61.96 101.721
c-14.8203 10.4404 -49.1006 36.3008 -49.1006 86.6006c0 70.0596 55.79 117.46 123.55 117.46zM667.499 357.441c-29.2305 0 -49.6104 -24.3398 -49.6104 -50.8896c0 -26.5703 23.7197 -48.8604 49.3594 -48.8604c25.6504 0 49.6104 20.4199 49.6104 48.8604
c0 28.4297 -20.0098 50.8896 -49.3594 50.8896zM667.249 187.271c-37.9404 0 -62.6299 -31.7607 -62.6299 -61.1904c0 -29.4404 23.2998 -61.7002 62.6299 -61.7002c39.3398 0 62.1299 31.3301 62.1299 61.7002c0 30.4004 -26.5801 61.1904 -62.1299 61.1904z" />
    <glyph glyph-name="fiveeighths" unicode="&#x215d;" horiz-adv-x="841" 
d="M271.63 628.42l-127.66 -0.000976562l-8.37988 -75.5996h33.3799c72.0996 -1.63965 135.659 -51.2598 135.659 -136.21c0 -100.67 -79.7002 -144.25 -148.01 -144.25c-57.3301 0 -103.32 33.1797 -124.46 66.3496l61.8896 39.8203
c11.3701 -18.5801 38.1904 -34.5898 62.5703 -34.5898c42.7695 0 69.25 34.4902 69.7305 70.1006c-0.509766 36.5098 -27.4102 67.5898 -69.2197 67.5898h-99.7402l25.8203 218.37h188.42v-71.5801zM353.56 -0.000976562h-94.9902l243 700h94.9902zM667.499 427.719
c67.6504 0 123.302 -45.8311 123.302 -117.471c0 -51.9004 -34.3604 -76.6309 -49.3604 -86.9707c18.2197 -11.0801 61.46 -40.3799 61.46 -101.35c0 -81.0596 -61.3604 -127.939 -135.65 -127.939s-136.16 45.8701 -136.16 127.94c0 61.9902 43.3301 90.7705 61.96 101.73
c-14.8203 10.4404 -49.1006 36.29 -49.1006 86.5996c0 70.0596 55.79 117.46 123.55 117.46zM667.5 357.438c-29.2305 0 -49.6104 -24.3408 -49.6104 -50.8906c0 -26.5703 23.7197 -48.8604 49.3594 -48.8604c25.6504 0 49.6104 20.4199 49.6104 48.8604
s-20.0098 50.8906 -49.3594 50.8906zM667.25 187.268c-37.9404 0 -62.6299 -31.75 -62.6299 -61.1904s23.2998 -61.6904 62.6299 -61.6904c39.3398 0 62.1299 31.3301 62.1299 61.6904c0 30.4102 -26.5801 61.1904 -62.1299 61.1904z" />
    <glyph glyph-name="seveneighths" unicode="&#x215e;" horiz-adv-x="754" 
d="M293.04 647.29l-179.54 -362.57h-79.0303l169.67 343.63h-169.79v71.6504h258.69v-52.71zM260.69 -0h-94.9902l243 700h94.9902zM580.181 427.72c67.6396 0 123.301 -45.8213 123.301 -117.472c0 -51.9004 -34.3701 -76.6309 -49.3604 -86.9707
c18.21 -11.0801 61.4502 -40.3799 61.4502 -101.35c0 -81.0498 -61.3496 -127.93 -135.649 -127.93c-74.29 0 -136.16 45.8604 -136.16 127.94c0 61.9902 43.3301 90.7705 61.9697 101.721c-14.8203 10.4404 -49.1104 36.3008 -49.1104 86.6006
c0 70.0596 55.7998 117.46 123.56 117.46zM580.182 357.449c-29.2305 0 -49.6104 -24.3398 -49.6104 -50.8896c0 -26.5703 23.71 -48.8604 49.3604 -48.8604c25.6396 0 49.6094 20.4199 49.6094 48.8604c0 28.4297 -20.0195 50.8896 -49.3594 50.8896zM579.932 187.279
c-37.9502 0 -62.6396 -31.7607 -62.6396 -61.1904c0 -29.4404 23.2998 -61.7002 62.6396 -61.7002c39.3301 0 62.1299 31.3301 62.1299 61.7002c0 30.4004 -26.5801 61.1904 -62.1299 61.1904z" />
    <glyph glyph-name="zero.dnom" horiz-adv-x="363" 
d="M38.6504 133.29v155.019c0 72.25 42.1396 139.24 144.05 139.24c101.86 0 142.061 -69.7197 142.061 -139.729v-155.02c0 -72.2002 -42.1797 -138.8 -144.05 -138.8c-101.86 0 -142.061 69.2803 -142.061 139.29zM243.67 129.318v162
c0 32.25 -15.6299 64.9297 -61.0195 64.9297s-62.8994 -29.71 -62.8994 -64.46v-162c0 -32.25 15.6299 -64.9297 61.0195 -64.9297s62.8994 29.71 62.8994 64.46z" />
    <glyph glyph-name="one.dnom" horiz-adv-x="233" 
d="M194.53 0h-76.7305v302.23c-8.25 -7.51953 -19.3203 -13.7695 -31.5 -18.3496c-15.8398 -5.36035 -33.0098 -8.28027 -46.3994 -8.41016l-19.3701 76.2598c16.8096 0.80957 38.7695 6.59961 58.3896 16.9092c21.9004 11.0098 41.0508 28.6299 48.5908 52.3604h67.0195
v-421z" />
    <glyph glyph-name="two.dnom" horiz-adv-x="321" 
d="M108.08 303.06l-75.5 20.96c21 62.7695 58.8604 103.079 134.67 103.079c73.75 0 123.86 -53.8896 123.86 -122.89c0 -35.0498 -12.5703 -70.3896 -38.5605 -99.5898l-108.53 -133.94h147.09v-70.6797h-258.42v53.3203l151.62 188.16
c24.6797 29.7197 29.6299 49.8799 29.6299 64.8896c0 25.9404 -17.4199 49.2002 -46.6895 49.2002c-34.8701 0 -49.0703 -18.6602 -59.1699 -52.5098z" />
    <glyph glyph-name="three.dnom" horiz-adv-x="336" 
d="M114.72 321.69l-70.2021 28.0908c18.54 45.8301 64.79 77.7705 116.33 77.7705c62.4902 0 118.25 -44.4697 118.25 -117.18c0 -38.3301 -17.7998 -62.0605 -41.0498 -78.3008c44.9297 -24.6104 63.8799 -62.9404 63.8799 -106.221
c0 -78.04 -62.6699 -131.85 -141.5 -131.85c-55.7002 0 -99.6602 27.4502 -125.01 66.1504l61.8799 39.8896c11.6602 -18.7305 35.9004 -32.25 62.1602 -32.25c37.3604 0 64.1807 26.4297 64.1807 64.4697c0 37.5898 -27.6699 65.2295 -63.2197 65.2295h-33.8301v64.5195
h30.7803c26.0303 0 45.5703 20.9102 45.5703 45.6201c0 25.9199 -19.3096 45.7803 -44.3193 45.7803c-21.2803 0 -36.9502 -12.96 -43.9004 -31.7197z" />
    <glyph glyph-name="four.dnom" horiz-adv-x="332" 
d="M270.46 169.58l31.71 0.000976562v-71.46h-31.7002v-98.1201h-78.6699v98.1201h-166.13v64.6396l166.55 258.3h78.2402v-251.48zM103.46 169.581h91.96v145.68z" />
    <glyph glyph-name="five.dnom" horiz-adv-x="336" 
d="M271.63 349.61l-127.651 -0.0107422l-8.37988 -75.5801h32.8896c72.3604 0 136.141 -51.1201 136.141 -136.23c0 -100.67 -79.7002 -143.81 -148.01 -143.81c-57.3301 0 -103.32 32.7402 -124.46 65.9199l61.8896 39.8203
c11.3701 -18.5801 38.1904 -34.5898 62.5703 -34.5898c42.7695 0 69.25 34.4902 69.7305 70.1006c-0.509766 36.5098 -27.4102 67.5898 -69.2197 67.5898h-99.7402l25.8203 218.37h188.42v-71.5801z" />
    <glyph glyph-name="six.dnom" horiz-adv-x="358" 
d="M38.6504 133.46l0.000976562 137.109c0 88.9404 63.5596 155.641 158.56 155.641c62.4697 0 102.319 -31.5 114.859 -42.5801l-46.5801 -53.1699c-13.1602 11.3203 -36.4805 24.1699 -69.8906 24.1699c-48.0596 0 -81.21 -33.6904 -83.3799 -75.0205v-41.4297
c12.6602 11.21 36.9004 31.6699 73.2207 31.6699c75.5498 0 140.649 -59.21 140.649 -136.39c0 -79.5996 -64.5996 -141.46 -143.85 -141.46c-79.2002 0 -143.59 61.8398 -143.59 141.46zM182.231 198.409c-41.2803 0 -65.3496 -30.5205 -65.3496 -67.2207
c0 -36.6396 24.8096 -67.4795 65.3496 -67.4795c40.6504 0 65.6104 30.6602 65.6104 67.4805c0 36.8398 -24.1299 67.2197 -65.6104 67.2197z" />
    <glyph glyph-name="seven.dnom" horiz-adv-x="322" 
d="M293.04 362.57l-179.54 -362.57h-79.0303l169.67 343.63h-169.79v71.6504h258.69v-52.71z" />
    <glyph glyph-name="eight.dnom" horiz-adv-x="340" 
d="M170.74 427.72c67.6504 0 123.301 -45.8311 123.301 -117.471c0 -51.9004 -34.3604 -76.6309 -49.3506 -86.9707c18.21 -11.0801 61.4502 -40.3799 61.4502 -101.35c0 -81.0596 -61.3604 -127.939 -135.65 -127.939c-74.2998 0 -136.16 45.8701 -136.16 127.94
c0 61.9902 43.3301 90.7705 61.96 101.73c-14.8203 10.4404 -49.1104 36.29 -49.1104 86.5996c0 70.04 55.9102 117.46 123.561 117.46zM170.74 357.439c-29.3398 0 -49.6104 -24.3203 -49.6104 -50.8906s23.71 -48.8604 49.3604 -48.8604
c25.6396 0 49.6094 20.4199 49.6094 48.8604s-20.0195 50.8906 -49.3594 50.8906zM170.489 187.27c-37.9502 0 -62.6396 -31.75 -62.6396 -61.1904s23.2998 -61.6904 62.6396 -61.6904c39.3301 0 62.1299 31.3301 62.1299 61.6904
c0 30.3701 -26.5098 61.1904 -62.1299 61.1904z" />
    <glyph glyph-name="nine.dnom" horiz-adv-x="358" 
d="M246.02 140.58l-0.00195312 41.1016c-12.6602 -11.21 -36.9004 -31.6797 -73.2207 -31.6797c-75.5498 0 -140.64 59.2197 -140.64 136.399c0 79.5703 64.6504 141.19 143.851 141.19c79.1904 0 143.591 -61.5703 143.591 -141.19v-137.12
c0 -88.9404 -63.5596 -155.28 -158.56 -155.28c-62.4404 0 -102.24 31.0996 -114.87 42.2295l46.5801 53.1699c13.1602 -11.3203 36.4805 -24.1699 69.8906 -24.1699c48.21 0 81.5898 33.9297 83.3799 75.3496zM176.008 356.151
c-40.5898 0 -65.6113 -30.6904 -65.6113 -67.4902c0 -36.8496 24.29 -67.2197 65.6104 -67.2197c41.2803 0 65.3604 30.5303 65.3604 67.2305c0 36.6396 -24.8096 67.4795 -65.3594 67.4795z" />
    <glyph glyph-name="zero.numr" horiz-adv-x="363" 
d="M38.6504 414.06l0.000976562 155.02c0 72.25 42.1396 139.24 144.05 139.24c101.89 0 142.17 -69.7998 142.06 -139.729v-155.02c0 -72.2002 -42.1797 -139.24 -144.05 -139.24c-101.86 0 -142.061 69.7197 -142.061 139.729zM243.671 410.089l0.000976562 161.99
c0 32.2598 -15.7402 64.9297 -61.0205 64.9297c-45.3896 0 -62.8994 -29.71 -62.8994 -64.46v-161.99c0 -32.25 15.6299 -64.9297 61.0195 -64.9297s62.8994 29.71 62.8994 64.46z" />
    <glyph glyph-name="one.numr" horiz-adv-x="233" 
d="M194.53 279l-76.7285 0.00195312v302.23c-8.24023 -7.51953 -19.29 -13.7598 -31.46 -18.3398c-15.8496 -5.37012 -33.04 -8.2998 -46.4404 -8.41992l-19.3701 76.2598c17.7998 0.769531 41.3301 7.14941 61.6904 18.6689
c20.4297 11.0596 37.9893 28.0791 45.2891 50.5986h67.0195v-421z" />
    <glyph glyph-name="two.numr" horiz-adv-x="321" 
d="M108.08 581.75l-75.5 20.959c21 62.7803 58.8604 103.08 134.67 103.08c73.75 0 123.86 -53.8896 123.86 -122.88c0 -35.0498 -12.5703 -70.3994 -38.5605 -99.5898l-108.53 -133.94h147.09v-70.6904h-258.42v53.3203l151.62 188.16
c24.6797 29.7305 29.6299 49.8809 29.6299 64.9004c0 25.9404 -17.4199 49.2002 -46.6895 49.2002c-34.8701 0 -49.0703 -18.6699 -59.1699 -52.5195z" />
    <glyph glyph-name="three.numr" horiz-adv-x="336" 
d="M114.29 602.74l-70.2002 28.0918c18.54 45.8301 64.79 77.7705 116.33 77.7705c62.4902 0 118.25 -44.4697 118.25 -117.18c0 -38.3301 -17.8096 -62.0605 -41.0596 -78.3008c44.8604 -24.5596 63.8799 -62.9395 63.8799 -106.229
c0 -78.0303 -62.6602 -132.271 -141.5 -132.271c-55.7002 0 -99.6602 27.8799 -125 66.5703l61.8799 39.8896c11.6602 -18.7305 35.8906 -32.25 62.1602 -32.25c37.3496 0 64.1797 26.4297 64.1797 64.4697c0 37.5898 -27.6699 65.2295 -63.2197 65.2295h-33.8301v64.5195
h30.7695c26.04 0 45.5703 20.9102 45.5703 45.6299c0 25.9199 -19.3096 45.7695 -44.3096 45.7695c-21.29 0 -36.9502 -12.9502 -43.9004 -31.71z" />
    <glyph glyph-name="four.numr" horiz-adv-x="332" 
d="M270.46 448.66l31.71 0.000976562v-71.4502h-31.7002v-98.1299h-78.6699v98.1299h-166.13v64.6396l166.55 258.3h78.2402v-251.49zM103.46 448.661h91.96v145.68z" />
    <glyph glyph-name="five.numr" horiz-adv-x="336" 
d="M271.63 628.42l-127.651 -0.000976562l-8.37988 -75.5703h32.5703c72.5303 0 136.46 -51.0195 136.46 -136.239c0 -100.67 -79.7002 -144.25 -148.01 -144.25c-57.3301 0 -103.32 33.1797 -124.46 66.3496l61.8896 39.8203
c11.3701 -18.5801 38.1904 -34.5898 62.5703 -34.5898c42.7695 0 69.25 34.4902 69.7305 70.1006c-0.509766 36.5098 -27.4102 67.5898 -69.2197 67.5898h-99.7402l25.8203 218.37h188.42v-71.5801z" />
    <glyph glyph-name="six.numr" horiz-adv-x="358" 
d="M38.6504 415.29l0.000976562 137.108c0 88.9404 63.5596 155.641 158.56 155.641c62.4697 0 102.319 -31.5098 114.869 -42.5898l-46.5801 -53.1602c-13.1602 11.3096 -36.4805 24.1699 -69.8906 24.1699c-48.4199 0 -81.8496 -34.2598 -83.3896 -75.7998v-40.6504
c12.6602 11.21 36.9004 31.6699 73.2207 31.6699c75.5498 0 140.649 -59.21 140.649 -136.39c0 -79.5996 -64.5996 -141.189 -143.85 -141.189c-79.2002 0 -143.59 61.5703 -143.59 141.19zM182.241 480.238c-41.2803 0 -65.3604 -30.5303 -65.3604 -67.2207
c0 -36.6396 24.8096 -67.4795 65.3594 -67.4795c40.6504 0 65.6104 30.6602 65.6104 67.4805c0 36.8301 -24.1396 67.2197 -65.6094 67.2197z" />
    <glyph glyph-name="seven.numr" horiz-adv-x="322" 
d="M293.04 647.29l-179.54 -362.57h-79.0303l169.67 343.63h-169.79v71.6504h258.69v-52.71z" />
    <glyph glyph-name="eight.numr" horiz-adv-x="340" 
d="M170.74 708.3c67.6396 0 123.301 -45.8213 123.301 -117.461c0 -51.9004 -34.3701 -76.6309 -49.3604 -86.9707c18.2197 -11.0801 61.46 -40.3799 61.46 -101.35c0 -81.0596 -61.3604 -128.369 -135.65 -128.369c-74.2998 0 -136.16 46.2998 -136.16 128.37
c0 61.9902 43.3301 90.7705 61.96 101.73c-14.8203 10.4404 -49.1104 36.29 -49.1104 86.5898c0 70.0498 55.9102 117.46 123.561 117.46zM170.741 638.029c-29.3496 0 -49.6201 -24.3203 -49.6201 -50.8906s23.7197 -48.8604 49.3594 -48.8604
c25.6504 0 49.6104 20.4199 49.6104 48.8604s-20.0098 50.8906 -49.3496 50.8906zM170.48 467.869c-37.9404 0 -62.6299 -31.7607 -62.6299 -61.1904c0 -29.4404 23.2998 -61.7002 62.6299 -61.7002c39.3398 0 62.1299 31.3301 62.1299 61.7002
c0 30.3604 -26.5 61.1904 -62.1299 61.1904z" />
    <glyph glyph-name="nine.numr" horiz-adv-x="358" 
d="M246.02 422.18l0.0078125 39.9512c-12.6602 -11.21 -36.9004 -31.6797 -73.2207 -31.6797c-75.5498 0 -140.64 59.2197 -140.64 136.399c0 79.5703 64.6504 141.19 143.841 141.19c79.2002 0 143.59 -61.5703 143.59 -141.19v-137.12
c0 -88.9404 -63.5596 -155.721 -158.56 -155.721c-62.4404 0 -102.24 31.5303 -114.87 42.6699l46.5801 53.1602c13.1602 -11.3096 36.4805 -24.1699 69.8906 -24.1699c48.7305 0 82.3408 34.7998 83.3809 76.5098zM176.018 636.601
c-40.5898 0 -65.6211 -30.6904 -65.6211 -67.4902c0 -36.8496 24.29 -67.2197 65.6201 -67.2197c41.2803 0 65.3506 30.5303 65.3506 67.2305c0 36.6396 -24.8096 67.4795 -65.3496 67.4795z" />
    <glyph glyph-name="onesuperior" unicode="&#xb9;" horiz-adv-x="227" 
d="M194.53 279l-76.7275 -0.00195312v302.23c-8.54004 -7.79004 -20.2803 -14.1797 -33.0801 -18.7793c-15.4404 -5.05957 -31.8506 -7.83984 -44.8311 -7.97949l-19.3701 76.2598c18.1699 0.75 42.29 7.37012 62.8896 19.3506
c19.8799 11.0596 36.8799 27.8496 44.0996 49.9199h67.0195v-421z" />
    <glyph glyph-name="twosuperior" unicode="&#xb2;" horiz-adv-x="321" 
d="M108.08 581.75l-75.5 20.959c21 62.7803 58.8604 103.08 134.67 103.08c73.75 0 123.86 -53.8896 123.86 -122.88c0 -35.0498 -12.5703 -70.3994 -38.5605 -99.5898l-108.53 -133.94h147.09v-70.6904h-258.42v53.3203l151.62 188.16
c24.6797 29.7305 29.6299 49.8809 29.6299 64.9004c0 25.9404 -17.4199 49.2002 -46.6895 49.2002c-34.8701 0 -49.0703 -18.6699 -59.1699 -52.5195z" />
    <glyph glyph-name="threesuperior" unicode="&#xb3;" horiz-adv-x="341" 
d="M114.29 602.74l-70.2002 28.1025c18.54 45.8301 64.79 77.7598 116.33 77.7598c62.4902 0 118.25 -44.46 118.25 -117.17c0 -38.3398 -17.8096 -62.0703 -41.0596 -78.3008c44.8604 -24.5703 63.8799 -62.9404 63.8799 -106.23
c0 -78.0596 -60.8203 -132.279 -141.5 -132.279c-55.7002 0 -99.6602 27.8799 -125 66.5703l61.8799 39.8896c11.6602 -18.7305 35.8906 -32.25 62.1602 -32.25c37.3496 0 64.1797 26.4297 64.1797 64.4697c0 37.5898 -27.6699 65.2295 -63.2197 65.2295h-33.8301v64.5195
h30.7695c26.04 0 45.5703 20.9102 45.5703 45.6299c0 25.9199 -19.3096 45.7695 -44.3096 45.7695c-21.29 0 -36.9502 -12.9502 -43.9004 -31.71z" />
    <glyph glyph-name="asterisk" unicode="*" horiz-adv-x="446" 
d="M257.02 570.02l123.359 49.0908l24.2002 -73.5195l-125.57 -37.0996l82.7305 -101.24l-62.9502 -45.9004l-72.2305 107.52l-71.5596 -108.78l-62.3799 45.2197l78.8301 100.72l-125.78 37.71l24.4102 73.46l119.91 -48.6396l-5.41016 131.44h77.7402z" />
    <glyph glyph-name="backslash" unicode="\" horiz-adv-x="424" 
d="M389.07 0h-106.1l-242.97 700h106.1z" />
    <glyph glyph-name="bullet" unicode="&#x2022;" horiz-adv-x="356" 
d="M177.09 457.2c72.7002 0 131.851 -59.1602 131.851 -131.851c0 -72.7002 -59.1504 -131.42 -131.851 -131.42c-72.6904 0 -131.421 58.7197 -131.421 131.42c0 72.6904 58.7305 131.851 131.421 131.851z" />
    <glyph glyph-name="colon" unicode=":" horiz-adv-x="185" 
d="M94.2695 456.8c32.9697 0 60.3896 -27.4297 60.3896 -60.3896c0 -32.9697 -27.4199 -60.3799 -60.3896 -60.3799c-32.96 0 -60.5098 27.4102 -60.5098 60.3799c0 32.96 27.5498 60.3896 60.5098 60.3896zM94.3691 114.52c32.96 0 60.3896 -27.4199 60.3896 -60.3896
c0 -32.96 -27.4297 -60.1299 -60.3896 -60.1299c-32.9697 0 -60.5098 27.1699 -60.5098 60.1299c0 32.9697 27.54 60.3896 60.5098 60.3896z" />
    <glyph glyph-name="comma" unicode="," horiz-adv-x="187" 
d="M29.5596 -80l28.8311 87.8906c-13.4805 10.9502 -22.2705 27.7305 -22.2705 46.2402c0 32.9697 27.4199 60.3896 60.3896 60.3896c32.96 0 60.3896 -27.4199 60.3896 -60.3896c0 -10.1504 -2.61035 -19.7803 -7.16992 -28.2305l-49.9199 -105.9h-70.25z" />
    <glyph glyph-name="ellipsis" unicode="&#x2026;" horiz-adv-x="650" 
d="M94.7197 114.54c32.96 0 60.3896 -27.4297 60.3896 -60.3896c0 -32.9697 -27.4297 -60.1494 -60.3896 -60.1494c-32.9697 0 -60.3896 27.1797 -60.3896 60.1494c0 32.96 27.4199 60.3896 60.3896 60.3896zM326.819 114.54c32.96 0 60.3896 -27.4297 60.3896 -60.3896
c0 -32.9697 -27.4297 -60.1494 -60.3896 -60.1494c-32.9697 0 -60.3896 27.1797 -60.3896 60.1494c0 32.96 27.4199 60.3896 60.3896 60.3896zM559.35 114.54c32.9697 0 60.3896 -27.4297 60.3896 -60.3896c0 -32.9697 -27.4199 -60.1494 -60.3896 -60.1494
c-32.96 0 -60.3896 27.1797 -60.3896 60.1494c0 32.96 27.4297 60.3896 60.3896 60.3896z" />
    </font>
</defs>
</svg>
